G04 #@! TF.FileFunction,Soldermask,Top*
%FSLAX46Y46*%
G04 Gerber Fmt 4.6, Leading zero omitted, Abs format (unit mm)*
G04 Created by KiCad (PCBNEW 4.0.4-stable) date 02/19/22 22:26:41*
%MOMM*%
%LPD*%
G01*
G04 APERTURE LIST*
%ADD10C,0.100000*%
%ADD11R,1.900000X1.650000*%
%ADD12R,2.000000X2.000000*%
%ADD13C,2.000000*%
%ADD14R,1.650000X1.900000*%
%ADD15R,3.900000X3.900000*%
%ADD16R,2.600000X2.600000*%
%ADD17O,2.600000X2.600000*%
%ADD18R,2.998420X1.598880*%
%ADD19R,3.000960X1.598880*%
%ADD20R,2.200000X3.300000*%
%ADD21O,2.400000X1.600000*%
%ADD22R,2.100000X2.100000*%
%ADD23O,2.100000X2.100000*%
%ADD24R,0.900000X2.700000*%
%ADD25R,2.400000X2.900000*%
%ADD26C,1.300000*%
%ADD27R,1.600000X1.300000*%
%ADD28R,1.300000X1.600000*%
%ADD29C,2.400000*%
%ADD30R,1.050000X2.400000*%
%ADD31R,1.900000X0.650000*%
%ADD32R,0.650000X1.900000*%
%ADD33R,0.850000X2.150000*%
%ADD34C,1.400000*%
G04 APERTURE END LIST*
D10*
D11*
X129356800Y-93916500D03*
X131856800Y-93916500D03*
X129433000Y-91681300D03*
X131933000Y-91681300D03*
D12*
X121615200Y-61544200D03*
D13*
X121615200Y-59544200D03*
D11*
X128580200Y-68554600D03*
X126080200Y-68554600D03*
D12*
X131724400Y-73456800D03*
D13*
X131724400Y-75956800D03*
D12*
X112953800Y-52654200D03*
D13*
X112953800Y-55154200D03*
D11*
X111932400Y-58267600D03*
X114432400Y-58267600D03*
D14*
X102260400Y-55250400D03*
X102260400Y-52750400D03*
D15*
X129895600Y-53492400D03*
X129895600Y-47492400D03*
X125195600Y-50492400D03*
D16*
X133807200Y-58293000D03*
D17*
X126187200Y-58293000D03*
D16*
X136702800Y-61772800D03*
D17*
X136702800Y-69392800D03*
D18*
X111693960Y-62001400D03*
D19*
X116296440Y-62001400D03*
D20*
X130353000Y-65811400D03*
X133553000Y-65811400D03*
D21*
X101275800Y-118900000D03*
X101275800Y-121440000D03*
X101275800Y-123980000D03*
X101275800Y-126520000D03*
D22*
X87388700Y-73520300D03*
D23*
X87388700Y-76060300D03*
X87388700Y-78600300D03*
X87388700Y-81140300D03*
X87388700Y-83680300D03*
X87388700Y-86220300D03*
X87388700Y-88760300D03*
X87388700Y-91300300D03*
X87388700Y-93840300D03*
X87388700Y-96380300D03*
X87388700Y-98920300D03*
X87388700Y-101460300D03*
X87388700Y-104000300D03*
D22*
X87388700Y-110058200D03*
D23*
X87388700Y-112598200D03*
X87388700Y-115138200D03*
X87388700Y-117678200D03*
X87388700Y-120218200D03*
X87388700Y-122758200D03*
X87388700Y-125298200D03*
X87388700Y-127838200D03*
X87388700Y-130378200D03*
D22*
X89877900Y-66319400D03*
D23*
X87337900Y-66319400D03*
X89877900Y-63779400D03*
X87337900Y-63779400D03*
X89877900Y-61239400D03*
X87337900Y-61239400D03*
X89877900Y-58699400D03*
X87337900Y-58699400D03*
X89877900Y-56159400D03*
X87337900Y-56159400D03*
X89877900Y-53619400D03*
X87337900Y-53619400D03*
X89877900Y-51079400D03*
X87337900Y-51079400D03*
X89877900Y-48539400D03*
X87337900Y-48539400D03*
X89877900Y-45999400D03*
X87337900Y-45999400D03*
X89877900Y-43459400D03*
X87337900Y-43459400D03*
D22*
X147294600Y-102311200D03*
D23*
X147294600Y-104851200D03*
X147294600Y-107391200D03*
X147294600Y-109931200D03*
X147294600Y-112471200D03*
X147294600Y-115011200D03*
X147294600Y-117551200D03*
X147294600Y-120091200D03*
D22*
X147523200Y-43484800D03*
D23*
X147523200Y-46024800D03*
X147523200Y-48564800D03*
X147523200Y-51104800D03*
X147523200Y-53644800D03*
X147523200Y-56184800D03*
X147523200Y-58724800D03*
X147523200Y-61264800D03*
X147523200Y-63804800D03*
X147523200Y-66344800D03*
D22*
X147358100Y-73037700D03*
D23*
X147358100Y-75577700D03*
X147358100Y-78117700D03*
X147358100Y-80657700D03*
X147358100Y-83197700D03*
X147358100Y-85737700D03*
X147358100Y-88277700D03*
X147358100Y-90817700D03*
X147358100Y-93357700D03*
X147358100Y-95897700D03*
D24*
X108356200Y-49282000D03*
X107556200Y-49282000D03*
X106756200Y-49282000D03*
X105956200Y-49282000D03*
X105156200Y-49282000D03*
D25*
X111206200Y-49182000D03*
X111206200Y-43682000D03*
X102306200Y-49182000D03*
X102306200Y-43682000D03*
D26*
X108956200Y-46682000D03*
X104556200Y-46682000D03*
D27*
X128430200Y-70637400D03*
X126230200Y-70637400D03*
X124045800Y-72440800D03*
X126245800Y-72440800D03*
D28*
X98298000Y-71747200D03*
X98298000Y-73947200D03*
X100279200Y-71747200D03*
X100279200Y-73947200D03*
X105765600Y-52824200D03*
X105765600Y-55024200D03*
X107492800Y-52824200D03*
X107492800Y-55024200D03*
D27*
X103741400Y-57785000D03*
X101541400Y-57785000D03*
D29*
X124536200Y-105960300D03*
X124536200Y-101460300D03*
X131036200Y-105960300D03*
X131036200Y-101460300D03*
D30*
X127950000Y-62374200D03*
X127000000Y-62374200D03*
X126050000Y-62374200D03*
X126050000Y-65794200D03*
X127950000Y-65794200D03*
D31*
X107258600Y-86305700D03*
X107258600Y-86805700D03*
X107258600Y-87305700D03*
X107258600Y-87805700D03*
X107258600Y-88305700D03*
X107258600Y-88805700D03*
X107258600Y-89305700D03*
X107258600Y-89805700D03*
X107258600Y-90305700D03*
X107258600Y-90805700D03*
X107258600Y-91305700D03*
X107258600Y-91805700D03*
X107258600Y-92305700D03*
X107258600Y-92805700D03*
X107258600Y-93305700D03*
X107258600Y-93805700D03*
D32*
X109508600Y-96055700D03*
X110008600Y-96055700D03*
X110508600Y-96055700D03*
X111008600Y-96055700D03*
X111508600Y-96055700D03*
X112008600Y-96055700D03*
X112508600Y-96055700D03*
X113008600Y-96055700D03*
X113508600Y-96055700D03*
X114008600Y-96055700D03*
X114508600Y-96055700D03*
X115008600Y-96055700D03*
X115508600Y-96055700D03*
X116008600Y-96055700D03*
X116508600Y-96055700D03*
X117008600Y-96055700D03*
D31*
X119258600Y-93805700D03*
X119258600Y-93305700D03*
X119258600Y-92805700D03*
X119258600Y-92305700D03*
X119258600Y-91805700D03*
X119258600Y-91305700D03*
X119258600Y-90805700D03*
X119258600Y-90305700D03*
X119258600Y-89805700D03*
X119258600Y-89305700D03*
X119258600Y-88805700D03*
X119258600Y-88305700D03*
X119258600Y-87805700D03*
X119258600Y-87305700D03*
X119258600Y-86805700D03*
X119258600Y-86305700D03*
D32*
X117008600Y-84055700D03*
X116508600Y-84055700D03*
X116008600Y-84055700D03*
X115508600Y-84055700D03*
X115008600Y-84055700D03*
X114508600Y-84055700D03*
X114008600Y-84055700D03*
X113508600Y-84055700D03*
X113008600Y-84055700D03*
X112508600Y-84055700D03*
X112008600Y-84055700D03*
X111508600Y-84055700D03*
X111008600Y-84055700D03*
X110508600Y-84055700D03*
X110008600Y-84055700D03*
X109508600Y-84055700D03*
D33*
X98314800Y-68446200D03*
X98964800Y-68446200D03*
X99614800Y-68446200D03*
X100264800Y-68446200D03*
X100914800Y-68446200D03*
X101564800Y-68446200D03*
X102214800Y-68446200D03*
X102864800Y-68446200D03*
X103514800Y-68446200D03*
X104164800Y-68446200D03*
X104814800Y-68446200D03*
X105464800Y-68446200D03*
X106114800Y-68446200D03*
X106764800Y-68446200D03*
X106764800Y-61246200D03*
X106114800Y-61246200D03*
X105464800Y-61246200D03*
X104814800Y-61246200D03*
X104164800Y-61246200D03*
X103514800Y-61246200D03*
X102864800Y-61246200D03*
X102214800Y-61246200D03*
X101564800Y-61246200D03*
X100914800Y-61246200D03*
X100264800Y-61246200D03*
X99614800Y-61246200D03*
X98964800Y-61246200D03*
X98314800Y-61246200D03*
D34*
X126085600Y-93916500D03*
X126085600Y-91376500D03*
M02*
