M48
INCH,TZ
T1C0.016
T2C0.020
T3C0.031
T4C0.039
T5C0.043
%
G90
G05
T1
X36930Y-31250
X37640Y-29960
X37855Y-28425
X37920Y-28990
X38040Y-32905
X39125Y-31070
X39465Y-24775
X39470Y-43450
X39575Y-31185
X40240Y-36220
X40255Y-24755
X40295Y-26245
X40445Y-35950
X40480Y-37550
X40860Y-38790
X41015Y-24875
X41085Y-39065
X41120Y-38535
X41175Y-23225
X41255Y-20170
X41380Y-22360
X41400Y-37710
X41520Y-24910
X41630Y-23320
X41705Y-35045
X42150Y-22715
X42920Y-35160
X43140Y-27810
X43335Y-35205
X43370Y-37210
X43385Y-33710
X43495Y-38515
X43530Y-40710
X43540Y-41225
X43550Y-41755
X43723Y-40453
X43735Y-40965
X43740Y-41490
X43850Y-34000
X43950Y-38410
X43965Y-25005
X43965Y-37205
X44210Y-33720
X44400Y-32560
X44800Y-33680
X44865Y-32550
X45145Y-38500
X45310Y-35490
X46410Y-36050
X46415Y-35235
X46850Y-31135
X46880Y-30280
X46885Y-38790
X47100Y-31460
X47245Y-30260
X47250Y-38385
X47510Y-38145
X47550Y-36055
X47560Y-35240
X47760Y-37005
X48015Y-39120
X48080Y-39535
X48125Y-40490
X48390Y-38685
X48495Y-36885
X50095Y-35650
X51095Y-33925
X51390Y-34110
X51700Y-34230
X52055Y-34265
X52755Y-39580
X52945Y-35450
X53030Y-39870
X53330Y-35495
X54010Y-31145
X54210Y-31455
X54835Y-29435
X55130Y-29680
X55410Y-29415
X55705Y-29645
X55945Y-32330
X55990Y-29370
X56250Y-29590
X56310Y-32360
X56510Y-29370
X56545Y-34255
X56575Y-35220
X56770Y-29600
X56855Y-35030
X56935Y-34240
T2
X49640Y-35975
X49640Y-36975
T3
X39872Y-46811
X39872Y-47811
X39872Y-48811
X39872Y-49811
X44470Y-20730
X44470Y-21714
X47880Y-23443
X47880Y-24230
X51860Y-28920
X51860Y-29904
T4
X34385Y-17110
X34385Y-18110
X34385Y-19110
X34385Y-20110
X34385Y-21110
X34385Y-22110
X34385Y-23110
X34385Y-24110
X34385Y-25110
X34385Y-26110
X34405Y-28945
X34405Y-29945
X34405Y-30945
X34405Y-31945
X34405Y-32945
X34405Y-33945
X34405Y-34945
X34405Y-35945
X34405Y-36945
X34405Y-37945
X34405Y-38945
X34405Y-39945
X34405Y-40945
X34405Y-43330
X34405Y-44330
X34405Y-45330
X34405Y-46330
X34405Y-47330
X34405Y-48330
X34405Y-49330
X34405Y-50330
X34405Y-51330
X35385Y-17110
X35385Y-18110
X35385Y-19110
X35385Y-20110
X35385Y-21110
X35385Y-22110
X35385Y-23110
X35385Y-24110
X35385Y-25110
X35385Y-26110
X57990Y-40280
X57990Y-41280
X57990Y-42280
X57990Y-43280
X57990Y-44280
X57990Y-45280
X57990Y-46280
X57990Y-47280
X58015Y-28755
X58015Y-29755
X58015Y-30755
X58015Y-31755
X58015Y-32755
X58015Y-33755
X58015Y-34755
X58015Y-35755
X58015Y-36755
X58015Y-37755
X58080Y-17120
X58080Y-18120
X58080Y-19120
X58080Y-20120
X58080Y-21120
X58080Y-22120
X58080Y-23120
X58080Y-24120
X58080Y-25120
X58080Y-26120
T5
X49030Y-39945
X49030Y-41717
X49680Y-22950
X51589Y-39945
X51589Y-41717
X52680Y-22950
X53820Y-24320
X53820Y-27320
T4
X49290Y-19485G85X49290Y-20273
G05
X51534Y-18698G85X50746Y-18698
G05
X51534Y-21060G85X50746Y-21060
G05
T0
M30
