G04 #@! TF.FileFunction,Legend,Top*
%FSLAX46Y46*%
G04 Gerber Fmt 4.6, Leading zero omitted, Abs format (unit mm)*
G04 Created by KiCad (PCBNEW 4.0.4-stable) date 02/19/22 22:26:41*
%MOMM*%
%LPD*%
G01*
G04 APERTURE LIST*
%ADD10C,0.100000*%
%ADD11C,0.300000*%
%ADD12C,0.120000*%
%ADD13C,0.150000*%
G04 APERTURE END LIST*
D10*
D11*
X90081243Y-129755200D02*
X89938386Y-129683771D01*
X89724100Y-129683771D01*
X89509815Y-129755200D01*
X89366957Y-129898057D01*
X89295529Y-130040914D01*
X89224100Y-130326629D01*
X89224100Y-130540914D01*
X89295529Y-130826629D01*
X89366957Y-130969486D01*
X89509815Y-131112343D01*
X89724100Y-131183771D01*
X89866957Y-131183771D01*
X90081243Y-131112343D01*
X90152672Y-131040914D01*
X90152672Y-130540914D01*
X89866957Y-130540914D01*
X90795529Y-131183771D02*
X90795529Y-129683771D01*
X91652672Y-131183771D01*
X91652672Y-129683771D01*
X92366958Y-131183771D02*
X92366958Y-129683771D01*
X92724101Y-129683771D01*
X92938386Y-129755200D01*
X93081244Y-129898057D01*
X93152672Y-130040914D01*
X93224101Y-130326629D01*
X93224101Y-130540914D01*
X93152672Y-130826629D01*
X93081244Y-130969486D01*
X92938386Y-131112343D01*
X92724101Y-131183771D01*
X92366958Y-131183771D01*
X107891144Y-77212000D02*
X108605430Y-77212000D01*
X107748287Y-77640571D02*
X108248287Y-76140571D01*
X108748287Y-77640571D01*
X109248287Y-77640571D02*
X109248287Y-76140571D01*
X109605430Y-76140571D01*
X109819715Y-76212000D01*
X109962573Y-76354857D01*
X110034001Y-76497714D01*
X110105430Y-76783429D01*
X110105430Y-76997714D01*
X110034001Y-77283429D01*
X109962573Y-77426286D01*
X109819715Y-77569143D01*
X109605430Y-77640571D01*
X109248287Y-77640571D01*
X111391144Y-76640571D02*
X111391144Y-77640571D01*
X110748287Y-76640571D02*
X110748287Y-77426286D01*
X110819715Y-77569143D01*
X110962573Y-77640571D01*
X111176858Y-77640571D01*
X111319715Y-77569143D01*
X111391144Y-77497714D01*
X112962573Y-77497714D02*
X112891144Y-77569143D01*
X112676858Y-77640571D01*
X112534001Y-77640571D01*
X112319716Y-77569143D01*
X112176858Y-77426286D01*
X112105430Y-77283429D01*
X112034001Y-76997714D01*
X112034001Y-76783429D01*
X112105430Y-76497714D01*
X112176858Y-76354857D01*
X112319716Y-76212000D01*
X112534001Y-76140571D01*
X112676858Y-76140571D01*
X112891144Y-76212000D01*
X112962573Y-76283429D01*
X113462573Y-76140571D02*
X114462573Y-76140571D01*
X113819716Y-77640571D01*
X115819715Y-77640571D02*
X114962572Y-77640571D01*
X115391144Y-77640571D02*
X115391144Y-76140571D01*
X115248287Y-76354857D01*
X115105429Y-76497714D01*
X114962572Y-76569143D01*
X116391143Y-76283429D02*
X116462572Y-76212000D01*
X116605429Y-76140571D01*
X116962572Y-76140571D01*
X117105429Y-76212000D01*
X117176858Y-76283429D01*
X117248286Y-76426286D01*
X117248286Y-76569143D01*
X117176858Y-76783429D01*
X116319715Y-77640571D01*
X117248286Y-77640571D01*
X118105429Y-76783429D02*
X117962571Y-76712000D01*
X117891143Y-76640571D01*
X117819714Y-76497714D01*
X117819714Y-76426286D01*
X117891143Y-76283429D01*
X117962571Y-76212000D01*
X118105429Y-76140571D01*
X118391143Y-76140571D01*
X118534000Y-76212000D01*
X118605429Y-76283429D01*
X118676857Y-76426286D01*
X118676857Y-76497714D01*
X118605429Y-76640571D01*
X118534000Y-76712000D01*
X118391143Y-76783429D01*
X118105429Y-76783429D01*
X117962571Y-76854857D01*
X117891143Y-76926286D01*
X117819714Y-77069143D01*
X117819714Y-77354857D01*
X117891143Y-77497714D01*
X117962571Y-77569143D01*
X118105429Y-77640571D01*
X118391143Y-77640571D01*
X118534000Y-77569143D01*
X118605429Y-77497714D01*
X118676857Y-77354857D01*
X118676857Y-77069143D01*
X118605429Y-76926286D01*
X118534000Y-76854857D01*
X118391143Y-76783429D01*
X125685029Y-109606471D02*
X125185029Y-108892186D01*
X124827886Y-109606471D02*
X124827886Y-108106471D01*
X125399314Y-108106471D01*
X125542172Y-108177900D01*
X125613600Y-108249329D01*
X125685029Y-108392186D01*
X125685029Y-108606471D01*
X125613600Y-108749329D01*
X125542172Y-108820757D01*
X125399314Y-108892186D01*
X124827886Y-108892186D01*
X126327886Y-108820757D02*
X126827886Y-108820757D01*
X127042172Y-109606471D02*
X126327886Y-109606471D01*
X126327886Y-108106471D01*
X127042172Y-108106471D01*
X127613600Y-109535043D02*
X127827886Y-109606471D01*
X128185029Y-109606471D01*
X128327886Y-109535043D01*
X128399315Y-109463614D01*
X128470743Y-109320757D01*
X128470743Y-109177900D01*
X128399315Y-109035043D01*
X128327886Y-108963614D01*
X128185029Y-108892186D01*
X127899315Y-108820757D01*
X127756457Y-108749329D01*
X127685029Y-108677900D01*
X127613600Y-108535043D01*
X127613600Y-108392186D01*
X127685029Y-108249329D01*
X127756457Y-108177900D01*
X127899315Y-108106471D01*
X128256457Y-108106471D01*
X128470743Y-108177900D01*
X129113600Y-108820757D02*
X129613600Y-108820757D01*
X129827886Y-109606471D02*
X129113600Y-109606471D01*
X129113600Y-108106471D01*
X129827886Y-108106471D01*
X130256457Y-108106471D02*
X131113600Y-108106471D01*
X130685029Y-109606471D02*
X130685029Y-108106471D01*
X141998843Y-119455500D02*
X141855986Y-119384071D01*
X141641700Y-119384071D01*
X141427415Y-119455500D01*
X141284557Y-119598357D01*
X141213129Y-119741214D01*
X141141700Y-120026929D01*
X141141700Y-120241214D01*
X141213129Y-120526929D01*
X141284557Y-120669786D01*
X141427415Y-120812643D01*
X141641700Y-120884071D01*
X141784557Y-120884071D01*
X141998843Y-120812643D01*
X142070272Y-120741214D01*
X142070272Y-120241214D01*
X141784557Y-120241214D01*
X142713129Y-120884071D02*
X142713129Y-119384071D01*
X143570272Y-120884071D01*
X143570272Y-119384071D01*
X144284558Y-120884071D02*
X144284558Y-119384071D01*
X144641701Y-119384071D01*
X144855986Y-119455500D01*
X144998844Y-119598357D01*
X145070272Y-119741214D01*
X145141701Y-120026929D01*
X145141701Y-120241214D01*
X145070272Y-120526929D01*
X144998844Y-120669786D01*
X144855986Y-120812643D01*
X144641701Y-120884071D01*
X144284558Y-120884071D01*
X140848829Y-118331371D02*
X140848829Y-116831371D01*
X141420257Y-116831371D01*
X141563115Y-116902800D01*
X141634543Y-116974229D01*
X141705972Y-117117086D01*
X141705972Y-117331371D01*
X141634543Y-117474229D01*
X141563115Y-117545657D01*
X141420257Y-117617086D01*
X140848829Y-117617086D01*
X142205972Y-116831371D02*
X143134543Y-116831371D01*
X142634543Y-117402800D01*
X142848829Y-117402800D01*
X142991686Y-117474229D01*
X143063115Y-117545657D01*
X143134543Y-117688514D01*
X143134543Y-118045657D01*
X143063115Y-118188514D01*
X142991686Y-118259943D01*
X142848829Y-118331371D01*
X142420257Y-118331371D01*
X142277400Y-118259943D01*
X142205972Y-118188514D01*
X143777400Y-118188514D02*
X143848828Y-118259943D01*
X143777400Y-118331371D01*
X143705971Y-118259943D01*
X143777400Y-118188514D01*
X143777400Y-118331371D01*
X145205972Y-116831371D02*
X144491686Y-116831371D01*
X144420257Y-117545657D01*
X144491686Y-117474229D01*
X144634543Y-117402800D01*
X144991686Y-117402800D01*
X145134543Y-117474229D01*
X145205972Y-117545657D01*
X145277400Y-117688514D01*
X145277400Y-118045657D01*
X145205972Y-118188514D01*
X145134543Y-118259943D01*
X144991686Y-118331371D01*
X144634543Y-118331371D01*
X144491686Y-118259943D01*
X144420257Y-118188514D01*
X140823429Y-115816771D02*
X140823429Y-114316771D01*
X141394857Y-114316771D01*
X141537715Y-114388200D01*
X141609143Y-114459629D01*
X141680572Y-114602486D01*
X141680572Y-114816771D01*
X141609143Y-114959629D01*
X141537715Y-115031057D01*
X141394857Y-115102486D01*
X140823429Y-115102486D01*
X142180572Y-114316771D02*
X143109143Y-114316771D01*
X142609143Y-114888200D01*
X142823429Y-114888200D01*
X142966286Y-114959629D01*
X143037715Y-115031057D01*
X143109143Y-115173914D01*
X143109143Y-115531057D01*
X143037715Y-115673914D01*
X142966286Y-115745343D01*
X142823429Y-115816771D01*
X142394857Y-115816771D01*
X142252000Y-115745343D01*
X142180572Y-115673914D01*
X143752000Y-115673914D02*
X143823428Y-115745343D01*
X143752000Y-115816771D01*
X143680571Y-115745343D01*
X143752000Y-115673914D01*
X143752000Y-115816771D01*
X145109143Y-114816771D02*
X145109143Y-115816771D01*
X144752000Y-114245343D02*
X144394857Y-115316771D01*
X145323429Y-115316771D01*
X140899629Y-113302171D02*
X140899629Y-111802171D01*
X141471057Y-111802171D01*
X141613915Y-111873600D01*
X141685343Y-111945029D01*
X141756772Y-112087886D01*
X141756772Y-112302171D01*
X141685343Y-112445029D01*
X141613915Y-112516457D01*
X141471057Y-112587886D01*
X140899629Y-112587886D01*
X142256772Y-111802171D02*
X143185343Y-111802171D01*
X142685343Y-112373600D01*
X142899629Y-112373600D01*
X143042486Y-112445029D01*
X143113915Y-112516457D01*
X143185343Y-112659314D01*
X143185343Y-113016457D01*
X143113915Y-113159314D01*
X143042486Y-113230743D01*
X142899629Y-113302171D01*
X142471057Y-113302171D01*
X142328200Y-113230743D01*
X142256772Y-113159314D01*
X143828200Y-113159314D02*
X143899628Y-113230743D01*
X143828200Y-113302171D01*
X143756771Y-113230743D01*
X143828200Y-113159314D01*
X143828200Y-113302171D01*
X144399629Y-111802171D02*
X145328200Y-111802171D01*
X144828200Y-112373600D01*
X145042486Y-112373600D01*
X145185343Y-112445029D01*
X145256772Y-112516457D01*
X145328200Y-112659314D01*
X145328200Y-113016457D01*
X145256772Y-113159314D01*
X145185343Y-113230743D01*
X145042486Y-113302171D01*
X144613914Y-113302171D01*
X144471057Y-113230743D01*
X144399629Y-113159314D01*
X140848829Y-110685971D02*
X140848829Y-109185971D01*
X141420257Y-109185971D01*
X141563115Y-109257400D01*
X141634543Y-109328829D01*
X141705972Y-109471686D01*
X141705972Y-109685971D01*
X141634543Y-109828829D01*
X141563115Y-109900257D01*
X141420257Y-109971686D01*
X140848829Y-109971686D01*
X142205972Y-109185971D02*
X143134543Y-109185971D01*
X142634543Y-109757400D01*
X142848829Y-109757400D01*
X142991686Y-109828829D01*
X143063115Y-109900257D01*
X143134543Y-110043114D01*
X143134543Y-110400257D01*
X143063115Y-110543114D01*
X142991686Y-110614543D01*
X142848829Y-110685971D01*
X142420257Y-110685971D01*
X142277400Y-110614543D01*
X142205972Y-110543114D01*
X143777400Y-110543114D02*
X143848828Y-110614543D01*
X143777400Y-110685971D01*
X143705971Y-110614543D01*
X143777400Y-110543114D01*
X143777400Y-110685971D01*
X144420257Y-109328829D02*
X144491686Y-109257400D01*
X144634543Y-109185971D01*
X144991686Y-109185971D01*
X145134543Y-109257400D01*
X145205972Y-109328829D01*
X145277400Y-109471686D01*
X145277400Y-109614543D01*
X145205972Y-109828829D01*
X144348829Y-110685971D01*
X145277400Y-110685971D01*
X140810729Y-108133271D02*
X140810729Y-106633271D01*
X141382157Y-106633271D01*
X141525015Y-106704700D01*
X141596443Y-106776129D01*
X141667872Y-106918986D01*
X141667872Y-107133271D01*
X141596443Y-107276129D01*
X141525015Y-107347557D01*
X141382157Y-107418986D01*
X140810729Y-107418986D01*
X142167872Y-106633271D02*
X143096443Y-106633271D01*
X142596443Y-107204700D01*
X142810729Y-107204700D01*
X142953586Y-107276129D01*
X143025015Y-107347557D01*
X143096443Y-107490414D01*
X143096443Y-107847557D01*
X143025015Y-107990414D01*
X142953586Y-108061843D01*
X142810729Y-108133271D01*
X142382157Y-108133271D01*
X142239300Y-108061843D01*
X142167872Y-107990414D01*
X143739300Y-107990414D02*
X143810728Y-108061843D01*
X143739300Y-108133271D01*
X143667871Y-108061843D01*
X143739300Y-107990414D01*
X143739300Y-108133271D01*
X145239300Y-108133271D02*
X144382157Y-108133271D01*
X144810729Y-108133271D02*
X144810729Y-106633271D01*
X144667872Y-106847557D01*
X144525014Y-106990414D01*
X144382157Y-107061843D01*
X140734529Y-105644071D02*
X140734529Y-104144071D01*
X141305957Y-104144071D01*
X141448815Y-104215500D01*
X141520243Y-104286929D01*
X141591672Y-104429786D01*
X141591672Y-104644071D01*
X141520243Y-104786929D01*
X141448815Y-104858357D01*
X141305957Y-104929786D01*
X140734529Y-104929786D01*
X142091672Y-104144071D02*
X143020243Y-104144071D01*
X142520243Y-104715500D01*
X142734529Y-104715500D01*
X142877386Y-104786929D01*
X142948815Y-104858357D01*
X143020243Y-105001214D01*
X143020243Y-105358357D01*
X142948815Y-105501214D01*
X142877386Y-105572643D01*
X142734529Y-105644071D01*
X142305957Y-105644071D01*
X142163100Y-105572643D01*
X142091672Y-105501214D01*
X143663100Y-105501214D02*
X143734528Y-105572643D01*
X143663100Y-105644071D01*
X143591671Y-105572643D01*
X143663100Y-105501214D01*
X143663100Y-105644071D01*
X144663100Y-104144071D02*
X144805957Y-104144071D01*
X144948814Y-104215500D01*
X145020243Y-104286929D01*
X145091672Y-104429786D01*
X145163100Y-104715500D01*
X145163100Y-105072643D01*
X145091672Y-105358357D01*
X145020243Y-105501214D01*
X144948814Y-105572643D01*
X144805957Y-105644071D01*
X144663100Y-105644071D01*
X144520243Y-105572643D01*
X144448814Y-105501214D01*
X144377386Y-105358357D01*
X144305957Y-105072643D01*
X144305957Y-104715500D01*
X144377386Y-104429786D01*
X144448814Y-104286929D01*
X144520243Y-104215500D01*
X144663100Y-104144071D01*
X141513158Y-101743771D02*
X142441729Y-101743771D01*
X141941729Y-102315200D01*
X142156015Y-102315200D01*
X142298872Y-102386629D01*
X142370301Y-102458057D01*
X142441729Y-102600914D01*
X142441729Y-102958057D01*
X142370301Y-103100914D01*
X142298872Y-103172343D01*
X142156015Y-103243771D01*
X141727443Y-103243771D01*
X141584586Y-103172343D01*
X141513158Y-103100914D01*
X142870300Y-101743771D02*
X143370300Y-103243771D01*
X143870300Y-101743771D01*
X144227443Y-101743771D02*
X145156014Y-101743771D01*
X144656014Y-102315200D01*
X144870300Y-102315200D01*
X145013157Y-102386629D01*
X145084586Y-102458057D01*
X145156014Y-102600914D01*
X145156014Y-102958057D01*
X145084586Y-103100914D01*
X145013157Y-103172343D01*
X144870300Y-103243771D01*
X144441728Y-103243771D01*
X144298871Y-103172343D01*
X144227443Y-103100914D01*
X142075043Y-95287400D02*
X141932186Y-95215971D01*
X141717900Y-95215971D01*
X141503615Y-95287400D01*
X141360757Y-95430257D01*
X141289329Y-95573114D01*
X141217900Y-95858829D01*
X141217900Y-96073114D01*
X141289329Y-96358829D01*
X141360757Y-96501686D01*
X141503615Y-96644543D01*
X141717900Y-96715971D01*
X141860757Y-96715971D01*
X142075043Y-96644543D01*
X142146472Y-96573114D01*
X142146472Y-96073114D01*
X141860757Y-96073114D01*
X142789329Y-96715971D02*
X142789329Y-95215971D01*
X143646472Y-96715971D01*
X143646472Y-95215971D01*
X144360758Y-96715971D02*
X144360758Y-95215971D01*
X144717901Y-95215971D01*
X144932186Y-95287400D01*
X145075044Y-95430257D01*
X145146472Y-95573114D01*
X145217901Y-95858829D01*
X145217901Y-96073114D01*
X145146472Y-96358829D01*
X145075044Y-96501686D01*
X144932186Y-96644543D01*
X144717901Y-96715971D01*
X144360758Y-96715971D01*
X141001229Y-94252171D02*
X141001229Y-92752171D01*
X141572657Y-92752171D01*
X141715515Y-92823600D01*
X141786943Y-92895029D01*
X141858372Y-93037886D01*
X141858372Y-93252171D01*
X141786943Y-93395029D01*
X141715515Y-93466457D01*
X141572657Y-93537886D01*
X141001229Y-93537886D01*
X143144086Y-93252171D02*
X143144086Y-94252171D01*
X142786943Y-92680743D02*
X142429800Y-93752171D01*
X143358372Y-93752171D01*
X143929800Y-94109314D02*
X144001228Y-94180743D01*
X143929800Y-94252171D01*
X143858371Y-94180743D01*
X143929800Y-94109314D01*
X143929800Y-94252171D01*
X144501229Y-92752171D02*
X145501229Y-92752171D01*
X144858372Y-94252171D01*
X140963129Y-91648671D02*
X140963129Y-90148671D01*
X141534557Y-90148671D01*
X141677415Y-90220100D01*
X141748843Y-90291529D01*
X141820272Y-90434386D01*
X141820272Y-90648671D01*
X141748843Y-90791529D01*
X141677415Y-90862957D01*
X141534557Y-90934386D01*
X140963129Y-90934386D01*
X143105986Y-90648671D02*
X143105986Y-91648671D01*
X142748843Y-90077243D02*
X142391700Y-91148671D01*
X143320272Y-91148671D01*
X143891700Y-91505814D02*
X143963128Y-91577243D01*
X143891700Y-91648671D01*
X143820271Y-91577243D01*
X143891700Y-91505814D01*
X143891700Y-91648671D01*
X145248843Y-90148671D02*
X144963129Y-90148671D01*
X144820272Y-90220100D01*
X144748843Y-90291529D01*
X144605986Y-90505814D01*
X144534557Y-90791529D01*
X144534557Y-91362957D01*
X144605986Y-91505814D01*
X144677414Y-91577243D01*
X144820272Y-91648671D01*
X145105986Y-91648671D01*
X145248843Y-91577243D01*
X145320272Y-91505814D01*
X145391700Y-91362957D01*
X145391700Y-91005814D01*
X145320272Y-90862957D01*
X145248843Y-90791529D01*
X145105986Y-90720100D01*
X144820272Y-90720100D01*
X144677414Y-90791529D01*
X144605986Y-90862957D01*
X144534557Y-91005814D01*
X140912329Y-89095971D02*
X140912329Y-87595971D01*
X141483757Y-87595971D01*
X141626615Y-87667400D01*
X141698043Y-87738829D01*
X141769472Y-87881686D01*
X141769472Y-88095971D01*
X141698043Y-88238829D01*
X141626615Y-88310257D01*
X141483757Y-88381686D01*
X140912329Y-88381686D01*
X143055186Y-88095971D02*
X143055186Y-89095971D01*
X142698043Y-87524543D02*
X142340900Y-88595971D01*
X143269472Y-88595971D01*
X143840900Y-88953114D02*
X143912328Y-89024543D01*
X143840900Y-89095971D01*
X143769471Y-89024543D01*
X143840900Y-88953114D01*
X143840900Y-89095971D01*
X145269472Y-87595971D02*
X144555186Y-87595971D01*
X144483757Y-88310257D01*
X144555186Y-88238829D01*
X144698043Y-88167400D01*
X145055186Y-88167400D01*
X145198043Y-88238829D01*
X145269472Y-88310257D01*
X145340900Y-88453114D01*
X145340900Y-88810257D01*
X145269472Y-88953114D01*
X145198043Y-89024543D01*
X145055186Y-89095971D01*
X144698043Y-89095971D01*
X144555186Y-89024543D01*
X144483757Y-88953114D01*
X140912329Y-86594071D02*
X140912329Y-85094071D01*
X141483757Y-85094071D01*
X141626615Y-85165500D01*
X141698043Y-85236929D01*
X141769472Y-85379786D01*
X141769472Y-85594071D01*
X141698043Y-85736929D01*
X141626615Y-85808357D01*
X141483757Y-85879786D01*
X140912329Y-85879786D01*
X143055186Y-85594071D02*
X143055186Y-86594071D01*
X142698043Y-85022643D02*
X142340900Y-86094071D01*
X143269472Y-86094071D01*
X143840900Y-86451214D02*
X143912328Y-86522643D01*
X143840900Y-86594071D01*
X143769471Y-86522643D01*
X143840900Y-86451214D01*
X143840900Y-86594071D01*
X145198043Y-85594071D02*
X145198043Y-86594071D01*
X144840900Y-85022643D02*
X144483757Y-86094071D01*
X145412329Y-86094071D01*
X140912329Y-83990571D02*
X140912329Y-82490571D01*
X141483757Y-82490571D01*
X141626615Y-82562000D01*
X141698043Y-82633429D01*
X141769472Y-82776286D01*
X141769472Y-82990571D01*
X141698043Y-83133429D01*
X141626615Y-83204857D01*
X141483757Y-83276286D01*
X140912329Y-83276286D01*
X143055186Y-82990571D02*
X143055186Y-83990571D01*
X142698043Y-82419143D02*
X142340900Y-83490571D01*
X143269472Y-83490571D01*
X143840900Y-83847714D02*
X143912328Y-83919143D01*
X143840900Y-83990571D01*
X143769471Y-83919143D01*
X143840900Y-83847714D01*
X143840900Y-83990571D01*
X144412329Y-82490571D02*
X145340900Y-82490571D01*
X144840900Y-83062000D01*
X145055186Y-83062000D01*
X145198043Y-83133429D01*
X145269472Y-83204857D01*
X145340900Y-83347714D01*
X145340900Y-83704857D01*
X145269472Y-83847714D01*
X145198043Y-83919143D01*
X145055186Y-83990571D01*
X144626614Y-83990571D01*
X144483757Y-83919143D01*
X144412329Y-83847714D01*
X140925029Y-81374371D02*
X140925029Y-79874371D01*
X141496457Y-79874371D01*
X141639315Y-79945800D01*
X141710743Y-80017229D01*
X141782172Y-80160086D01*
X141782172Y-80374371D01*
X141710743Y-80517229D01*
X141639315Y-80588657D01*
X141496457Y-80660086D01*
X140925029Y-80660086D01*
X143067886Y-80374371D02*
X143067886Y-81374371D01*
X142710743Y-79802943D02*
X142353600Y-80874371D01*
X143282172Y-80874371D01*
X143853600Y-81231514D02*
X143925028Y-81302943D01*
X143853600Y-81374371D01*
X143782171Y-81302943D01*
X143853600Y-81231514D01*
X143853600Y-81374371D01*
X144496457Y-80017229D02*
X144567886Y-79945800D01*
X144710743Y-79874371D01*
X145067886Y-79874371D01*
X145210743Y-79945800D01*
X145282172Y-80017229D01*
X145353600Y-80160086D01*
X145353600Y-80302943D01*
X145282172Y-80517229D01*
X144425029Y-81374371D01*
X145353600Y-81374371D01*
X140912329Y-78783571D02*
X140912329Y-77283571D01*
X141483757Y-77283571D01*
X141626615Y-77355000D01*
X141698043Y-77426429D01*
X141769472Y-77569286D01*
X141769472Y-77783571D01*
X141698043Y-77926429D01*
X141626615Y-77997857D01*
X141483757Y-78069286D01*
X140912329Y-78069286D01*
X143055186Y-77783571D02*
X143055186Y-78783571D01*
X142698043Y-77212143D02*
X142340900Y-78283571D01*
X143269472Y-78283571D01*
X143840900Y-78640714D02*
X143912328Y-78712143D01*
X143840900Y-78783571D01*
X143769471Y-78712143D01*
X143840900Y-78640714D01*
X143840900Y-78783571D01*
X145340900Y-78783571D02*
X144483757Y-78783571D01*
X144912329Y-78783571D02*
X144912329Y-77283571D01*
X144769472Y-77497857D01*
X144626614Y-77640714D01*
X144483757Y-77712143D01*
X140925029Y-76345171D02*
X140925029Y-74845171D01*
X141496457Y-74845171D01*
X141639315Y-74916600D01*
X141710743Y-74988029D01*
X141782172Y-75130886D01*
X141782172Y-75345171D01*
X141710743Y-75488029D01*
X141639315Y-75559457D01*
X141496457Y-75630886D01*
X140925029Y-75630886D01*
X143067886Y-75345171D02*
X143067886Y-76345171D01*
X142710743Y-74773743D02*
X142353600Y-75845171D01*
X143282172Y-75845171D01*
X143853600Y-76202314D02*
X143925028Y-76273743D01*
X143853600Y-76345171D01*
X143782171Y-76273743D01*
X143853600Y-76202314D01*
X143853600Y-76345171D01*
X144853600Y-74845171D02*
X144996457Y-74845171D01*
X145139314Y-74916600D01*
X145210743Y-74988029D01*
X145282172Y-75130886D01*
X145353600Y-75416600D01*
X145353600Y-75773743D01*
X145282172Y-76059457D01*
X145210743Y-76202314D01*
X145139314Y-76273743D01*
X144996457Y-76345171D01*
X144853600Y-76345171D01*
X144710743Y-76273743D01*
X144639314Y-76202314D01*
X144567886Y-76059457D01*
X144496457Y-75773743D01*
X144496457Y-75416600D01*
X144567886Y-75130886D01*
X144639314Y-74988029D01*
X144710743Y-74916600D01*
X144853600Y-74845171D01*
X141614758Y-72330571D02*
X142543329Y-72330571D01*
X142043329Y-72902000D01*
X142257615Y-72902000D01*
X142400472Y-72973429D01*
X142471901Y-73044857D01*
X142543329Y-73187714D01*
X142543329Y-73544857D01*
X142471901Y-73687714D01*
X142400472Y-73759143D01*
X142257615Y-73830571D01*
X141829043Y-73830571D01*
X141686186Y-73759143D01*
X141614758Y-73687714D01*
X142971900Y-72330571D02*
X143471900Y-73830571D01*
X143971900Y-72330571D01*
X144329043Y-72330571D02*
X145257614Y-72330571D01*
X144757614Y-72902000D01*
X144971900Y-72902000D01*
X145114757Y-72973429D01*
X145186186Y-73044857D01*
X145257614Y-73187714D01*
X145257614Y-73544857D01*
X145186186Y-73687714D01*
X145114757Y-73759143D01*
X144971900Y-73830571D01*
X144543328Y-73830571D01*
X144400471Y-73759143D01*
X144329043Y-73687714D01*
X89350329Y-128618371D02*
X89350329Y-127118371D01*
X89921757Y-127118371D01*
X90064615Y-127189800D01*
X90136043Y-127261229D01*
X90207472Y-127404086D01*
X90207472Y-127618371D01*
X90136043Y-127761229D01*
X90064615Y-127832657D01*
X89921757Y-127904086D01*
X89350329Y-127904086D01*
X90778900Y-127261229D02*
X90850329Y-127189800D01*
X90993186Y-127118371D01*
X91350329Y-127118371D01*
X91493186Y-127189800D01*
X91564615Y-127261229D01*
X91636043Y-127404086D01*
X91636043Y-127546943D01*
X91564615Y-127761229D01*
X90707472Y-128618371D01*
X91636043Y-128618371D01*
X92278900Y-128475514D02*
X92350328Y-128546943D01*
X92278900Y-128618371D01*
X92207471Y-128546943D01*
X92278900Y-128475514D01*
X92278900Y-128618371D01*
X93278900Y-127118371D02*
X93421757Y-127118371D01*
X93564614Y-127189800D01*
X93636043Y-127261229D01*
X93707472Y-127404086D01*
X93778900Y-127689800D01*
X93778900Y-128046943D01*
X93707472Y-128332657D01*
X93636043Y-128475514D01*
X93564614Y-128546943D01*
X93421757Y-128618371D01*
X93278900Y-128618371D01*
X93136043Y-128546943D01*
X93064614Y-128475514D01*
X92993186Y-128332657D01*
X92921757Y-128046943D01*
X92921757Y-127689800D01*
X92993186Y-127404086D01*
X93064614Y-127261229D01*
X93136043Y-127189800D01*
X93278900Y-127118371D01*
X89350329Y-126014871D02*
X89350329Y-124514871D01*
X89921757Y-124514871D01*
X90064615Y-124586300D01*
X90136043Y-124657729D01*
X90207472Y-124800586D01*
X90207472Y-125014871D01*
X90136043Y-125157729D01*
X90064615Y-125229157D01*
X89921757Y-125300586D01*
X89350329Y-125300586D01*
X91136043Y-124514871D02*
X91278900Y-124514871D01*
X91421757Y-124586300D01*
X91493186Y-124657729D01*
X91564615Y-124800586D01*
X91636043Y-125086300D01*
X91636043Y-125443443D01*
X91564615Y-125729157D01*
X91493186Y-125872014D01*
X91421757Y-125943443D01*
X91278900Y-126014871D01*
X91136043Y-126014871D01*
X90993186Y-125943443D01*
X90921757Y-125872014D01*
X90850329Y-125729157D01*
X90778900Y-125443443D01*
X90778900Y-125086300D01*
X90850329Y-124800586D01*
X90921757Y-124657729D01*
X90993186Y-124586300D01*
X91136043Y-124514871D01*
X92278900Y-125872014D02*
X92350328Y-125943443D01*
X92278900Y-126014871D01*
X92207471Y-125943443D01*
X92278900Y-125872014D01*
X92278900Y-126014871D01*
X92850329Y-124514871D02*
X93850329Y-124514871D01*
X93207472Y-126014871D01*
X89236029Y-123385971D02*
X89236029Y-121885971D01*
X89807457Y-121885971D01*
X89950315Y-121957400D01*
X90021743Y-122028829D01*
X90093172Y-122171686D01*
X90093172Y-122385971D01*
X90021743Y-122528829D01*
X89950315Y-122600257D01*
X89807457Y-122671686D01*
X89236029Y-122671686D01*
X91021743Y-121885971D02*
X91164600Y-121885971D01*
X91307457Y-121957400D01*
X91378886Y-122028829D01*
X91450315Y-122171686D01*
X91521743Y-122457400D01*
X91521743Y-122814543D01*
X91450315Y-123100257D01*
X91378886Y-123243114D01*
X91307457Y-123314543D01*
X91164600Y-123385971D01*
X91021743Y-123385971D01*
X90878886Y-123314543D01*
X90807457Y-123243114D01*
X90736029Y-123100257D01*
X90664600Y-122814543D01*
X90664600Y-122457400D01*
X90736029Y-122171686D01*
X90807457Y-122028829D01*
X90878886Y-121957400D01*
X91021743Y-121885971D01*
X92164600Y-123243114D02*
X92236028Y-123314543D01*
X92164600Y-123385971D01*
X92093171Y-123314543D01*
X92164600Y-123243114D01*
X92164600Y-123385971D01*
X93521743Y-121885971D02*
X93236029Y-121885971D01*
X93093172Y-121957400D01*
X93021743Y-122028829D01*
X92878886Y-122243114D01*
X92807457Y-122528829D01*
X92807457Y-123100257D01*
X92878886Y-123243114D01*
X92950314Y-123314543D01*
X93093172Y-123385971D01*
X93378886Y-123385971D01*
X93521743Y-123314543D01*
X93593172Y-123243114D01*
X93664600Y-123100257D01*
X93664600Y-122743114D01*
X93593172Y-122600257D01*
X93521743Y-122528829D01*
X93378886Y-122457400D01*
X93093172Y-122457400D01*
X92950314Y-122528829D01*
X92878886Y-122600257D01*
X92807457Y-122743114D01*
X89337629Y-120947571D02*
X89337629Y-119447571D01*
X89909057Y-119447571D01*
X90051915Y-119519000D01*
X90123343Y-119590429D01*
X90194772Y-119733286D01*
X90194772Y-119947571D01*
X90123343Y-120090429D01*
X90051915Y-120161857D01*
X89909057Y-120233286D01*
X89337629Y-120233286D01*
X91123343Y-119447571D02*
X91266200Y-119447571D01*
X91409057Y-119519000D01*
X91480486Y-119590429D01*
X91551915Y-119733286D01*
X91623343Y-120019000D01*
X91623343Y-120376143D01*
X91551915Y-120661857D01*
X91480486Y-120804714D01*
X91409057Y-120876143D01*
X91266200Y-120947571D01*
X91123343Y-120947571D01*
X90980486Y-120876143D01*
X90909057Y-120804714D01*
X90837629Y-120661857D01*
X90766200Y-120376143D01*
X90766200Y-120019000D01*
X90837629Y-119733286D01*
X90909057Y-119590429D01*
X90980486Y-119519000D01*
X91123343Y-119447571D01*
X92266200Y-120804714D02*
X92337628Y-120876143D01*
X92266200Y-120947571D01*
X92194771Y-120876143D01*
X92266200Y-120804714D01*
X92266200Y-120947571D01*
X93694772Y-119447571D02*
X92980486Y-119447571D01*
X92909057Y-120161857D01*
X92980486Y-120090429D01*
X93123343Y-120019000D01*
X93480486Y-120019000D01*
X93623343Y-120090429D01*
X93694772Y-120161857D01*
X93766200Y-120304714D01*
X93766200Y-120661857D01*
X93694772Y-120804714D01*
X93623343Y-120876143D01*
X93480486Y-120947571D01*
X93123343Y-120947571D01*
X92980486Y-120876143D01*
X92909057Y-120804714D01*
X89286829Y-118394871D02*
X89286829Y-116894871D01*
X89858257Y-116894871D01*
X90001115Y-116966300D01*
X90072543Y-117037729D01*
X90143972Y-117180586D01*
X90143972Y-117394871D01*
X90072543Y-117537729D01*
X90001115Y-117609157D01*
X89858257Y-117680586D01*
X89286829Y-117680586D01*
X91072543Y-116894871D02*
X91215400Y-116894871D01*
X91358257Y-116966300D01*
X91429686Y-117037729D01*
X91501115Y-117180586D01*
X91572543Y-117466300D01*
X91572543Y-117823443D01*
X91501115Y-118109157D01*
X91429686Y-118252014D01*
X91358257Y-118323443D01*
X91215400Y-118394871D01*
X91072543Y-118394871D01*
X90929686Y-118323443D01*
X90858257Y-118252014D01*
X90786829Y-118109157D01*
X90715400Y-117823443D01*
X90715400Y-117466300D01*
X90786829Y-117180586D01*
X90858257Y-117037729D01*
X90929686Y-116966300D01*
X91072543Y-116894871D01*
X92215400Y-118252014D02*
X92286828Y-118323443D01*
X92215400Y-118394871D01*
X92143971Y-118323443D01*
X92215400Y-118252014D01*
X92215400Y-118394871D01*
X93572543Y-117394871D02*
X93572543Y-118394871D01*
X93215400Y-116823443D02*
X92858257Y-117894871D01*
X93786829Y-117894871D01*
X89286829Y-115854871D02*
X89286829Y-114354871D01*
X89858257Y-114354871D01*
X90001115Y-114426300D01*
X90072543Y-114497729D01*
X90143972Y-114640586D01*
X90143972Y-114854871D01*
X90072543Y-114997729D01*
X90001115Y-115069157D01*
X89858257Y-115140586D01*
X89286829Y-115140586D01*
X91072543Y-114354871D02*
X91215400Y-114354871D01*
X91358257Y-114426300D01*
X91429686Y-114497729D01*
X91501115Y-114640586D01*
X91572543Y-114926300D01*
X91572543Y-115283443D01*
X91501115Y-115569157D01*
X91429686Y-115712014D01*
X91358257Y-115783443D01*
X91215400Y-115854871D01*
X91072543Y-115854871D01*
X90929686Y-115783443D01*
X90858257Y-115712014D01*
X90786829Y-115569157D01*
X90715400Y-115283443D01*
X90715400Y-114926300D01*
X90786829Y-114640586D01*
X90858257Y-114497729D01*
X90929686Y-114426300D01*
X91072543Y-114354871D01*
X92215400Y-115712014D02*
X92286828Y-115783443D01*
X92215400Y-115854871D01*
X92143971Y-115783443D01*
X92215400Y-115712014D01*
X92215400Y-115854871D01*
X92786829Y-114354871D02*
X93715400Y-114354871D01*
X93215400Y-114926300D01*
X93429686Y-114926300D01*
X93572543Y-114997729D01*
X93643972Y-115069157D01*
X93715400Y-115212014D01*
X93715400Y-115569157D01*
X93643972Y-115712014D01*
X93572543Y-115783443D01*
X93429686Y-115854871D01*
X93001114Y-115854871D01*
X92858257Y-115783443D01*
X92786829Y-115712014D01*
X89324929Y-113352971D02*
X89324929Y-111852971D01*
X89896357Y-111852971D01*
X90039215Y-111924400D01*
X90110643Y-111995829D01*
X90182072Y-112138686D01*
X90182072Y-112352971D01*
X90110643Y-112495829D01*
X90039215Y-112567257D01*
X89896357Y-112638686D01*
X89324929Y-112638686D01*
X91110643Y-111852971D02*
X91253500Y-111852971D01*
X91396357Y-111924400D01*
X91467786Y-111995829D01*
X91539215Y-112138686D01*
X91610643Y-112424400D01*
X91610643Y-112781543D01*
X91539215Y-113067257D01*
X91467786Y-113210114D01*
X91396357Y-113281543D01*
X91253500Y-113352971D01*
X91110643Y-113352971D01*
X90967786Y-113281543D01*
X90896357Y-113210114D01*
X90824929Y-113067257D01*
X90753500Y-112781543D01*
X90753500Y-112424400D01*
X90824929Y-112138686D01*
X90896357Y-111995829D01*
X90967786Y-111924400D01*
X91110643Y-111852971D01*
X92253500Y-113210114D02*
X92324928Y-113281543D01*
X92253500Y-113352971D01*
X92182071Y-113281543D01*
X92253500Y-113210114D01*
X92253500Y-113352971D01*
X93253500Y-111852971D02*
X93396357Y-111852971D01*
X93539214Y-111924400D01*
X93610643Y-111995829D01*
X93682072Y-112138686D01*
X93753500Y-112424400D01*
X93753500Y-112781543D01*
X93682072Y-113067257D01*
X93610643Y-113210114D01*
X93539214Y-113281543D01*
X93396357Y-113352971D01*
X93253500Y-113352971D01*
X93110643Y-113281543D01*
X93039214Y-113210114D01*
X92967786Y-113067257D01*
X92896357Y-112781543D01*
X92896357Y-112424400D01*
X92967786Y-112138686D01*
X93039214Y-111995829D01*
X93110643Y-111924400D01*
X93253500Y-111852971D01*
X89379658Y-109389171D02*
X90308229Y-109389171D01*
X89808229Y-109960600D01*
X90022515Y-109960600D01*
X90165372Y-110032029D01*
X90236801Y-110103457D01*
X90308229Y-110246314D01*
X90308229Y-110603457D01*
X90236801Y-110746314D01*
X90165372Y-110817743D01*
X90022515Y-110889171D01*
X89593943Y-110889171D01*
X89451086Y-110817743D01*
X89379658Y-110746314D01*
X90736800Y-109389171D02*
X91236800Y-110889171D01*
X91736800Y-109389171D01*
X92093943Y-109389171D02*
X93022514Y-109389171D01*
X92522514Y-109960600D01*
X92736800Y-109960600D01*
X92879657Y-110032029D01*
X92951086Y-110103457D01*
X93022514Y-110246314D01*
X93022514Y-110603457D01*
X92951086Y-110746314D01*
X92879657Y-110817743D01*
X92736800Y-110889171D01*
X92308228Y-110889171D01*
X92165371Y-110817743D01*
X92093943Y-110746314D01*
X90220943Y-103440800D02*
X90078086Y-103369371D01*
X89863800Y-103369371D01*
X89649515Y-103440800D01*
X89506657Y-103583657D01*
X89435229Y-103726514D01*
X89363800Y-104012229D01*
X89363800Y-104226514D01*
X89435229Y-104512229D01*
X89506657Y-104655086D01*
X89649515Y-104797943D01*
X89863800Y-104869371D01*
X90006657Y-104869371D01*
X90220943Y-104797943D01*
X90292372Y-104726514D01*
X90292372Y-104226514D01*
X90006657Y-104226514D01*
X90935229Y-104869371D02*
X90935229Y-103369371D01*
X91792372Y-104869371D01*
X91792372Y-103369371D01*
X92506658Y-104869371D02*
X92506658Y-103369371D01*
X92863801Y-103369371D01*
X93078086Y-103440800D01*
X93220944Y-103583657D01*
X93292372Y-103726514D01*
X93363801Y-104012229D01*
X93363801Y-104226514D01*
X93292372Y-104512229D01*
X93220944Y-104655086D01*
X93078086Y-104797943D01*
X92863801Y-104869371D01*
X92506658Y-104869371D01*
X89335386Y-101761100D02*
X90049672Y-101761100D01*
X89192529Y-102189671D02*
X89692529Y-100689671D01*
X90192529Y-102189671D01*
X90692529Y-102189671D02*
X90692529Y-100689671D01*
X91049672Y-100689671D01*
X91263957Y-100761100D01*
X91406815Y-100903957D01*
X91478243Y-101046814D01*
X91549672Y-101332529D01*
X91549672Y-101546814D01*
X91478243Y-101832529D01*
X91406815Y-101975386D01*
X91263957Y-102118243D01*
X91049672Y-102189671D01*
X90692529Y-102189671D01*
X93049672Y-102046814D02*
X92978243Y-102118243D01*
X92763957Y-102189671D01*
X92621100Y-102189671D01*
X92406815Y-102118243D01*
X92263957Y-101975386D01*
X92192529Y-101832529D01*
X92121100Y-101546814D01*
X92121100Y-101332529D01*
X92192529Y-101046814D01*
X92263957Y-100903957D01*
X92406815Y-100761100D01*
X92621100Y-100689671D01*
X92763957Y-100689671D01*
X92978243Y-100761100D01*
X93049672Y-100832529D01*
X94478243Y-102189671D02*
X93621100Y-102189671D01*
X94049672Y-102189671D02*
X94049672Y-100689671D01*
X93906815Y-100903957D01*
X93763957Y-101046814D01*
X93621100Y-101118243D01*
X94978243Y-100689671D02*
X95906814Y-100689671D01*
X95406814Y-101261100D01*
X95621100Y-101261100D01*
X95763957Y-101332529D01*
X95835386Y-101403957D01*
X95906814Y-101546814D01*
X95906814Y-101903957D01*
X95835386Y-102046814D01*
X95763957Y-102118243D01*
X95621100Y-102189671D01*
X95192528Y-102189671D01*
X95049671Y-102118243D01*
X94978243Y-102046814D01*
X89411586Y-99271900D02*
X90125872Y-99271900D01*
X89268729Y-99700471D02*
X89768729Y-98200471D01*
X90268729Y-99700471D01*
X90768729Y-99700471D02*
X90768729Y-98200471D01*
X91125872Y-98200471D01*
X91340157Y-98271900D01*
X91483015Y-98414757D01*
X91554443Y-98557614D01*
X91625872Y-98843329D01*
X91625872Y-99057614D01*
X91554443Y-99343329D01*
X91483015Y-99486186D01*
X91340157Y-99629043D01*
X91125872Y-99700471D01*
X90768729Y-99700471D01*
X93125872Y-99557614D02*
X93054443Y-99629043D01*
X92840157Y-99700471D01*
X92697300Y-99700471D01*
X92483015Y-99629043D01*
X92340157Y-99486186D01*
X92268729Y-99343329D01*
X92197300Y-99057614D01*
X92197300Y-98843329D01*
X92268729Y-98557614D01*
X92340157Y-98414757D01*
X92483015Y-98271900D01*
X92697300Y-98200471D01*
X92840157Y-98200471D01*
X93054443Y-98271900D01*
X93125872Y-98343329D01*
X94554443Y-99700471D02*
X93697300Y-99700471D01*
X94125872Y-99700471D02*
X94125872Y-98200471D01*
X93983015Y-98414757D01*
X93840157Y-98557614D01*
X93697300Y-98629043D01*
X95125871Y-98343329D02*
X95197300Y-98271900D01*
X95340157Y-98200471D01*
X95697300Y-98200471D01*
X95840157Y-98271900D01*
X95911586Y-98343329D01*
X95983014Y-98486186D01*
X95983014Y-98629043D01*
X95911586Y-98843329D01*
X95054443Y-99700471D01*
X95983014Y-99700471D01*
X89398886Y-96566800D02*
X90113172Y-96566800D01*
X89256029Y-96995371D02*
X89756029Y-95495371D01*
X90256029Y-96995371D01*
X90756029Y-96995371D02*
X90756029Y-95495371D01*
X91113172Y-95495371D01*
X91327457Y-95566800D01*
X91470315Y-95709657D01*
X91541743Y-95852514D01*
X91613172Y-96138229D01*
X91613172Y-96352514D01*
X91541743Y-96638229D01*
X91470315Y-96781086D01*
X91327457Y-96923943D01*
X91113172Y-96995371D01*
X90756029Y-96995371D01*
X93113172Y-96852514D02*
X93041743Y-96923943D01*
X92827457Y-96995371D01*
X92684600Y-96995371D01*
X92470315Y-96923943D01*
X92327457Y-96781086D01*
X92256029Y-96638229D01*
X92184600Y-96352514D01*
X92184600Y-96138229D01*
X92256029Y-95852514D01*
X92327457Y-95709657D01*
X92470315Y-95566800D01*
X92684600Y-95495371D01*
X92827457Y-95495371D01*
X93041743Y-95566800D01*
X93113172Y-95638229D01*
X94541743Y-96995371D02*
X93684600Y-96995371D01*
X94113172Y-96995371D02*
X94113172Y-95495371D01*
X93970315Y-95709657D01*
X93827457Y-95852514D01*
X93684600Y-95923943D01*
X95470314Y-95495371D02*
X95613171Y-95495371D01*
X95756028Y-95566800D01*
X95827457Y-95638229D01*
X95898886Y-95781086D01*
X95970314Y-96066800D01*
X95970314Y-96423943D01*
X95898886Y-96709657D01*
X95827457Y-96852514D01*
X95756028Y-96923943D01*
X95613171Y-96995371D01*
X95470314Y-96995371D01*
X95327457Y-96923943D01*
X95256028Y-96852514D01*
X95184600Y-96709657D01*
X95113171Y-96423943D01*
X95113171Y-96066800D01*
X95184600Y-95781086D01*
X95256028Y-95638229D01*
X95327457Y-95566800D01*
X95470314Y-95495371D01*
X89440072Y-94014100D02*
X90154358Y-94014100D01*
X89297215Y-94442671D02*
X89797215Y-92942671D01*
X90297215Y-94442671D01*
X90797215Y-94442671D02*
X90797215Y-92942671D01*
X91154358Y-92942671D01*
X91368643Y-93014100D01*
X91511501Y-93156957D01*
X91582929Y-93299814D01*
X91654358Y-93585529D01*
X91654358Y-93799814D01*
X91582929Y-94085529D01*
X91511501Y-94228386D01*
X91368643Y-94371243D01*
X91154358Y-94442671D01*
X90797215Y-94442671D01*
X93154358Y-94299814D02*
X93082929Y-94371243D01*
X92868643Y-94442671D01*
X92725786Y-94442671D01*
X92511501Y-94371243D01*
X92368643Y-94228386D01*
X92297215Y-94085529D01*
X92225786Y-93799814D01*
X92225786Y-93585529D01*
X92297215Y-93299814D01*
X92368643Y-93156957D01*
X92511501Y-93014100D01*
X92725786Y-92942671D01*
X92868643Y-92942671D01*
X93082929Y-93014100D01*
X93154358Y-93085529D01*
X93868643Y-94442671D02*
X94154358Y-94442671D01*
X94297215Y-94371243D01*
X94368643Y-94299814D01*
X94511501Y-94085529D01*
X94582929Y-93799814D01*
X94582929Y-93228386D01*
X94511501Y-93085529D01*
X94440072Y-93014100D01*
X94297215Y-92942671D01*
X94011501Y-92942671D01*
X93868643Y-93014100D01*
X93797215Y-93085529D01*
X93725786Y-93228386D01*
X93725786Y-93585529D01*
X93797215Y-93728386D01*
X93868643Y-93799814D01*
X94011501Y-93871243D01*
X94297215Y-93871243D01*
X94440072Y-93799814D01*
X94511501Y-93728386D01*
X94582929Y-93585529D01*
X89401972Y-91423300D02*
X90116258Y-91423300D01*
X89259115Y-91851871D02*
X89759115Y-90351871D01*
X90259115Y-91851871D01*
X90759115Y-91851871D02*
X90759115Y-90351871D01*
X91116258Y-90351871D01*
X91330543Y-90423300D01*
X91473401Y-90566157D01*
X91544829Y-90709014D01*
X91616258Y-90994729D01*
X91616258Y-91209014D01*
X91544829Y-91494729D01*
X91473401Y-91637586D01*
X91330543Y-91780443D01*
X91116258Y-91851871D01*
X90759115Y-91851871D01*
X93116258Y-91709014D02*
X93044829Y-91780443D01*
X92830543Y-91851871D01*
X92687686Y-91851871D01*
X92473401Y-91780443D01*
X92330543Y-91637586D01*
X92259115Y-91494729D01*
X92187686Y-91209014D01*
X92187686Y-90994729D01*
X92259115Y-90709014D01*
X92330543Y-90566157D01*
X92473401Y-90423300D01*
X92687686Y-90351871D01*
X92830543Y-90351871D01*
X93044829Y-90423300D01*
X93116258Y-90494729D01*
X94473401Y-90351871D02*
X93759115Y-90351871D01*
X93687686Y-91066157D01*
X93759115Y-90994729D01*
X93901972Y-90923300D01*
X94259115Y-90923300D01*
X94401972Y-90994729D01*
X94473401Y-91066157D01*
X94544829Y-91209014D01*
X94544829Y-91566157D01*
X94473401Y-91709014D01*
X94401972Y-91780443D01*
X94259115Y-91851871D01*
X93901972Y-91851871D01*
X93759115Y-91780443D01*
X93687686Y-91709014D01*
X89414672Y-88984900D02*
X90128958Y-88984900D01*
X89271815Y-89413471D02*
X89771815Y-87913471D01*
X90271815Y-89413471D01*
X90771815Y-89413471D02*
X90771815Y-87913471D01*
X91128958Y-87913471D01*
X91343243Y-87984900D01*
X91486101Y-88127757D01*
X91557529Y-88270614D01*
X91628958Y-88556329D01*
X91628958Y-88770614D01*
X91557529Y-89056329D01*
X91486101Y-89199186D01*
X91343243Y-89342043D01*
X91128958Y-89413471D01*
X90771815Y-89413471D01*
X93128958Y-89270614D02*
X93057529Y-89342043D01*
X92843243Y-89413471D01*
X92700386Y-89413471D01*
X92486101Y-89342043D01*
X92343243Y-89199186D01*
X92271815Y-89056329D01*
X92200386Y-88770614D01*
X92200386Y-88556329D01*
X92271815Y-88270614D01*
X92343243Y-88127757D01*
X92486101Y-87984900D01*
X92700386Y-87913471D01*
X92843243Y-87913471D01*
X93057529Y-87984900D01*
X93128958Y-88056329D01*
X94414672Y-88413471D02*
X94414672Y-89413471D01*
X94057529Y-87842043D02*
X93700386Y-88913471D01*
X94628958Y-88913471D01*
X89414672Y-86432200D02*
X90128958Y-86432200D01*
X89271815Y-86860771D02*
X89771815Y-85360771D01*
X90271815Y-86860771D01*
X90771815Y-86860771D02*
X90771815Y-85360771D01*
X91128958Y-85360771D01*
X91343243Y-85432200D01*
X91486101Y-85575057D01*
X91557529Y-85717914D01*
X91628958Y-86003629D01*
X91628958Y-86217914D01*
X91557529Y-86503629D01*
X91486101Y-86646486D01*
X91343243Y-86789343D01*
X91128958Y-86860771D01*
X90771815Y-86860771D01*
X93128958Y-86717914D02*
X93057529Y-86789343D01*
X92843243Y-86860771D01*
X92700386Y-86860771D01*
X92486101Y-86789343D01*
X92343243Y-86646486D01*
X92271815Y-86503629D01*
X92200386Y-86217914D01*
X92200386Y-86003629D01*
X92271815Y-85717914D01*
X92343243Y-85575057D01*
X92486101Y-85432200D01*
X92700386Y-85360771D01*
X92843243Y-85360771D01*
X93057529Y-85432200D01*
X93128958Y-85503629D01*
X93628958Y-85360771D02*
X94557529Y-85360771D01*
X94057529Y-85932200D01*
X94271815Y-85932200D01*
X94414672Y-86003629D01*
X94486101Y-86075057D01*
X94557529Y-86217914D01*
X94557529Y-86575057D01*
X94486101Y-86717914D01*
X94414672Y-86789343D01*
X94271815Y-86860771D01*
X93843243Y-86860771D01*
X93700386Y-86789343D01*
X93628958Y-86717914D01*
X89376572Y-83904900D02*
X90090858Y-83904900D01*
X89233715Y-84333471D02*
X89733715Y-82833471D01*
X90233715Y-84333471D01*
X90733715Y-84333471D02*
X90733715Y-82833471D01*
X91090858Y-82833471D01*
X91305143Y-82904900D01*
X91448001Y-83047757D01*
X91519429Y-83190614D01*
X91590858Y-83476329D01*
X91590858Y-83690614D01*
X91519429Y-83976329D01*
X91448001Y-84119186D01*
X91305143Y-84262043D01*
X91090858Y-84333471D01*
X90733715Y-84333471D01*
X93090858Y-84190614D02*
X93019429Y-84262043D01*
X92805143Y-84333471D01*
X92662286Y-84333471D01*
X92448001Y-84262043D01*
X92305143Y-84119186D01*
X92233715Y-83976329D01*
X92162286Y-83690614D01*
X92162286Y-83476329D01*
X92233715Y-83190614D01*
X92305143Y-83047757D01*
X92448001Y-82904900D01*
X92662286Y-82833471D01*
X92805143Y-82833471D01*
X93019429Y-82904900D01*
X93090858Y-82976329D01*
X93662286Y-82976329D02*
X93733715Y-82904900D01*
X93876572Y-82833471D01*
X94233715Y-82833471D01*
X94376572Y-82904900D01*
X94448001Y-82976329D01*
X94519429Y-83119186D01*
X94519429Y-83262043D01*
X94448001Y-83476329D01*
X93590858Y-84333471D01*
X94519429Y-84333471D01*
X89452772Y-81453800D02*
X90167058Y-81453800D01*
X89309915Y-81882371D02*
X89809915Y-80382371D01*
X90309915Y-81882371D01*
X90809915Y-81882371D02*
X90809915Y-80382371D01*
X91167058Y-80382371D01*
X91381343Y-80453800D01*
X91524201Y-80596657D01*
X91595629Y-80739514D01*
X91667058Y-81025229D01*
X91667058Y-81239514D01*
X91595629Y-81525229D01*
X91524201Y-81668086D01*
X91381343Y-81810943D01*
X91167058Y-81882371D01*
X90809915Y-81882371D01*
X93167058Y-81739514D02*
X93095629Y-81810943D01*
X92881343Y-81882371D01*
X92738486Y-81882371D01*
X92524201Y-81810943D01*
X92381343Y-81668086D01*
X92309915Y-81525229D01*
X92238486Y-81239514D01*
X92238486Y-81025229D01*
X92309915Y-80739514D01*
X92381343Y-80596657D01*
X92524201Y-80453800D01*
X92738486Y-80382371D01*
X92881343Y-80382371D01*
X93095629Y-80453800D01*
X93167058Y-80525229D01*
X94595629Y-81882371D02*
X93738486Y-81882371D01*
X94167058Y-81882371D02*
X94167058Y-80382371D01*
X94024201Y-80596657D01*
X93881343Y-80739514D01*
X93738486Y-80810943D01*
X89452772Y-78863000D02*
X90167058Y-78863000D01*
X89309915Y-79291571D02*
X89809915Y-77791571D01*
X90309915Y-79291571D01*
X90809915Y-79291571D02*
X90809915Y-77791571D01*
X91167058Y-77791571D01*
X91381343Y-77863000D01*
X91524201Y-78005857D01*
X91595629Y-78148714D01*
X91667058Y-78434429D01*
X91667058Y-78648714D01*
X91595629Y-78934429D01*
X91524201Y-79077286D01*
X91381343Y-79220143D01*
X91167058Y-79291571D01*
X90809915Y-79291571D01*
X93167058Y-79148714D02*
X93095629Y-79220143D01*
X92881343Y-79291571D01*
X92738486Y-79291571D01*
X92524201Y-79220143D01*
X92381343Y-79077286D01*
X92309915Y-78934429D01*
X92238486Y-78648714D01*
X92238486Y-78434429D01*
X92309915Y-78148714D01*
X92381343Y-78005857D01*
X92524201Y-77863000D01*
X92738486Y-77791571D01*
X92881343Y-77791571D01*
X93095629Y-77863000D01*
X93167058Y-77934429D01*
X94095629Y-77791571D02*
X94238486Y-77791571D01*
X94381343Y-77863000D01*
X94452772Y-77934429D01*
X94524201Y-78077286D01*
X94595629Y-78363000D01*
X94595629Y-78720143D01*
X94524201Y-79005857D01*
X94452772Y-79148714D01*
X94381343Y-79220143D01*
X94238486Y-79291571D01*
X94095629Y-79291571D01*
X93952772Y-79220143D01*
X93881343Y-79148714D01*
X93809915Y-79005857D01*
X93738486Y-78720143D01*
X93738486Y-78363000D01*
X93809915Y-78077286D01*
X93881343Y-77934429D01*
X93952772Y-77863000D01*
X94095629Y-77791571D01*
X89303672Y-76789671D02*
X89303672Y-75289671D01*
X89660815Y-75289671D01*
X89875100Y-75361100D01*
X90017958Y-75503957D01*
X90089386Y-75646814D01*
X90160815Y-75932529D01*
X90160815Y-76146814D01*
X90089386Y-76432529D01*
X90017958Y-76575386D01*
X89875100Y-76718243D01*
X89660815Y-76789671D01*
X89303672Y-76789671D01*
X90732243Y-76361100D02*
X91446529Y-76361100D01*
X90589386Y-76789671D02*
X91089386Y-75289671D01*
X91589386Y-76789671D01*
X92946529Y-76646814D02*
X92875100Y-76718243D01*
X92660814Y-76789671D01*
X92517957Y-76789671D01*
X92303672Y-76718243D01*
X92160814Y-76575386D01*
X92089386Y-76432529D01*
X92017957Y-76146814D01*
X92017957Y-75932529D01*
X92089386Y-75646814D01*
X92160814Y-75503957D01*
X92303672Y-75361100D01*
X92517957Y-75289671D01*
X92660814Y-75289671D01*
X92875100Y-75361100D01*
X92946529Y-75432529D01*
X93803672Y-76789671D02*
X93660814Y-76718243D01*
X93589386Y-76646814D01*
X93517957Y-76503957D01*
X93517957Y-76075386D01*
X93589386Y-75932529D01*
X93660814Y-75861100D01*
X93803672Y-75789671D01*
X94017957Y-75789671D01*
X94160814Y-75861100D01*
X94232243Y-75932529D01*
X94303672Y-76075386D01*
X94303672Y-76503957D01*
X94232243Y-76646814D01*
X94160814Y-76718243D01*
X94017957Y-76789671D01*
X93803672Y-76789671D01*
X95589386Y-75789671D02*
X95589386Y-76789671D01*
X94946529Y-75789671D02*
X94946529Y-76575386D01*
X95017957Y-76718243D01*
X95160815Y-76789671D01*
X95375100Y-76789671D01*
X95517957Y-76718243D01*
X95589386Y-76646814D01*
X96089386Y-75789671D02*
X96660815Y-75789671D01*
X96303672Y-75289671D02*
X96303672Y-76575386D01*
X96375100Y-76718243D01*
X96517958Y-76789671D01*
X96660815Y-76789671D01*
X89316158Y-72775071D02*
X90244729Y-72775071D01*
X89744729Y-73346500D01*
X89959015Y-73346500D01*
X90101872Y-73417929D01*
X90173301Y-73489357D01*
X90244729Y-73632214D01*
X90244729Y-73989357D01*
X90173301Y-74132214D01*
X90101872Y-74203643D01*
X89959015Y-74275071D01*
X89530443Y-74275071D01*
X89387586Y-74203643D01*
X89316158Y-74132214D01*
X90673300Y-72775071D02*
X91173300Y-74275071D01*
X91673300Y-72775071D01*
X92030443Y-72775071D02*
X92959014Y-72775071D01*
X92459014Y-73346500D01*
X92673300Y-73346500D01*
X92816157Y-73417929D01*
X92887586Y-73489357D01*
X92959014Y-73632214D01*
X92959014Y-73989357D01*
X92887586Y-74132214D01*
X92816157Y-74203643D01*
X92673300Y-74275071D01*
X92244728Y-74275071D01*
X92101871Y-74203643D01*
X92030443Y-74132214D01*
X142163943Y-65798000D02*
X142021086Y-65726571D01*
X141806800Y-65726571D01*
X141592515Y-65798000D01*
X141449657Y-65940857D01*
X141378229Y-66083714D01*
X141306800Y-66369429D01*
X141306800Y-66583714D01*
X141378229Y-66869429D01*
X141449657Y-67012286D01*
X141592515Y-67155143D01*
X141806800Y-67226571D01*
X141949657Y-67226571D01*
X142163943Y-67155143D01*
X142235372Y-67083714D01*
X142235372Y-66583714D01*
X141949657Y-66583714D01*
X142878229Y-67226571D02*
X142878229Y-65726571D01*
X143735372Y-67226571D01*
X143735372Y-65726571D01*
X144449658Y-67226571D02*
X144449658Y-65726571D01*
X144806801Y-65726571D01*
X145021086Y-65798000D01*
X145163944Y-65940857D01*
X145235372Y-66083714D01*
X145306801Y-66369429D01*
X145306801Y-66583714D01*
X145235372Y-66869429D01*
X145163944Y-67012286D01*
X145021086Y-67155143D01*
X144806801Y-67226571D01*
X144449658Y-67226571D01*
X141128229Y-64610371D02*
X141128229Y-63110371D01*
X141699657Y-63110371D01*
X141842515Y-63181800D01*
X141913943Y-63253229D01*
X141985372Y-63396086D01*
X141985372Y-63610371D01*
X141913943Y-63753229D01*
X141842515Y-63824657D01*
X141699657Y-63896086D01*
X141128229Y-63896086D01*
X143413943Y-64610371D02*
X142556800Y-64610371D01*
X142985372Y-64610371D02*
X142985372Y-63110371D01*
X142842515Y-63324657D01*
X142699657Y-63467514D01*
X142556800Y-63538943D01*
X144056800Y-64467514D02*
X144128228Y-64538943D01*
X144056800Y-64610371D01*
X143985371Y-64538943D01*
X144056800Y-64467514D01*
X144056800Y-64610371D01*
X144628229Y-63110371D02*
X145628229Y-63110371D01*
X144985372Y-64610371D01*
X141039329Y-62171971D02*
X141039329Y-60671971D01*
X141610757Y-60671971D01*
X141753615Y-60743400D01*
X141825043Y-60814829D01*
X141896472Y-60957686D01*
X141896472Y-61171971D01*
X141825043Y-61314829D01*
X141753615Y-61386257D01*
X141610757Y-61457686D01*
X141039329Y-61457686D01*
X143325043Y-62171971D02*
X142467900Y-62171971D01*
X142896472Y-62171971D02*
X142896472Y-60671971D01*
X142753615Y-60886257D01*
X142610757Y-61029114D01*
X142467900Y-61100543D01*
X143967900Y-62029114D02*
X144039328Y-62100543D01*
X143967900Y-62171971D01*
X143896471Y-62100543D01*
X143967900Y-62029114D01*
X143967900Y-62171971D01*
X145325043Y-60671971D02*
X145039329Y-60671971D01*
X144896472Y-60743400D01*
X144825043Y-60814829D01*
X144682186Y-61029114D01*
X144610757Y-61314829D01*
X144610757Y-61886257D01*
X144682186Y-62029114D01*
X144753614Y-62100543D01*
X144896472Y-62171971D01*
X145182186Y-62171971D01*
X145325043Y-62100543D01*
X145396472Y-62029114D01*
X145467900Y-61886257D01*
X145467900Y-61529114D01*
X145396472Y-61386257D01*
X145325043Y-61314829D01*
X145182186Y-61243400D01*
X144896472Y-61243400D01*
X144753614Y-61314829D01*
X144682186Y-61386257D01*
X144610757Y-61529114D01*
X141102829Y-59543071D02*
X141102829Y-58043071D01*
X141674257Y-58043071D01*
X141817115Y-58114500D01*
X141888543Y-58185929D01*
X141959972Y-58328786D01*
X141959972Y-58543071D01*
X141888543Y-58685929D01*
X141817115Y-58757357D01*
X141674257Y-58828786D01*
X141102829Y-58828786D01*
X143388543Y-59543071D02*
X142531400Y-59543071D01*
X142959972Y-59543071D02*
X142959972Y-58043071D01*
X142817115Y-58257357D01*
X142674257Y-58400214D01*
X142531400Y-58471643D01*
X144031400Y-59400214D02*
X144102828Y-59471643D01*
X144031400Y-59543071D01*
X143959971Y-59471643D01*
X144031400Y-59400214D01*
X144031400Y-59543071D01*
X145459972Y-58043071D02*
X144745686Y-58043071D01*
X144674257Y-58757357D01*
X144745686Y-58685929D01*
X144888543Y-58614500D01*
X145245686Y-58614500D01*
X145388543Y-58685929D01*
X145459972Y-58757357D01*
X145531400Y-58900214D01*
X145531400Y-59257357D01*
X145459972Y-59400214D01*
X145388543Y-59471643D01*
X145245686Y-59543071D01*
X144888543Y-59543071D01*
X144745686Y-59471643D01*
X144674257Y-59400214D01*
X141102829Y-56888771D02*
X141102829Y-55388771D01*
X141674257Y-55388771D01*
X141817115Y-55460200D01*
X141888543Y-55531629D01*
X141959972Y-55674486D01*
X141959972Y-55888771D01*
X141888543Y-56031629D01*
X141817115Y-56103057D01*
X141674257Y-56174486D01*
X141102829Y-56174486D01*
X143388543Y-56888771D02*
X142531400Y-56888771D01*
X142959972Y-56888771D02*
X142959972Y-55388771D01*
X142817115Y-55603057D01*
X142674257Y-55745914D01*
X142531400Y-55817343D01*
X144031400Y-56745914D02*
X144102828Y-56817343D01*
X144031400Y-56888771D01*
X143959971Y-56817343D01*
X144031400Y-56745914D01*
X144031400Y-56888771D01*
X145388543Y-55888771D02*
X145388543Y-56888771D01*
X145031400Y-55317343D02*
X144674257Y-56388771D01*
X145602829Y-56388771D01*
X141102829Y-54374171D02*
X141102829Y-52874171D01*
X141674257Y-52874171D01*
X141817115Y-52945600D01*
X141888543Y-53017029D01*
X141959972Y-53159886D01*
X141959972Y-53374171D01*
X141888543Y-53517029D01*
X141817115Y-53588457D01*
X141674257Y-53659886D01*
X141102829Y-53659886D01*
X143388543Y-54374171D02*
X142531400Y-54374171D01*
X142959972Y-54374171D02*
X142959972Y-52874171D01*
X142817115Y-53088457D01*
X142674257Y-53231314D01*
X142531400Y-53302743D01*
X144031400Y-54231314D02*
X144102828Y-54302743D01*
X144031400Y-54374171D01*
X143959971Y-54302743D01*
X144031400Y-54231314D01*
X144031400Y-54374171D01*
X144602829Y-52874171D02*
X145531400Y-52874171D01*
X145031400Y-53445600D01*
X145245686Y-53445600D01*
X145388543Y-53517029D01*
X145459972Y-53588457D01*
X145531400Y-53731314D01*
X145531400Y-54088457D01*
X145459972Y-54231314D01*
X145388543Y-54302743D01*
X145245686Y-54374171D01*
X144817114Y-54374171D01*
X144674257Y-54302743D01*
X144602829Y-54231314D01*
X141115529Y-51681771D02*
X141115529Y-50181771D01*
X141686957Y-50181771D01*
X141829815Y-50253200D01*
X141901243Y-50324629D01*
X141972672Y-50467486D01*
X141972672Y-50681771D01*
X141901243Y-50824629D01*
X141829815Y-50896057D01*
X141686957Y-50967486D01*
X141115529Y-50967486D01*
X143401243Y-51681771D02*
X142544100Y-51681771D01*
X142972672Y-51681771D02*
X142972672Y-50181771D01*
X142829815Y-50396057D01*
X142686957Y-50538914D01*
X142544100Y-50610343D01*
X144044100Y-51538914D02*
X144115528Y-51610343D01*
X144044100Y-51681771D01*
X143972671Y-51610343D01*
X144044100Y-51538914D01*
X144044100Y-51681771D01*
X144686957Y-50324629D02*
X144758386Y-50253200D01*
X144901243Y-50181771D01*
X145258386Y-50181771D01*
X145401243Y-50253200D01*
X145472672Y-50324629D01*
X145544100Y-50467486D01*
X145544100Y-50610343D01*
X145472672Y-50824629D01*
X144615529Y-51681771D01*
X145544100Y-51681771D01*
X141115529Y-49141771D02*
X141115529Y-47641771D01*
X141686957Y-47641771D01*
X141829815Y-47713200D01*
X141901243Y-47784629D01*
X141972672Y-47927486D01*
X141972672Y-48141771D01*
X141901243Y-48284629D01*
X141829815Y-48356057D01*
X141686957Y-48427486D01*
X141115529Y-48427486D01*
X143401243Y-49141771D02*
X142544100Y-49141771D01*
X142972672Y-49141771D02*
X142972672Y-47641771D01*
X142829815Y-47856057D01*
X142686957Y-47998914D01*
X142544100Y-48070343D01*
X144044100Y-48998914D02*
X144115528Y-49070343D01*
X144044100Y-49141771D01*
X143972671Y-49070343D01*
X144044100Y-48998914D01*
X144044100Y-49141771D01*
X145544100Y-49141771D02*
X144686957Y-49141771D01*
X145115529Y-49141771D02*
X145115529Y-47641771D01*
X144972672Y-47856057D01*
X144829814Y-47998914D01*
X144686957Y-48070343D01*
X141191729Y-46589071D02*
X141191729Y-45089071D01*
X141763157Y-45089071D01*
X141906015Y-45160500D01*
X141977443Y-45231929D01*
X142048872Y-45374786D01*
X142048872Y-45589071D01*
X141977443Y-45731929D01*
X141906015Y-45803357D01*
X141763157Y-45874786D01*
X141191729Y-45874786D01*
X143477443Y-46589071D02*
X142620300Y-46589071D01*
X143048872Y-46589071D02*
X143048872Y-45089071D01*
X142906015Y-45303357D01*
X142763157Y-45446214D01*
X142620300Y-45517643D01*
X144120300Y-46446214D02*
X144191728Y-46517643D01*
X144120300Y-46589071D01*
X144048871Y-46517643D01*
X144120300Y-46446214D01*
X144120300Y-46589071D01*
X145120300Y-45089071D02*
X145263157Y-45089071D01*
X145406014Y-45160500D01*
X145477443Y-45231929D01*
X145548872Y-45374786D01*
X145620300Y-45660500D01*
X145620300Y-46017643D01*
X145548872Y-46303357D01*
X145477443Y-46446214D01*
X145406014Y-46517643D01*
X145263157Y-46589071D01*
X145120300Y-46589071D01*
X144977443Y-46517643D01*
X144906014Y-46446214D01*
X144834586Y-46303357D01*
X144763157Y-46017643D01*
X144763157Y-45660500D01*
X144834586Y-45374786D01*
X144906014Y-45231929D01*
X144977443Y-45160500D01*
X145120300Y-45089071D01*
X141779858Y-42625271D02*
X142708429Y-42625271D01*
X142208429Y-43196700D01*
X142422715Y-43196700D01*
X142565572Y-43268129D01*
X142637001Y-43339557D01*
X142708429Y-43482414D01*
X142708429Y-43839557D01*
X142637001Y-43982414D01*
X142565572Y-44053843D01*
X142422715Y-44125271D01*
X141994143Y-44125271D01*
X141851286Y-44053843D01*
X141779858Y-43982414D01*
X143137000Y-42625271D02*
X143637000Y-44125271D01*
X144137000Y-42625271D01*
X144494143Y-42625271D02*
X145422714Y-42625271D01*
X144922714Y-43196700D01*
X145137000Y-43196700D01*
X145279857Y-43268129D01*
X145351286Y-43339557D01*
X145422714Y-43482414D01*
X145422714Y-43839557D01*
X145351286Y-43982414D01*
X145279857Y-44053843D01*
X145137000Y-44125271D01*
X144708428Y-44125271D01*
X144565571Y-44053843D01*
X144494143Y-43982414D01*
X93171271Y-46593700D02*
X94242700Y-46593700D01*
X94456986Y-46665128D01*
X94599843Y-46807985D01*
X94671271Y-47022271D01*
X94671271Y-47165128D01*
X93171271Y-46093700D02*
X93171271Y-45236557D01*
X94671271Y-45665128D02*
X93171271Y-45665128D01*
X94242700Y-44807986D02*
X94242700Y-44093700D01*
X94671271Y-44950843D02*
X93171271Y-44450843D01*
X94671271Y-43950843D01*
X93242700Y-42665129D02*
X93171271Y-42807986D01*
X93171271Y-43022272D01*
X93242700Y-43236557D01*
X93385557Y-43379415D01*
X93528414Y-43450843D01*
X93814129Y-43522272D01*
X94028414Y-43522272D01*
X94314129Y-43450843D01*
X94456986Y-43379415D01*
X94599843Y-43236557D01*
X94671271Y-43022272D01*
X94671271Y-42879415D01*
X94599843Y-42665129D01*
X94528414Y-42593700D01*
X94028414Y-42593700D01*
X94028414Y-42879415D01*
X113079871Y-47879557D02*
X114294157Y-47879557D01*
X114437014Y-47808129D01*
X114508443Y-47736700D01*
X114579871Y-47593843D01*
X114579871Y-47308129D01*
X114508443Y-47165271D01*
X114437014Y-47093843D01*
X114294157Y-47022414D01*
X113079871Y-47022414D01*
X114508443Y-46379557D02*
X114579871Y-46165271D01*
X114579871Y-45808128D01*
X114508443Y-45665271D01*
X114437014Y-45593842D01*
X114294157Y-45522414D01*
X114151300Y-45522414D01*
X114008443Y-45593842D01*
X113937014Y-45665271D01*
X113865586Y-45808128D01*
X113794157Y-46093842D01*
X113722729Y-46236700D01*
X113651300Y-46308128D01*
X113508443Y-46379557D01*
X113365586Y-46379557D01*
X113222729Y-46308128D01*
X113151300Y-46236700D01*
X113079871Y-46093842D01*
X113079871Y-45736700D01*
X113151300Y-45522414D01*
X113794157Y-44379557D02*
X113865586Y-44165271D01*
X113937014Y-44093843D01*
X114079871Y-44022414D01*
X114294157Y-44022414D01*
X114437014Y-44093843D01*
X114508443Y-44165271D01*
X114579871Y-44308129D01*
X114579871Y-44879557D01*
X113079871Y-44879557D01*
X113079871Y-44379557D01*
X113151300Y-44236700D01*
X113222729Y-44165271D01*
X113365586Y-44093843D01*
X113508443Y-44093843D01*
X113651300Y-44165271D01*
X113722729Y-44236700D01*
X113794157Y-44379557D01*
X113794157Y-44879557D01*
X115629871Y-48379557D02*
X116844157Y-48379557D01*
X116987014Y-48308129D01*
X117058443Y-48236700D01*
X117129871Y-48093843D01*
X117129871Y-47808129D01*
X117058443Y-47665271D01*
X116987014Y-47593843D01*
X116844157Y-47522414D01*
X115629871Y-47522414D01*
X116701300Y-46879557D02*
X116701300Y-46165271D01*
X117129871Y-47022414D02*
X115629871Y-46522414D01*
X117129871Y-46022414D01*
X117129871Y-44665271D02*
X116415586Y-45165271D01*
X117129871Y-45522414D02*
X115629871Y-45522414D01*
X115629871Y-44950986D01*
X115701300Y-44808128D01*
X115772729Y-44736700D01*
X115915586Y-44665271D01*
X116129871Y-44665271D01*
X116272729Y-44736700D01*
X116344157Y-44808128D01*
X116415586Y-44950986D01*
X116415586Y-45522414D01*
X115629871Y-44236700D02*
X115629871Y-43379557D01*
X117129871Y-43808128D02*
X115629871Y-43808128D01*
X135043171Y-53373042D02*
X135043171Y-54087328D01*
X135757457Y-54158757D01*
X135686029Y-54087328D01*
X135614600Y-53944471D01*
X135614600Y-53587328D01*
X135686029Y-53444471D01*
X135757457Y-53373042D01*
X135900314Y-53301614D01*
X136257457Y-53301614D01*
X136400314Y-53373042D01*
X136471743Y-53444471D01*
X136543171Y-53587328D01*
X136543171Y-53944471D01*
X136471743Y-54087328D01*
X136400314Y-54158757D01*
X135043171Y-52873043D02*
X136543171Y-52373043D01*
X135043171Y-51873043D01*
X136543171Y-50230186D02*
X135043171Y-50230186D01*
X135043171Y-49873043D01*
X135114600Y-49658758D01*
X135257457Y-49515900D01*
X135400314Y-49444472D01*
X135686029Y-49373043D01*
X135900314Y-49373043D01*
X136186029Y-49444472D01*
X136328886Y-49515900D01*
X136471743Y-49658758D01*
X136543171Y-49873043D01*
X136543171Y-50230186D01*
X136400314Y-47873043D02*
X136471743Y-47944472D01*
X136543171Y-48158758D01*
X136543171Y-48301615D01*
X136471743Y-48515900D01*
X136328886Y-48658758D01*
X136186029Y-48730186D01*
X135900314Y-48801615D01*
X135686029Y-48801615D01*
X135400314Y-48730186D01*
X135257457Y-48658758D01*
X135114600Y-48515900D01*
X135043171Y-48301615D01*
X135043171Y-48158758D01*
X135114600Y-47944472D01*
X135186029Y-47873043D01*
D12*
X131106800Y-93066500D02*
X130106800Y-93066500D01*
X130106800Y-94766500D02*
X131106800Y-94766500D01*
X131183000Y-90831300D02*
X130183000Y-90831300D01*
X130183000Y-92531300D02*
X131183000Y-92531300D01*
X120435477Y-58238478D02*
G75*
G03X120435200Y-62849780I1179723J-2305722D01*
G01*
X122794923Y-58238478D02*
G75*
G02X122795200Y-62849780I-1179723J-2305722D01*
G01*
X122794923Y-58238478D02*
G75*
G03X120435200Y-58238620I-1179723J-2305722D01*
G01*
X119065200Y-60544200D02*
X124165200Y-60544200D01*
X119065200Y-60504200D02*
X120635200Y-60504200D01*
X122595200Y-60504200D02*
X124165200Y-60504200D01*
X119066200Y-60464200D02*
X120635200Y-60464200D01*
X122595200Y-60464200D02*
X124164200Y-60464200D01*
X119067200Y-60424200D02*
X120635200Y-60424200D01*
X122595200Y-60424200D02*
X124163200Y-60424200D01*
X119069200Y-60384200D02*
X120635200Y-60384200D01*
X122595200Y-60384200D02*
X124161200Y-60384200D01*
X119072200Y-60344200D02*
X120635200Y-60344200D01*
X122595200Y-60344200D02*
X124158200Y-60344200D01*
X119076200Y-60304200D02*
X120635200Y-60304200D01*
X122595200Y-60304200D02*
X124154200Y-60304200D01*
X119080200Y-60264200D02*
X120635200Y-60264200D01*
X122595200Y-60264200D02*
X124150200Y-60264200D01*
X119084200Y-60224200D02*
X120635200Y-60224200D01*
X122595200Y-60224200D02*
X124146200Y-60224200D01*
X119090200Y-60184200D02*
X120635200Y-60184200D01*
X122595200Y-60184200D02*
X124140200Y-60184200D01*
X119096200Y-60144200D02*
X120635200Y-60144200D01*
X122595200Y-60144200D02*
X124134200Y-60144200D01*
X119102200Y-60104200D02*
X120635200Y-60104200D01*
X122595200Y-60104200D02*
X124128200Y-60104200D01*
X119109200Y-60064200D02*
X120635200Y-60064200D01*
X122595200Y-60064200D02*
X124121200Y-60064200D01*
X119117200Y-60024200D02*
X120635200Y-60024200D01*
X122595200Y-60024200D02*
X124113200Y-60024200D01*
X119126200Y-59984200D02*
X120635200Y-59984200D01*
X122595200Y-59984200D02*
X124104200Y-59984200D01*
X119135200Y-59944200D02*
X120635200Y-59944200D01*
X122595200Y-59944200D02*
X124095200Y-59944200D01*
X119145200Y-59904200D02*
X120635200Y-59904200D01*
X122595200Y-59904200D02*
X124085200Y-59904200D01*
X119155200Y-59864200D02*
X120635200Y-59864200D01*
X122595200Y-59864200D02*
X124075200Y-59864200D01*
X119167200Y-59823200D02*
X120635200Y-59823200D01*
X122595200Y-59823200D02*
X124063200Y-59823200D01*
X119179200Y-59783200D02*
X120635200Y-59783200D01*
X122595200Y-59783200D02*
X124051200Y-59783200D01*
X119191200Y-59743200D02*
X120635200Y-59743200D01*
X122595200Y-59743200D02*
X124039200Y-59743200D01*
X119205200Y-59703200D02*
X120635200Y-59703200D01*
X122595200Y-59703200D02*
X124025200Y-59703200D01*
X119219200Y-59663200D02*
X120635200Y-59663200D01*
X122595200Y-59663200D02*
X124011200Y-59663200D01*
X119233200Y-59623200D02*
X120635200Y-59623200D01*
X122595200Y-59623200D02*
X123997200Y-59623200D01*
X119249200Y-59583200D02*
X120635200Y-59583200D01*
X122595200Y-59583200D02*
X123981200Y-59583200D01*
X119265200Y-59543200D02*
X120635200Y-59543200D01*
X122595200Y-59543200D02*
X123965200Y-59543200D01*
X119282200Y-59503200D02*
X120635200Y-59503200D01*
X122595200Y-59503200D02*
X123948200Y-59503200D01*
X119300200Y-59463200D02*
X120635200Y-59463200D01*
X122595200Y-59463200D02*
X123930200Y-59463200D01*
X119319200Y-59423200D02*
X120635200Y-59423200D01*
X122595200Y-59423200D02*
X123911200Y-59423200D01*
X119339200Y-59383200D02*
X120635200Y-59383200D01*
X122595200Y-59383200D02*
X123891200Y-59383200D01*
X119359200Y-59343200D02*
X120635200Y-59343200D01*
X122595200Y-59343200D02*
X123871200Y-59343200D01*
X119381200Y-59303200D02*
X120635200Y-59303200D01*
X122595200Y-59303200D02*
X123849200Y-59303200D01*
X119403200Y-59263200D02*
X120635200Y-59263200D01*
X122595200Y-59263200D02*
X123827200Y-59263200D01*
X119426200Y-59223200D02*
X120635200Y-59223200D01*
X122595200Y-59223200D02*
X123804200Y-59223200D01*
X119450200Y-59183200D02*
X120635200Y-59183200D01*
X122595200Y-59183200D02*
X123780200Y-59183200D01*
X119475200Y-59143200D02*
X120635200Y-59143200D01*
X122595200Y-59143200D02*
X123755200Y-59143200D01*
X119502200Y-59103200D02*
X120635200Y-59103200D01*
X122595200Y-59103200D02*
X123728200Y-59103200D01*
X119529200Y-59063200D02*
X120635200Y-59063200D01*
X122595200Y-59063200D02*
X123701200Y-59063200D01*
X119557200Y-59023200D02*
X120635200Y-59023200D01*
X122595200Y-59023200D02*
X123673200Y-59023200D01*
X119587200Y-58983200D02*
X120635200Y-58983200D01*
X122595200Y-58983200D02*
X123643200Y-58983200D01*
X119618200Y-58943200D02*
X120635200Y-58943200D01*
X122595200Y-58943200D02*
X123612200Y-58943200D01*
X119650200Y-58903200D02*
X120635200Y-58903200D01*
X122595200Y-58903200D02*
X123580200Y-58903200D01*
X119683200Y-58863200D02*
X120635200Y-58863200D01*
X122595200Y-58863200D02*
X123547200Y-58863200D01*
X119718200Y-58823200D02*
X120635200Y-58823200D01*
X122595200Y-58823200D02*
X123512200Y-58823200D01*
X119754200Y-58783200D02*
X120635200Y-58783200D01*
X122595200Y-58783200D02*
X123476200Y-58783200D01*
X119792200Y-58743200D02*
X120635200Y-58743200D01*
X122595200Y-58743200D02*
X123438200Y-58743200D01*
X119832200Y-58703200D02*
X120635200Y-58703200D01*
X122595200Y-58703200D02*
X123398200Y-58703200D01*
X119873200Y-58663200D02*
X120635200Y-58663200D01*
X122595200Y-58663200D02*
X123357200Y-58663200D01*
X119916200Y-58623200D02*
X120635200Y-58623200D01*
X122595200Y-58623200D02*
X123314200Y-58623200D01*
X119961200Y-58583200D02*
X120635200Y-58583200D01*
X122595200Y-58583200D02*
X123269200Y-58583200D01*
X120009200Y-58543200D02*
X123221200Y-58543200D01*
X120059200Y-58503200D02*
X123171200Y-58503200D01*
X120111200Y-58463200D02*
X123119200Y-58463200D01*
X120167200Y-58423200D02*
X123063200Y-58423200D01*
X120225200Y-58383200D02*
X123005200Y-58383200D01*
X120288200Y-58343200D02*
X122942200Y-58343200D01*
X120354200Y-58303200D02*
X122876200Y-58303200D01*
X120426200Y-58263200D02*
X122804200Y-58263200D01*
X120503200Y-58223200D02*
X122727200Y-58223200D01*
X120587200Y-58183200D02*
X122643200Y-58183200D01*
X120681200Y-58143200D02*
X122549200Y-58143200D01*
X120786200Y-58103200D02*
X122444200Y-58103200D01*
X120908200Y-58063200D02*
X122322200Y-58063200D01*
X121056200Y-58023200D02*
X122174200Y-58023200D01*
X121261200Y-57983200D02*
X121969200Y-57983200D01*
X121615200Y-63744200D02*
X121615200Y-62544200D01*
X120965200Y-63144200D02*
X122265200Y-63144200D01*
X126830200Y-69404600D02*
X127830200Y-69404600D01*
X127830200Y-67704600D02*
X126830200Y-67704600D01*
X132904123Y-77012522D02*
G75*
G03X132904400Y-72401220I-1179723J2305722D01*
G01*
X130544677Y-77012522D02*
G75*
G02X130544400Y-72401220I1179723J2305722D01*
G01*
X130544677Y-77012522D02*
G75*
G03X132904400Y-77012380I1179723J2305722D01*
G01*
X134274400Y-74706800D02*
X129174400Y-74706800D01*
X134274400Y-74746800D02*
X129174400Y-74746800D01*
X134273400Y-74786800D02*
X129175400Y-74786800D01*
X134272400Y-74826800D02*
X129176400Y-74826800D01*
X134270400Y-74866800D02*
X129178400Y-74866800D01*
X134267400Y-74906800D02*
X129181400Y-74906800D01*
X134263400Y-74946800D02*
X129185400Y-74946800D01*
X134259400Y-74986800D02*
X132704400Y-74986800D01*
X130744400Y-74986800D02*
X129189400Y-74986800D01*
X134255400Y-75026800D02*
X132704400Y-75026800D01*
X130744400Y-75026800D02*
X129193400Y-75026800D01*
X134249400Y-75066800D02*
X132704400Y-75066800D01*
X130744400Y-75066800D02*
X129199400Y-75066800D01*
X134243400Y-75106800D02*
X132704400Y-75106800D01*
X130744400Y-75106800D02*
X129205400Y-75106800D01*
X134237400Y-75146800D02*
X132704400Y-75146800D01*
X130744400Y-75146800D02*
X129211400Y-75146800D01*
X134230400Y-75186800D02*
X132704400Y-75186800D01*
X130744400Y-75186800D02*
X129218400Y-75186800D01*
X134222400Y-75226800D02*
X132704400Y-75226800D01*
X130744400Y-75226800D02*
X129226400Y-75226800D01*
X134213400Y-75266800D02*
X132704400Y-75266800D01*
X130744400Y-75266800D02*
X129235400Y-75266800D01*
X134204400Y-75306800D02*
X132704400Y-75306800D01*
X130744400Y-75306800D02*
X129244400Y-75306800D01*
X134194400Y-75346800D02*
X132704400Y-75346800D01*
X130744400Y-75346800D02*
X129254400Y-75346800D01*
X134184400Y-75386800D02*
X132704400Y-75386800D01*
X130744400Y-75386800D02*
X129264400Y-75386800D01*
X134172400Y-75427800D02*
X132704400Y-75427800D01*
X130744400Y-75427800D02*
X129276400Y-75427800D01*
X134160400Y-75467800D02*
X132704400Y-75467800D01*
X130744400Y-75467800D02*
X129288400Y-75467800D01*
X134148400Y-75507800D02*
X132704400Y-75507800D01*
X130744400Y-75507800D02*
X129300400Y-75507800D01*
X134134400Y-75547800D02*
X132704400Y-75547800D01*
X130744400Y-75547800D02*
X129314400Y-75547800D01*
X134120400Y-75587800D02*
X132704400Y-75587800D01*
X130744400Y-75587800D02*
X129328400Y-75587800D01*
X134106400Y-75627800D02*
X132704400Y-75627800D01*
X130744400Y-75627800D02*
X129342400Y-75627800D01*
X134090400Y-75667800D02*
X132704400Y-75667800D01*
X130744400Y-75667800D02*
X129358400Y-75667800D01*
X134074400Y-75707800D02*
X132704400Y-75707800D01*
X130744400Y-75707800D02*
X129374400Y-75707800D01*
X134057400Y-75747800D02*
X132704400Y-75747800D01*
X130744400Y-75747800D02*
X129391400Y-75747800D01*
X134039400Y-75787800D02*
X132704400Y-75787800D01*
X130744400Y-75787800D02*
X129409400Y-75787800D01*
X134020400Y-75827800D02*
X132704400Y-75827800D01*
X130744400Y-75827800D02*
X129428400Y-75827800D01*
X134000400Y-75867800D02*
X132704400Y-75867800D01*
X130744400Y-75867800D02*
X129448400Y-75867800D01*
X133980400Y-75907800D02*
X132704400Y-75907800D01*
X130744400Y-75907800D02*
X129468400Y-75907800D01*
X133958400Y-75947800D02*
X132704400Y-75947800D01*
X130744400Y-75947800D02*
X129490400Y-75947800D01*
X133936400Y-75987800D02*
X132704400Y-75987800D01*
X130744400Y-75987800D02*
X129512400Y-75987800D01*
X133913400Y-76027800D02*
X132704400Y-76027800D01*
X130744400Y-76027800D02*
X129535400Y-76027800D01*
X133889400Y-76067800D02*
X132704400Y-76067800D01*
X130744400Y-76067800D02*
X129559400Y-76067800D01*
X133864400Y-76107800D02*
X132704400Y-76107800D01*
X130744400Y-76107800D02*
X129584400Y-76107800D01*
X133837400Y-76147800D02*
X132704400Y-76147800D01*
X130744400Y-76147800D02*
X129611400Y-76147800D01*
X133810400Y-76187800D02*
X132704400Y-76187800D01*
X130744400Y-76187800D02*
X129638400Y-76187800D01*
X133782400Y-76227800D02*
X132704400Y-76227800D01*
X130744400Y-76227800D02*
X129666400Y-76227800D01*
X133752400Y-76267800D02*
X132704400Y-76267800D01*
X130744400Y-76267800D02*
X129696400Y-76267800D01*
X133721400Y-76307800D02*
X132704400Y-76307800D01*
X130744400Y-76307800D02*
X129727400Y-76307800D01*
X133689400Y-76347800D02*
X132704400Y-76347800D01*
X130744400Y-76347800D02*
X129759400Y-76347800D01*
X133656400Y-76387800D02*
X132704400Y-76387800D01*
X130744400Y-76387800D02*
X129792400Y-76387800D01*
X133621400Y-76427800D02*
X132704400Y-76427800D01*
X130744400Y-76427800D02*
X129827400Y-76427800D01*
X133585400Y-76467800D02*
X132704400Y-76467800D01*
X130744400Y-76467800D02*
X129863400Y-76467800D01*
X133547400Y-76507800D02*
X132704400Y-76507800D01*
X130744400Y-76507800D02*
X129901400Y-76507800D01*
X133507400Y-76547800D02*
X132704400Y-76547800D01*
X130744400Y-76547800D02*
X129941400Y-76547800D01*
X133466400Y-76587800D02*
X132704400Y-76587800D01*
X130744400Y-76587800D02*
X129982400Y-76587800D01*
X133423400Y-76627800D02*
X132704400Y-76627800D01*
X130744400Y-76627800D02*
X130025400Y-76627800D01*
X133378400Y-76667800D02*
X132704400Y-76667800D01*
X130744400Y-76667800D02*
X130070400Y-76667800D01*
X133330400Y-76707800D02*
X132704400Y-76707800D01*
X130744400Y-76707800D02*
X130118400Y-76707800D01*
X133280400Y-76747800D02*
X132704400Y-76747800D01*
X130744400Y-76747800D02*
X130168400Y-76747800D01*
X133228400Y-76787800D02*
X132704400Y-76787800D01*
X130744400Y-76787800D02*
X130220400Y-76787800D01*
X133172400Y-76827800D02*
X132704400Y-76827800D01*
X130744400Y-76827800D02*
X130276400Y-76827800D01*
X133114400Y-76867800D02*
X132704400Y-76867800D01*
X130744400Y-76867800D02*
X130334400Y-76867800D01*
X133051400Y-76907800D02*
X132704400Y-76907800D01*
X130744400Y-76907800D02*
X130397400Y-76907800D01*
X132985400Y-76947800D02*
X130463400Y-76947800D01*
X132913400Y-76987800D02*
X130535400Y-76987800D01*
X132836400Y-77027800D02*
X130612400Y-77027800D01*
X132752400Y-77067800D02*
X130696400Y-77067800D01*
X132658400Y-77107800D02*
X130790400Y-77107800D01*
X132553400Y-77147800D02*
X130895400Y-77147800D01*
X132431400Y-77187800D02*
X131017400Y-77187800D01*
X132283400Y-77227800D02*
X131165400Y-77227800D01*
X132078400Y-77267800D02*
X131370400Y-77267800D01*
X131724400Y-71256800D02*
X131724400Y-72456800D01*
X132374400Y-71856800D02*
X131074400Y-71856800D01*
X114133523Y-56209922D02*
G75*
G03X114133800Y-51598620I-1179723J2305722D01*
G01*
X111774077Y-56209922D02*
G75*
G02X111773800Y-51598620I1179723J2305722D01*
G01*
X111774077Y-56209922D02*
G75*
G03X114133800Y-56209780I1179723J2305722D01*
G01*
X115503800Y-53904200D02*
X110403800Y-53904200D01*
X115503800Y-53944200D02*
X110403800Y-53944200D01*
X115502800Y-53984200D02*
X110404800Y-53984200D01*
X115501800Y-54024200D02*
X110405800Y-54024200D01*
X115499800Y-54064200D02*
X110407800Y-54064200D01*
X115496800Y-54104200D02*
X110410800Y-54104200D01*
X115492800Y-54144200D02*
X110414800Y-54144200D01*
X115488800Y-54184200D02*
X113933800Y-54184200D01*
X111973800Y-54184200D02*
X110418800Y-54184200D01*
X115484800Y-54224200D02*
X113933800Y-54224200D01*
X111973800Y-54224200D02*
X110422800Y-54224200D01*
X115478800Y-54264200D02*
X113933800Y-54264200D01*
X111973800Y-54264200D02*
X110428800Y-54264200D01*
X115472800Y-54304200D02*
X113933800Y-54304200D01*
X111973800Y-54304200D02*
X110434800Y-54304200D01*
X115466800Y-54344200D02*
X113933800Y-54344200D01*
X111973800Y-54344200D02*
X110440800Y-54344200D01*
X115459800Y-54384200D02*
X113933800Y-54384200D01*
X111973800Y-54384200D02*
X110447800Y-54384200D01*
X115451800Y-54424200D02*
X113933800Y-54424200D01*
X111973800Y-54424200D02*
X110455800Y-54424200D01*
X115442800Y-54464200D02*
X113933800Y-54464200D01*
X111973800Y-54464200D02*
X110464800Y-54464200D01*
X115433800Y-54504200D02*
X113933800Y-54504200D01*
X111973800Y-54504200D02*
X110473800Y-54504200D01*
X115423800Y-54544200D02*
X113933800Y-54544200D01*
X111973800Y-54544200D02*
X110483800Y-54544200D01*
X115413800Y-54584200D02*
X113933800Y-54584200D01*
X111973800Y-54584200D02*
X110493800Y-54584200D01*
X115401800Y-54625200D02*
X113933800Y-54625200D01*
X111973800Y-54625200D02*
X110505800Y-54625200D01*
X115389800Y-54665200D02*
X113933800Y-54665200D01*
X111973800Y-54665200D02*
X110517800Y-54665200D01*
X115377800Y-54705200D02*
X113933800Y-54705200D01*
X111973800Y-54705200D02*
X110529800Y-54705200D01*
X115363800Y-54745200D02*
X113933800Y-54745200D01*
X111973800Y-54745200D02*
X110543800Y-54745200D01*
X115349800Y-54785200D02*
X113933800Y-54785200D01*
X111973800Y-54785200D02*
X110557800Y-54785200D01*
X115335800Y-54825200D02*
X113933800Y-54825200D01*
X111973800Y-54825200D02*
X110571800Y-54825200D01*
X115319800Y-54865200D02*
X113933800Y-54865200D01*
X111973800Y-54865200D02*
X110587800Y-54865200D01*
X115303800Y-54905200D02*
X113933800Y-54905200D01*
X111973800Y-54905200D02*
X110603800Y-54905200D01*
X115286800Y-54945200D02*
X113933800Y-54945200D01*
X111973800Y-54945200D02*
X110620800Y-54945200D01*
X115268800Y-54985200D02*
X113933800Y-54985200D01*
X111973800Y-54985200D02*
X110638800Y-54985200D01*
X115249800Y-55025200D02*
X113933800Y-55025200D01*
X111973800Y-55025200D02*
X110657800Y-55025200D01*
X115229800Y-55065200D02*
X113933800Y-55065200D01*
X111973800Y-55065200D02*
X110677800Y-55065200D01*
X115209800Y-55105200D02*
X113933800Y-55105200D01*
X111973800Y-55105200D02*
X110697800Y-55105200D01*
X115187800Y-55145200D02*
X113933800Y-55145200D01*
X111973800Y-55145200D02*
X110719800Y-55145200D01*
X115165800Y-55185200D02*
X113933800Y-55185200D01*
X111973800Y-55185200D02*
X110741800Y-55185200D01*
X115142800Y-55225200D02*
X113933800Y-55225200D01*
X111973800Y-55225200D02*
X110764800Y-55225200D01*
X115118800Y-55265200D02*
X113933800Y-55265200D01*
X111973800Y-55265200D02*
X110788800Y-55265200D01*
X115093800Y-55305200D02*
X113933800Y-55305200D01*
X111973800Y-55305200D02*
X110813800Y-55305200D01*
X115066800Y-55345200D02*
X113933800Y-55345200D01*
X111973800Y-55345200D02*
X110840800Y-55345200D01*
X115039800Y-55385200D02*
X113933800Y-55385200D01*
X111973800Y-55385200D02*
X110867800Y-55385200D01*
X115011800Y-55425200D02*
X113933800Y-55425200D01*
X111973800Y-55425200D02*
X110895800Y-55425200D01*
X114981800Y-55465200D02*
X113933800Y-55465200D01*
X111973800Y-55465200D02*
X110925800Y-55465200D01*
X114950800Y-55505200D02*
X113933800Y-55505200D01*
X111973800Y-55505200D02*
X110956800Y-55505200D01*
X114918800Y-55545200D02*
X113933800Y-55545200D01*
X111973800Y-55545200D02*
X110988800Y-55545200D01*
X114885800Y-55585200D02*
X113933800Y-55585200D01*
X111973800Y-55585200D02*
X111021800Y-55585200D01*
X114850800Y-55625200D02*
X113933800Y-55625200D01*
X111973800Y-55625200D02*
X111056800Y-55625200D01*
X114814800Y-55665200D02*
X113933800Y-55665200D01*
X111973800Y-55665200D02*
X111092800Y-55665200D01*
X114776800Y-55705200D02*
X113933800Y-55705200D01*
X111973800Y-55705200D02*
X111130800Y-55705200D01*
X114736800Y-55745200D02*
X113933800Y-55745200D01*
X111973800Y-55745200D02*
X111170800Y-55745200D01*
X114695800Y-55785200D02*
X113933800Y-55785200D01*
X111973800Y-55785200D02*
X111211800Y-55785200D01*
X114652800Y-55825200D02*
X113933800Y-55825200D01*
X111973800Y-55825200D02*
X111254800Y-55825200D01*
X114607800Y-55865200D02*
X113933800Y-55865200D01*
X111973800Y-55865200D02*
X111299800Y-55865200D01*
X114559800Y-55905200D02*
X113933800Y-55905200D01*
X111973800Y-55905200D02*
X111347800Y-55905200D01*
X114509800Y-55945200D02*
X113933800Y-55945200D01*
X111973800Y-55945200D02*
X111397800Y-55945200D01*
X114457800Y-55985200D02*
X113933800Y-55985200D01*
X111973800Y-55985200D02*
X111449800Y-55985200D01*
X114401800Y-56025200D02*
X113933800Y-56025200D01*
X111973800Y-56025200D02*
X111505800Y-56025200D01*
X114343800Y-56065200D02*
X113933800Y-56065200D01*
X111973800Y-56065200D02*
X111563800Y-56065200D01*
X114280800Y-56105200D02*
X113933800Y-56105200D01*
X111973800Y-56105200D02*
X111626800Y-56105200D01*
X114214800Y-56145200D02*
X111692800Y-56145200D01*
X114142800Y-56185200D02*
X111764800Y-56185200D01*
X114065800Y-56225200D02*
X111841800Y-56225200D01*
X113981800Y-56265200D02*
X111925800Y-56265200D01*
X113887800Y-56305200D02*
X112019800Y-56305200D01*
X113782800Y-56345200D02*
X112124800Y-56345200D01*
X113660800Y-56385200D02*
X112246800Y-56385200D01*
X113512800Y-56425200D02*
X112394800Y-56425200D01*
X113307800Y-56465200D02*
X112599800Y-56465200D01*
X112953800Y-50454200D02*
X112953800Y-51654200D01*
X113603800Y-51054200D02*
X112303800Y-51054200D01*
X113682400Y-57417600D02*
X112682400Y-57417600D01*
X112682400Y-59117600D02*
X113682400Y-59117600D01*
X101410400Y-53500400D02*
X101410400Y-54500400D01*
X103110400Y-54500400D02*
X103110400Y-53500400D01*
X125295600Y-48492400D02*
X125295600Y-39692400D01*
X125295600Y-39692400D02*
X134495600Y-39692400D01*
X127995600Y-54392400D02*
X125295600Y-54392400D01*
X125295600Y-54392400D02*
X125295600Y-52492400D01*
X134495600Y-39692400D02*
X134495600Y-54392400D01*
X134495600Y-54392400D02*
X131895600Y-54392400D01*
X132657200Y-59573000D02*
X132657200Y-59703000D01*
X132657200Y-59703000D02*
X127337200Y-59703000D01*
X127337200Y-59703000D02*
X127337200Y-59573000D01*
X132657200Y-57013000D02*
X132657200Y-56883000D01*
X132657200Y-56883000D02*
X127337200Y-56883000D01*
X127337200Y-56883000D02*
X127337200Y-57013000D01*
X131817200Y-59703000D02*
X131817200Y-56883000D01*
X137982800Y-62922800D02*
X138112800Y-62922800D01*
X138112800Y-62922800D02*
X138112800Y-68242800D01*
X138112800Y-68242800D02*
X137982800Y-68242800D01*
X135422800Y-62922800D02*
X135292800Y-62922800D01*
X135292800Y-62922800D02*
X135292800Y-68242800D01*
X135292800Y-68242800D02*
X135422800Y-68242800D01*
X138112800Y-63762800D02*
X135292800Y-63762800D01*
D13*
X113444020Y-62801500D02*
X114495580Y-62801500D01*
X114546380Y-61201300D02*
X113494820Y-61201300D01*
X129453000Y-64211400D02*
X134453000Y-64211400D01*
X129453000Y-67411400D02*
X134453000Y-67411400D01*
X99755800Y-116530000D02*
X137755800Y-116530000D01*
X137755800Y-116530000D02*
X137745800Y-129030000D01*
X137745800Y-129030000D02*
X99745800Y-129030000D01*
X99745800Y-129030000D02*
X99745800Y-116530000D01*
X102775800Y-117800000D02*
X102775800Y-127620000D01*
X102775800Y-127620000D02*
X99775800Y-127620000D01*
X99775800Y-127620000D02*
X99775800Y-117800000D01*
X99775800Y-117800000D02*
X102775800Y-117800000D01*
X102775800Y-120170000D02*
X99775800Y-120170000D01*
D12*
X86058700Y-105330300D02*
X88718700Y-105330300D01*
X86058700Y-74790300D02*
X86058700Y-105330300D01*
X88718700Y-74790300D02*
X88718700Y-105330300D01*
X86058700Y-74790300D02*
X88718700Y-74790300D01*
X86058700Y-73520300D02*
X86058700Y-72190300D01*
X86058700Y-72190300D02*
X87388700Y-72190300D01*
X86058700Y-131708200D02*
X88718700Y-131708200D01*
X86058700Y-111328200D02*
X86058700Y-131708200D01*
X88718700Y-111328200D02*
X88718700Y-131708200D01*
X86058700Y-111328200D02*
X88718700Y-111328200D01*
X86058700Y-110058200D02*
X86058700Y-108728200D01*
X86058700Y-108728200D02*
X87388700Y-108728200D01*
X91207900Y-42129400D02*
X86007900Y-42129400D01*
X91207900Y-65049400D02*
X91207900Y-42129400D01*
X86007900Y-67649400D02*
X86007900Y-42129400D01*
X91207900Y-65049400D02*
X88607900Y-65049400D01*
X88607900Y-65049400D02*
X88607900Y-67649400D01*
X88607900Y-67649400D02*
X86007900Y-67649400D01*
X91207900Y-66319400D02*
X91207900Y-67649400D01*
X91207900Y-67649400D02*
X89877900Y-67649400D01*
X145964600Y-121421200D02*
X148624600Y-121421200D01*
X145964600Y-103581200D02*
X145964600Y-121421200D01*
X148624600Y-103581200D02*
X148624600Y-121421200D01*
X145964600Y-103581200D02*
X148624600Y-103581200D01*
X145964600Y-102311200D02*
X145964600Y-100981200D01*
X145964600Y-100981200D02*
X147294600Y-100981200D01*
X146193200Y-67674800D02*
X148853200Y-67674800D01*
X146193200Y-44754800D02*
X146193200Y-67674800D01*
X148853200Y-44754800D02*
X148853200Y-67674800D01*
X146193200Y-44754800D02*
X148853200Y-44754800D01*
X146193200Y-43484800D02*
X146193200Y-42154800D01*
X146193200Y-42154800D02*
X147523200Y-42154800D01*
X146028100Y-97227700D02*
X148688100Y-97227700D01*
X146028100Y-74307700D02*
X146028100Y-97227700D01*
X148688100Y-74307700D02*
X148688100Y-97227700D01*
X146028100Y-74307700D02*
X148688100Y-74307700D01*
X146028100Y-73037700D02*
X146028100Y-71707700D01*
X146028100Y-71707700D02*
X147358100Y-71707700D01*
X110606200Y-42232000D02*
X102906200Y-42232000D01*
X110606200Y-41232000D02*
X102906200Y-41232000D01*
X102906200Y-41232000D02*
X102906200Y-50432000D01*
X102906200Y-50432000D02*
X110606200Y-50432000D01*
X110606200Y-50432000D02*
X110606200Y-41232000D01*
X126830200Y-69957400D02*
X127830200Y-69957400D01*
X127830200Y-71317400D02*
X126830200Y-71317400D01*
X125645800Y-73120800D02*
X124645800Y-73120800D01*
X124645800Y-71760800D02*
X125645800Y-71760800D01*
X97618000Y-73347200D02*
X97618000Y-72347200D01*
X98978000Y-72347200D02*
X98978000Y-73347200D01*
X99599200Y-73347200D02*
X99599200Y-72347200D01*
X100959200Y-72347200D02*
X100959200Y-73347200D01*
X105085600Y-54424200D02*
X105085600Y-53424200D01*
X106445600Y-53424200D02*
X106445600Y-54424200D01*
X106812800Y-54424200D02*
X106812800Y-53424200D01*
X108172800Y-53424200D02*
X108172800Y-54424200D01*
X102141400Y-57105000D02*
X103141400Y-57105000D01*
X103141400Y-58465000D02*
X102141400Y-58465000D01*
X125536200Y-106960300D02*
X130036200Y-106960300D01*
X124286200Y-102960300D02*
X124286200Y-104460300D01*
X130036200Y-100460300D02*
X125536200Y-100460300D01*
X131286200Y-104460300D02*
X131286200Y-102960300D01*
X125440000Y-63204200D02*
X125440000Y-64964200D01*
X128510000Y-64964200D02*
X128510000Y-62534200D01*
D13*
X108258600Y-85805700D02*
X109008600Y-85055700D01*
X117508600Y-85055700D02*
X118258600Y-85055700D01*
X118258600Y-85055700D02*
X118258600Y-85805700D01*
X109008600Y-95055700D02*
X108258600Y-95055700D01*
X108258600Y-95055700D02*
X108258600Y-94305700D01*
X117508600Y-95055700D02*
X118258600Y-95055700D01*
X118258600Y-95055700D02*
X118258600Y-94305700D01*
X97214800Y-67721200D02*
X97789800Y-67721200D01*
X97214800Y-61971200D02*
X97864800Y-61971200D01*
X107864800Y-61971200D02*
X107214800Y-61971200D01*
X107864800Y-67721200D02*
X107214800Y-67721200D01*
X97214800Y-67721200D02*
X97214800Y-61971200D01*
X107864800Y-67721200D02*
X107864800Y-61971200D01*
X97789800Y-67721200D02*
X97789800Y-69321200D01*
D12*
X124956121Y-91375958D02*
G75*
G03X124955512Y-93916500I1129479J-1270542D01*
G01*
X127215079Y-91375958D02*
G75*
G02X127215688Y-93916500I-1129479J-1270542D01*
G01*
D13*
X133792934Y-94324443D02*
X133745315Y-94372062D01*
X133602458Y-94419681D01*
X133507220Y-94419681D01*
X133364362Y-94372062D01*
X133269124Y-94276824D01*
X133221505Y-94181586D01*
X133173886Y-93991110D01*
X133173886Y-93848252D01*
X133221505Y-93657776D01*
X133269124Y-93562538D01*
X133364362Y-93467300D01*
X133507220Y-93419681D01*
X133602458Y-93419681D01*
X133745315Y-93467300D01*
X133792934Y-93514919D01*
X134745315Y-94419681D02*
X134173886Y-94419681D01*
X134459600Y-94419681D02*
X134459600Y-93419681D01*
X134364362Y-93562538D01*
X134269124Y-93657776D01*
X134173886Y-93705395D01*
X133767534Y-92140043D02*
X133719915Y-92187662D01*
X133577058Y-92235281D01*
X133481820Y-92235281D01*
X133338962Y-92187662D01*
X133243724Y-92092424D01*
X133196105Y-91997186D01*
X133148486Y-91806710D01*
X133148486Y-91663852D01*
X133196105Y-91473376D01*
X133243724Y-91378138D01*
X133338962Y-91282900D01*
X133481820Y-91235281D01*
X133577058Y-91235281D01*
X133719915Y-91282900D01*
X133767534Y-91330519D01*
X134148486Y-91330519D02*
X134196105Y-91282900D01*
X134291343Y-91235281D01*
X134529439Y-91235281D01*
X134624677Y-91282900D01*
X134672296Y-91330519D01*
X134719915Y-91425757D01*
X134719915Y-91520995D01*
X134672296Y-91663852D01*
X134100867Y-92235281D01*
X134719915Y-92235281D01*
X124029743Y-57367466D02*
X124077362Y-57415085D01*
X124124981Y-57557942D01*
X124124981Y-57653180D01*
X124077362Y-57796038D01*
X123982124Y-57891276D01*
X123886886Y-57938895D01*
X123696410Y-57986514D01*
X123553552Y-57986514D01*
X123363076Y-57938895D01*
X123267838Y-57891276D01*
X123172600Y-57796038D01*
X123124981Y-57653180D01*
X123124981Y-57557942D01*
X123172600Y-57415085D01*
X123220219Y-57367466D01*
X123124981Y-56462704D02*
X123124981Y-56938895D01*
X123601171Y-56986514D01*
X123553552Y-56938895D01*
X123505933Y-56843657D01*
X123505933Y-56605561D01*
X123553552Y-56510323D01*
X123601171Y-56462704D01*
X123696410Y-56415085D01*
X123934505Y-56415085D01*
X124029743Y-56462704D01*
X124077362Y-56510323D01*
X124124981Y-56605561D01*
X124124981Y-56843657D01*
X124077362Y-56938895D01*
X124029743Y-56986514D01*
X123912334Y-68962543D02*
X123864715Y-69010162D01*
X123721858Y-69057781D01*
X123626620Y-69057781D01*
X123483762Y-69010162D01*
X123388524Y-68914924D01*
X123340905Y-68819686D01*
X123293286Y-68629210D01*
X123293286Y-68486352D01*
X123340905Y-68295876D01*
X123388524Y-68200638D01*
X123483762Y-68105400D01*
X123626620Y-68057781D01*
X123721858Y-68057781D01*
X123864715Y-68105400D01*
X123912334Y-68153019D01*
X124769477Y-68057781D02*
X124579000Y-68057781D01*
X124483762Y-68105400D01*
X124436143Y-68153019D01*
X124340905Y-68295876D01*
X124293286Y-68486352D01*
X124293286Y-68867305D01*
X124340905Y-68962543D01*
X124388524Y-69010162D01*
X124483762Y-69057781D01*
X124674239Y-69057781D01*
X124769477Y-69010162D01*
X124817096Y-68962543D01*
X124864715Y-68867305D01*
X124864715Y-68629210D01*
X124817096Y-68533971D01*
X124769477Y-68486352D01*
X124674239Y-68438733D01*
X124483762Y-68438733D01*
X124388524Y-68486352D01*
X124340905Y-68533971D01*
X124293286Y-68629210D01*
X134596143Y-71743866D02*
X134643762Y-71791485D01*
X134691381Y-71934342D01*
X134691381Y-72029580D01*
X134643762Y-72172438D01*
X134548524Y-72267676D01*
X134453286Y-72315295D01*
X134262810Y-72362914D01*
X134119952Y-72362914D01*
X133929476Y-72315295D01*
X133834238Y-72267676D01*
X133739000Y-72172438D01*
X133691381Y-72029580D01*
X133691381Y-71934342D01*
X133739000Y-71791485D01*
X133786619Y-71743866D01*
X134119952Y-71172438D02*
X134072333Y-71267676D01*
X134024714Y-71315295D01*
X133929476Y-71362914D01*
X133881857Y-71362914D01*
X133786619Y-71315295D01*
X133739000Y-71267676D01*
X133691381Y-71172438D01*
X133691381Y-70981961D01*
X133739000Y-70886723D01*
X133786619Y-70839104D01*
X133881857Y-70791485D01*
X133929476Y-70791485D01*
X134024714Y-70839104D01*
X134072333Y-70886723D01*
X134119952Y-70981961D01*
X134119952Y-71172438D01*
X134167571Y-71267676D01*
X134215190Y-71315295D01*
X134310429Y-71362914D01*
X134500905Y-71362914D01*
X134596143Y-71315295D01*
X134643762Y-71267676D01*
X134691381Y-71172438D01*
X134691381Y-70981961D01*
X134643762Y-70886723D01*
X134596143Y-70839104D01*
X134500905Y-70791485D01*
X134310429Y-70791485D01*
X134215190Y-70839104D01*
X134167571Y-70886723D01*
X134119952Y-70981961D01*
X117120943Y-54547057D02*
X117168562Y-54594676D01*
X117216181Y-54737533D01*
X117216181Y-54832771D01*
X117168562Y-54975629D01*
X117073324Y-55070867D01*
X116978086Y-55118486D01*
X116787610Y-55166105D01*
X116644752Y-55166105D01*
X116454276Y-55118486D01*
X116359038Y-55070867D01*
X116263800Y-54975629D01*
X116216181Y-54832771D01*
X116216181Y-54737533D01*
X116263800Y-54594676D01*
X116311419Y-54547057D01*
X117216181Y-53594676D02*
X117216181Y-54166105D01*
X117216181Y-53880391D02*
X116216181Y-53880391D01*
X116359038Y-53975629D01*
X116454276Y-54070867D01*
X116501895Y-54166105D01*
X116216181Y-53261343D02*
X116216181Y-52594676D01*
X117216181Y-53023248D01*
X116324143Y-58650143D02*
X116276524Y-58697762D01*
X116133667Y-58745381D01*
X116038429Y-58745381D01*
X115895571Y-58697762D01*
X115800333Y-58602524D01*
X115752714Y-58507286D01*
X115705095Y-58316810D01*
X115705095Y-58173952D01*
X115752714Y-57983476D01*
X115800333Y-57888238D01*
X115895571Y-57793000D01*
X116038429Y-57745381D01*
X116133667Y-57745381D01*
X116276524Y-57793000D01*
X116324143Y-57840619D01*
X117276524Y-58745381D02*
X116705095Y-58745381D01*
X116990809Y-58745381D02*
X116990809Y-57745381D01*
X116895571Y-57888238D01*
X116800333Y-57983476D01*
X116705095Y-58031095D01*
X117752714Y-58745381D02*
X117943190Y-58745381D01*
X118038429Y-58697762D01*
X118086048Y-58650143D01*
X118181286Y-58507286D01*
X118228905Y-58316810D01*
X118228905Y-57935857D01*
X118181286Y-57840619D01*
X118133667Y-57793000D01*
X118038429Y-57745381D01*
X117847952Y-57745381D01*
X117752714Y-57793000D01*
X117705095Y-57840619D01*
X117657476Y-57935857D01*
X117657476Y-58173952D01*
X117705095Y-58269190D01*
X117752714Y-58316810D01*
X117847952Y-58364429D01*
X118038429Y-58364429D01*
X118133667Y-58316810D01*
X118181286Y-58269190D01*
X118228905Y-58173952D01*
X100867543Y-54643257D02*
X100915162Y-54690876D01*
X100962781Y-54833733D01*
X100962781Y-54928971D01*
X100915162Y-55071829D01*
X100819924Y-55167067D01*
X100724686Y-55214686D01*
X100534210Y-55262305D01*
X100391352Y-55262305D01*
X100200876Y-55214686D01*
X100105638Y-55167067D01*
X100010400Y-55071829D01*
X99962781Y-54928971D01*
X99962781Y-54833733D01*
X100010400Y-54690876D01*
X100058019Y-54643257D01*
X100058019Y-54262305D02*
X100010400Y-54214686D01*
X99962781Y-54119448D01*
X99962781Y-53881352D01*
X100010400Y-53786114D01*
X100058019Y-53738495D01*
X100153257Y-53690876D01*
X100248495Y-53690876D01*
X100391352Y-53738495D01*
X100962781Y-54309924D01*
X100962781Y-53690876D01*
X99962781Y-53071829D02*
X99962781Y-52976590D01*
X100010400Y-52881352D01*
X100058019Y-52833733D01*
X100153257Y-52786114D01*
X100343733Y-52738495D01*
X100581829Y-52738495D01*
X100772305Y-52786114D01*
X100867543Y-52833733D01*
X100915162Y-52881352D01*
X100962781Y-52976590D01*
X100962781Y-53071829D01*
X100915162Y-53167067D01*
X100867543Y-53214686D01*
X100772305Y-53262305D01*
X100581829Y-53309924D01*
X100343733Y-53309924D01*
X100153257Y-53262305D01*
X100058019Y-53214686D01*
X100010400Y-53167067D01*
X99962781Y-53071829D01*
X124563143Y-47315285D02*
X124610762Y-47362904D01*
X124658381Y-47505761D01*
X124658381Y-47600999D01*
X124610762Y-47743857D01*
X124515524Y-47839095D01*
X124420286Y-47886714D01*
X124229810Y-47934333D01*
X124086952Y-47934333D01*
X123896476Y-47886714D01*
X123801238Y-47839095D01*
X123706000Y-47743857D01*
X123658381Y-47600999D01*
X123658381Y-47505761D01*
X123706000Y-47362904D01*
X123753619Y-47315285D01*
X123658381Y-46696238D02*
X123658381Y-46505761D01*
X123706000Y-46410523D01*
X123801238Y-46315285D01*
X123991714Y-46267666D01*
X124325048Y-46267666D01*
X124515524Y-46315285D01*
X124610762Y-46410523D01*
X124658381Y-46505761D01*
X124658381Y-46696238D01*
X124610762Y-46791476D01*
X124515524Y-46886714D01*
X124325048Y-46934333D01*
X123991714Y-46934333D01*
X123801238Y-46886714D01*
X123706000Y-46791476D01*
X123658381Y-46696238D01*
X124658381Y-45839095D02*
X123658381Y-45839095D01*
X124658381Y-45267666D01*
X123658381Y-45267666D01*
X124658381Y-44267666D02*
X124658381Y-44839095D01*
X124658381Y-44553381D02*
X123658381Y-44553381D01*
X123801238Y-44648619D01*
X123896476Y-44743857D01*
X123944095Y-44839095D01*
X133450105Y-56357781D02*
X133450105Y-55357781D01*
X133688200Y-55357781D01*
X133831058Y-55405400D01*
X133926296Y-55500638D01*
X133973915Y-55595876D01*
X134021534Y-55786352D01*
X134021534Y-55929210D01*
X133973915Y-56119686D01*
X133926296Y-56214924D01*
X133831058Y-56310162D01*
X133688200Y-56357781D01*
X133450105Y-56357781D01*
X134973915Y-56357781D02*
X134402486Y-56357781D01*
X134688200Y-56357781D02*
X134688200Y-55357781D01*
X134592962Y-55500638D01*
X134497724Y-55595876D01*
X134402486Y-55643495D01*
X135097781Y-62155295D02*
X134097781Y-62155295D01*
X134097781Y-61917200D01*
X134145400Y-61774342D01*
X134240638Y-61679104D01*
X134335876Y-61631485D01*
X134526352Y-61583866D01*
X134669210Y-61583866D01*
X134859686Y-61631485D01*
X134954924Y-61679104D01*
X135050162Y-61774342D01*
X135097781Y-61917200D01*
X135097781Y-62155295D01*
X134193019Y-61202914D02*
X134145400Y-61155295D01*
X134097781Y-61060057D01*
X134097781Y-60821961D01*
X134145400Y-60726723D01*
X134193019Y-60679104D01*
X134288257Y-60631485D01*
X134383495Y-60631485D01*
X134526352Y-60679104D01*
X135097781Y-61250533D01*
X135097781Y-60631485D01*
X111104467Y-60253571D02*
X110771133Y-60253571D01*
X110771133Y-60777381D02*
X110771133Y-59777381D01*
X111247324Y-59777381D01*
X111961610Y-60253571D02*
X112104467Y-60301190D01*
X112152086Y-60348810D01*
X112199705Y-60444048D01*
X112199705Y-60586905D01*
X112152086Y-60682143D01*
X112104467Y-60729762D01*
X112009229Y-60777381D01*
X111628276Y-60777381D01*
X111628276Y-59777381D01*
X111961610Y-59777381D01*
X112056848Y-59825000D01*
X112104467Y-59872619D01*
X112152086Y-59967857D01*
X112152086Y-60063095D01*
X112104467Y-60158333D01*
X112056848Y-60205952D01*
X111961610Y-60253571D01*
X111628276Y-60253571D01*
X113152086Y-60777381D02*
X112580657Y-60777381D01*
X112866371Y-60777381D02*
X112866371Y-59777381D01*
X112771133Y-59920238D01*
X112675895Y-60015476D01*
X112580657Y-60063095D01*
X133615134Y-63774581D02*
X133138943Y-63774581D01*
X133138943Y-62774581D01*
X134472277Y-63774581D02*
X133900848Y-63774581D01*
X134186562Y-63774581D02*
X134186562Y-62774581D01*
X134091324Y-62917438D01*
X133996086Y-63012676D01*
X133900848Y-63060295D01*
X99921515Y-114952857D02*
X100150086Y-114952857D01*
X100264372Y-115010000D01*
X100378658Y-115124286D01*
X100435800Y-115352857D01*
X100435800Y-115752857D01*
X100378658Y-115981429D01*
X100264372Y-116095714D01*
X100150086Y-116152857D01*
X99921515Y-116152857D01*
X99807229Y-116095714D01*
X99692943Y-115981429D01*
X99635800Y-115752857D01*
X99635800Y-115352857D01*
X99692943Y-115124286D01*
X99807229Y-115010000D01*
X99921515Y-114952857D01*
X101521515Y-116152857D02*
X100950086Y-116152857D01*
X100950086Y-114952857D01*
X101921515Y-115524286D02*
X102321515Y-115524286D01*
X102492944Y-116152857D02*
X101921515Y-116152857D01*
X101921515Y-114952857D01*
X102492944Y-114952857D01*
X103007229Y-116152857D02*
X103007229Y-114952857D01*
X103292944Y-114952857D01*
X103464372Y-115010000D01*
X103578658Y-115124286D01*
X103635801Y-115238571D01*
X103692944Y-115467143D01*
X103692944Y-115638571D01*
X103635801Y-115867143D01*
X103578658Y-115981429D01*
X103464372Y-116095714D01*
X103292944Y-116152857D01*
X103007229Y-116152857D01*
X104835801Y-116152857D02*
X104150086Y-116152857D01*
X104492944Y-116152857D02*
X104492944Y-114952857D01*
X104378658Y-115124286D01*
X104264372Y-115238571D01*
X104150086Y-115295714D01*
X86650605Y-71642681D02*
X86650605Y-70642681D01*
X87031558Y-70642681D01*
X87126796Y-70690300D01*
X87174415Y-70737919D01*
X87222034Y-70833157D01*
X87222034Y-70976014D01*
X87174415Y-71071252D01*
X87126796Y-71118871D01*
X87031558Y-71166490D01*
X86650605Y-71166490D01*
X88174415Y-71642681D02*
X87602986Y-71642681D01*
X87888700Y-71642681D02*
X87888700Y-70642681D01*
X87793462Y-70785538D01*
X87698224Y-70880776D01*
X87602986Y-70928395D01*
X86650605Y-108180581D02*
X86650605Y-107180581D01*
X87031558Y-107180581D01*
X87126796Y-107228200D01*
X87174415Y-107275819D01*
X87222034Y-107371057D01*
X87222034Y-107513914D01*
X87174415Y-107609152D01*
X87126796Y-107656771D01*
X87031558Y-107704390D01*
X86650605Y-107704390D01*
X87602986Y-107275819D02*
X87650605Y-107228200D01*
X87745843Y-107180581D01*
X87983939Y-107180581D01*
X88079177Y-107228200D01*
X88126796Y-107275819D01*
X88174415Y-107371057D01*
X88174415Y-107466295D01*
X88126796Y-107609152D01*
X87555367Y-108180581D01*
X88174415Y-108180581D01*
X87869805Y-69101781D02*
X87869805Y-68101781D01*
X88250758Y-68101781D01*
X88345996Y-68149400D01*
X88393615Y-68197019D01*
X88441234Y-68292257D01*
X88441234Y-68435114D01*
X88393615Y-68530352D01*
X88345996Y-68577971D01*
X88250758Y-68625590D01*
X87869805Y-68625590D01*
X88774567Y-68101781D02*
X89393615Y-68101781D01*
X89060281Y-68482733D01*
X89203139Y-68482733D01*
X89298377Y-68530352D01*
X89345996Y-68577971D01*
X89393615Y-68673210D01*
X89393615Y-68911305D01*
X89345996Y-69006543D01*
X89298377Y-69054162D01*
X89203139Y-69101781D01*
X88917424Y-69101781D01*
X88822186Y-69054162D01*
X88774567Y-69006543D01*
X146556505Y-100433581D02*
X146556505Y-99433581D01*
X146937458Y-99433581D01*
X147032696Y-99481200D01*
X147080315Y-99528819D01*
X147127934Y-99624057D01*
X147127934Y-99766914D01*
X147080315Y-99862152D01*
X147032696Y-99909771D01*
X146937458Y-99957390D01*
X146556505Y-99957390D01*
X147985077Y-99766914D02*
X147985077Y-100433581D01*
X147746981Y-99385962D02*
X147508886Y-100100248D01*
X148127934Y-100100248D01*
X146785105Y-41607181D02*
X146785105Y-40607181D01*
X147166058Y-40607181D01*
X147261296Y-40654800D01*
X147308915Y-40702419D01*
X147356534Y-40797657D01*
X147356534Y-40940514D01*
X147308915Y-41035752D01*
X147261296Y-41083371D01*
X147166058Y-41130990D01*
X146785105Y-41130990D01*
X148261296Y-40607181D02*
X147785105Y-40607181D01*
X147737486Y-41083371D01*
X147785105Y-41035752D01*
X147880343Y-40988133D01*
X148118439Y-40988133D01*
X148213677Y-41035752D01*
X148261296Y-41083371D01*
X148308915Y-41178610D01*
X148308915Y-41416705D01*
X148261296Y-41511943D01*
X148213677Y-41559562D01*
X148118439Y-41607181D01*
X147880343Y-41607181D01*
X147785105Y-41559562D01*
X147737486Y-41511943D01*
X146620005Y-71160081D02*
X146620005Y-70160081D01*
X147000958Y-70160081D01*
X147096196Y-70207700D01*
X147143815Y-70255319D01*
X147191434Y-70350557D01*
X147191434Y-70493414D01*
X147143815Y-70588652D01*
X147096196Y-70636271D01*
X147000958Y-70683890D01*
X146620005Y-70683890D01*
X148048577Y-70160081D02*
X147858100Y-70160081D01*
X147762862Y-70207700D01*
X147715243Y-70255319D01*
X147620005Y-70398176D01*
X147572386Y-70588652D01*
X147572386Y-70969605D01*
X147620005Y-71064843D01*
X147667624Y-71112462D01*
X147762862Y-71160081D01*
X147953339Y-71160081D01*
X148048577Y-71112462D01*
X148096196Y-71064843D01*
X148143815Y-70969605D01*
X148143815Y-70731510D01*
X148096196Y-70636271D01*
X148048577Y-70588652D01*
X147953339Y-70541033D01*
X147762862Y-70541033D01*
X147667624Y-70588652D01*
X147620005Y-70636271D01*
X147572386Y-70731510D01*
X102344481Y-47067695D02*
X101344481Y-47067695D01*
X101344481Y-46686742D01*
X101392100Y-46591504D01*
X101439719Y-46543885D01*
X101534957Y-46496266D01*
X101677814Y-46496266D01*
X101773052Y-46543885D01*
X101820671Y-46591504D01*
X101868290Y-46686742D01*
X101868290Y-47067695D01*
X101344481Y-46162933D02*
X101344481Y-45496266D01*
X102344481Y-45924838D01*
X124090134Y-70937381D02*
X123756800Y-70461190D01*
X123518705Y-70937381D02*
X123518705Y-69937381D01*
X123899658Y-69937381D01*
X123994896Y-69985000D01*
X124042515Y-70032619D01*
X124090134Y-70127857D01*
X124090134Y-70270714D01*
X124042515Y-70365952D01*
X123994896Y-70413571D01*
X123899658Y-70461190D01*
X123518705Y-70461190D01*
X124661562Y-70365952D02*
X124566324Y-70318333D01*
X124518705Y-70270714D01*
X124471086Y-70175476D01*
X124471086Y-70127857D01*
X124518705Y-70032619D01*
X124566324Y-69985000D01*
X124661562Y-69937381D01*
X124852039Y-69937381D01*
X124947277Y-69985000D01*
X124994896Y-70032619D01*
X125042515Y-70127857D01*
X125042515Y-70175476D01*
X124994896Y-70270714D01*
X124947277Y-70318333D01*
X124852039Y-70365952D01*
X124661562Y-70365952D01*
X124566324Y-70413571D01*
X124518705Y-70461190D01*
X124471086Y-70556429D01*
X124471086Y-70746905D01*
X124518705Y-70842143D01*
X124566324Y-70889762D01*
X124661562Y-70937381D01*
X124852039Y-70937381D01*
X124947277Y-70889762D01*
X124994896Y-70842143D01*
X125042515Y-70746905D01*
X125042515Y-70556429D01*
X124994896Y-70461190D01*
X124947277Y-70413571D01*
X124852039Y-70365952D01*
X122083534Y-72867781D02*
X121750200Y-72391590D01*
X121512105Y-72867781D02*
X121512105Y-71867781D01*
X121893058Y-71867781D01*
X121988296Y-71915400D01*
X122035915Y-71963019D01*
X122083534Y-72058257D01*
X122083534Y-72201114D01*
X122035915Y-72296352D01*
X121988296Y-72343971D01*
X121893058Y-72391590D01*
X121512105Y-72391590D01*
X122559724Y-72867781D02*
X122750200Y-72867781D01*
X122845439Y-72820162D01*
X122893058Y-72772543D01*
X122988296Y-72629686D01*
X123035915Y-72439210D01*
X123035915Y-72058257D01*
X122988296Y-71963019D01*
X122940677Y-71915400D01*
X122845439Y-71867781D01*
X122654962Y-71867781D01*
X122559724Y-71915400D01*
X122512105Y-71963019D01*
X122464486Y-72058257D01*
X122464486Y-72296352D01*
X122512105Y-72391590D01*
X122559724Y-72439210D01*
X122654962Y-72486829D01*
X122845439Y-72486829D01*
X122940677Y-72439210D01*
X122988296Y-72391590D01*
X123035915Y-72296352D01*
X98750381Y-76919057D02*
X98274190Y-77252391D01*
X98750381Y-77490486D02*
X97750381Y-77490486D01*
X97750381Y-77109533D01*
X97798000Y-77014295D01*
X97845619Y-76966676D01*
X97940857Y-76919057D01*
X98083714Y-76919057D01*
X98178952Y-76966676D01*
X98226571Y-77014295D01*
X98274190Y-77109533D01*
X98274190Y-77490486D01*
X98750381Y-75966676D02*
X98750381Y-76538105D01*
X98750381Y-76252391D02*
X97750381Y-76252391D01*
X97893238Y-76347629D01*
X97988476Y-76442867D01*
X98036095Y-76538105D01*
X97750381Y-75347629D02*
X97750381Y-75252390D01*
X97798000Y-75157152D01*
X97845619Y-75109533D01*
X97940857Y-75061914D01*
X98131333Y-75014295D01*
X98369429Y-75014295D01*
X98559905Y-75061914D01*
X98655143Y-75109533D01*
X98702762Y-75157152D01*
X98750381Y-75252390D01*
X98750381Y-75347629D01*
X98702762Y-75442867D01*
X98655143Y-75490486D01*
X98559905Y-75538105D01*
X98369429Y-75585724D01*
X98131333Y-75585724D01*
X97940857Y-75538105D01*
X97845619Y-75490486D01*
X97798000Y-75442867D01*
X97750381Y-75347629D01*
X100731581Y-76969857D02*
X100255390Y-77303191D01*
X100731581Y-77541286D02*
X99731581Y-77541286D01*
X99731581Y-77160333D01*
X99779200Y-77065095D01*
X99826819Y-77017476D01*
X99922057Y-76969857D01*
X100064914Y-76969857D01*
X100160152Y-77017476D01*
X100207771Y-77065095D01*
X100255390Y-77160333D01*
X100255390Y-77541286D01*
X100731581Y-76017476D02*
X100731581Y-76588905D01*
X100731581Y-76303191D02*
X99731581Y-76303191D01*
X99874438Y-76398429D01*
X99969676Y-76493667D01*
X100017295Y-76588905D01*
X100731581Y-75065095D02*
X100731581Y-75636524D01*
X100731581Y-75350810D02*
X99731581Y-75350810D01*
X99874438Y-75446048D01*
X99969676Y-75541286D01*
X100017295Y-75636524D01*
X106217981Y-58046857D02*
X105741790Y-58380191D01*
X106217981Y-58618286D02*
X105217981Y-58618286D01*
X105217981Y-58237333D01*
X105265600Y-58142095D01*
X105313219Y-58094476D01*
X105408457Y-58046857D01*
X105551314Y-58046857D01*
X105646552Y-58094476D01*
X105694171Y-58142095D01*
X105741790Y-58237333D01*
X105741790Y-58618286D01*
X106217981Y-57094476D02*
X106217981Y-57665905D01*
X106217981Y-57380191D02*
X105217981Y-57380191D01*
X105360838Y-57475429D01*
X105456076Y-57570667D01*
X105503695Y-57665905D01*
X105217981Y-56761143D02*
X105217981Y-56142095D01*
X105598933Y-56475429D01*
X105598933Y-56332571D01*
X105646552Y-56237333D01*
X105694171Y-56189714D01*
X105789410Y-56142095D01*
X106027505Y-56142095D01*
X106122743Y-56189714D01*
X106170362Y-56237333D01*
X106217981Y-56332571D01*
X106217981Y-56618286D01*
X106170362Y-56713524D01*
X106122743Y-56761143D01*
X107995981Y-58250057D02*
X107519790Y-58583391D01*
X107995981Y-58821486D02*
X106995981Y-58821486D01*
X106995981Y-58440533D01*
X107043600Y-58345295D01*
X107091219Y-58297676D01*
X107186457Y-58250057D01*
X107329314Y-58250057D01*
X107424552Y-58297676D01*
X107472171Y-58345295D01*
X107519790Y-58440533D01*
X107519790Y-58821486D01*
X107995981Y-57297676D02*
X107995981Y-57869105D01*
X107995981Y-57583391D02*
X106995981Y-57583391D01*
X107138838Y-57678629D01*
X107234076Y-57773867D01*
X107281695Y-57869105D01*
X107329314Y-56440533D02*
X107995981Y-56440533D01*
X106948362Y-56678629D02*
X107662648Y-56916724D01*
X107662648Y-56297676D01*
X98696543Y-58262781D02*
X98363209Y-57786590D01*
X98125114Y-58262781D02*
X98125114Y-57262781D01*
X98506067Y-57262781D01*
X98601305Y-57310400D01*
X98648924Y-57358019D01*
X98696543Y-57453257D01*
X98696543Y-57596114D01*
X98648924Y-57691352D01*
X98601305Y-57738971D01*
X98506067Y-57786590D01*
X98125114Y-57786590D01*
X99648924Y-58262781D02*
X99077495Y-58262781D01*
X99363209Y-58262781D02*
X99363209Y-57262781D01*
X99267971Y-57405638D01*
X99172733Y-57500876D01*
X99077495Y-57548495D01*
X100506067Y-57262781D02*
X100315590Y-57262781D01*
X100220352Y-57310400D01*
X100172733Y-57358019D01*
X100077495Y-57500876D01*
X100029876Y-57691352D01*
X100029876Y-58072305D01*
X100077495Y-58167543D01*
X100125114Y-58215162D01*
X100220352Y-58262781D01*
X100410829Y-58262781D01*
X100506067Y-58215162D01*
X100553686Y-58167543D01*
X100601305Y-58072305D01*
X100601305Y-57834210D01*
X100553686Y-57738971D01*
X100506067Y-57691352D01*
X100410829Y-57643733D01*
X100220352Y-57643733D01*
X100125114Y-57691352D01*
X100077495Y-57738971D01*
X100029876Y-57834210D01*
X126452867Y-99865062D02*
X126595724Y-99912681D01*
X126833820Y-99912681D01*
X126929058Y-99865062D01*
X126976677Y-99817443D01*
X127024296Y-99722205D01*
X127024296Y-99626967D01*
X126976677Y-99531729D01*
X126929058Y-99484110D01*
X126833820Y-99436490D01*
X126643343Y-99388871D01*
X126548105Y-99341252D01*
X126500486Y-99293633D01*
X126452867Y-99198395D01*
X126452867Y-99103157D01*
X126500486Y-99007919D01*
X126548105Y-98960300D01*
X126643343Y-98912681D01*
X126881439Y-98912681D01*
X127024296Y-98960300D01*
X127357629Y-98912681D02*
X127595724Y-99912681D01*
X127786201Y-99198395D01*
X127976677Y-99912681D01*
X128214772Y-98912681D01*
X129119534Y-99912681D02*
X128548105Y-99912681D01*
X128833819Y-99912681D02*
X128833819Y-98912681D01*
X128738581Y-99055538D01*
X128643343Y-99150776D01*
X128548105Y-99198395D01*
X128890781Y-62636305D02*
X129700305Y-62636305D01*
X129795543Y-62588686D01*
X129843162Y-62541067D01*
X129890781Y-62445829D01*
X129890781Y-62255352D01*
X129843162Y-62160114D01*
X129795543Y-62112495D01*
X129700305Y-62064876D01*
X128890781Y-62064876D01*
X128986019Y-61636305D02*
X128938400Y-61588686D01*
X128890781Y-61493448D01*
X128890781Y-61255352D01*
X128938400Y-61160114D01*
X128986019Y-61112495D01*
X129081257Y-61064876D01*
X129176495Y-61064876D01*
X129319352Y-61112495D01*
X129890781Y-61683924D01*
X129890781Y-61064876D01*
X112344314Y-81448557D02*
X112344314Y-82419986D01*
X112401457Y-82534271D01*
X112458600Y-82591414D01*
X112572886Y-82648557D01*
X112801457Y-82648557D01*
X112915743Y-82591414D01*
X112972886Y-82534271D01*
X113030029Y-82419986D01*
X113030029Y-81448557D01*
X113487172Y-81448557D02*
X114230029Y-81448557D01*
X113830029Y-81905700D01*
X114001457Y-81905700D01*
X114115743Y-81962843D01*
X114172886Y-82019986D01*
X114230029Y-82134271D01*
X114230029Y-82419986D01*
X114172886Y-82534271D01*
X114115743Y-82591414D01*
X114001457Y-82648557D01*
X113658600Y-82648557D01*
X113544314Y-82591414D01*
X113487172Y-82534271D01*
X95742181Y-65608105D02*
X96551705Y-65608105D01*
X96646943Y-65560486D01*
X96694562Y-65512867D01*
X96742181Y-65417629D01*
X96742181Y-65227152D01*
X96694562Y-65131914D01*
X96646943Y-65084295D01*
X96551705Y-65036676D01*
X95742181Y-65036676D01*
X96075514Y-64131914D02*
X96742181Y-64131914D01*
X95694562Y-64370010D02*
X96408848Y-64608105D01*
X96408848Y-63989057D01*
X123361790Y-93122691D02*
X123837981Y-93122691D01*
X122837981Y-93456024D02*
X123361790Y-93122691D01*
X122837981Y-92789357D01*
X123837981Y-91932214D02*
X123837981Y-92503643D01*
X123837981Y-92217929D02*
X122837981Y-92217929D01*
X122980838Y-92313167D01*
X123076076Y-92408405D01*
X123123695Y-92503643D01*
M02*
