G04 #@! TF.FileFunction,Copper,L2,Bot,Signal*
%FSLAX46Y46*%
G04 Gerber Fmt 4.6, Leading zero omitted, Abs format (unit mm)*
G04 Created by KiCad (PCBNEW 4.0.4-stable) date 02/19/22 22:26:40*
%MOMM*%
%LPD*%
G01*
G04 APERTURE LIST*
%ADD10C,0.100000*%
%ADD11R,1.250000X1.500000*%
%ADD12R,1.600000X1.600000*%
%ADD13C,1.600000*%
%ADD14R,1.500000X1.250000*%
%ADD15R,3.500000X3.500000*%
%ADD16R,2.200000X2.200000*%
%ADD17O,2.200000X2.200000*%
%ADD18O,2.000000X1.200000*%
%ADD19R,1.700000X1.700000*%
%ADD20O,1.700000X1.700000*%
%ADD21R,2.000000X0.700000*%
%ADD22R,0.900000X1.200000*%
%ADD23R,1.200000X0.900000*%
%ADD24C,2.000000*%
%ADD25R,0.800000X1.800000*%
%ADD26C,1.000000*%
%ADD27C,0.600000*%
%ADD28C,0.250000*%
%ADD29C,0.400000*%
%ADD30C,1.000000*%
%ADD31C,0.800000*%
%ADD32C,2.000000*%
%ADD33C,0.200000*%
G04 APERTURE END LIST*
D10*
D11*
X110197900Y-84092100D03*
X110197900Y-81592100D03*
X114274600Y-84092100D03*
X114274600Y-81592100D03*
D12*
X121615200Y-61544200D03*
D13*
X121615200Y-59544200D03*
D14*
X119501600Y-91554300D03*
X122001600Y-91554300D03*
D12*
X131724400Y-73456800D03*
D13*
X131724400Y-75956800D03*
D11*
X111683800Y-96273300D03*
X111683800Y-98773300D03*
D14*
X112110200Y-71145400D03*
X114610200Y-71145400D03*
X122027000Y-89496900D03*
X119527000Y-89496900D03*
D11*
X109702600Y-98773300D03*
X109702600Y-96273300D03*
D14*
X107345800Y-89446100D03*
X104845800Y-89446100D03*
D11*
X112217200Y-84092100D03*
X112217200Y-81592100D03*
D14*
X105288400Y-64833500D03*
X102788400Y-64833500D03*
D11*
X105638600Y-52750400D03*
X105638600Y-55250400D03*
D12*
X112953800Y-52654200D03*
D13*
X112953800Y-55154200D03*
D11*
X107670600Y-52775800D03*
X107670600Y-55275800D03*
D15*
X129895600Y-53492400D03*
X129895600Y-47492400D03*
X125195600Y-50492400D03*
D16*
X133807200Y-58293000D03*
D17*
X126187200Y-58293000D03*
D16*
X136702800Y-61772800D03*
D17*
X136702800Y-69392800D03*
D18*
X101275800Y-118900000D03*
X101275800Y-121440000D03*
X101275800Y-123980000D03*
X101275800Y-126520000D03*
D19*
X87388700Y-73520300D03*
D20*
X87388700Y-76060300D03*
X87388700Y-78600300D03*
X87388700Y-81140300D03*
X87388700Y-83680300D03*
X87388700Y-86220300D03*
X87388700Y-88760300D03*
X87388700Y-91300300D03*
X87388700Y-93840300D03*
X87388700Y-96380300D03*
X87388700Y-98920300D03*
X87388700Y-101460300D03*
X87388700Y-104000300D03*
D19*
X87388700Y-110058200D03*
D20*
X87388700Y-112598200D03*
X87388700Y-115138200D03*
X87388700Y-117678200D03*
X87388700Y-120218200D03*
X87388700Y-122758200D03*
X87388700Y-125298200D03*
X87388700Y-127838200D03*
X87388700Y-130378200D03*
D19*
X89877900Y-66319400D03*
D20*
X87337900Y-66319400D03*
X89877900Y-63779400D03*
X87337900Y-63779400D03*
X89877900Y-61239400D03*
X87337900Y-61239400D03*
X89877900Y-58699400D03*
X87337900Y-58699400D03*
X89877900Y-56159400D03*
X87337900Y-56159400D03*
X89877900Y-53619400D03*
X87337900Y-53619400D03*
X89877900Y-51079400D03*
X87337900Y-51079400D03*
X89877900Y-48539400D03*
X87337900Y-48539400D03*
X89877900Y-45999400D03*
X87337900Y-45999400D03*
X89877900Y-43459400D03*
X87337900Y-43459400D03*
D19*
X147294600Y-102311200D03*
D20*
X147294600Y-104851200D03*
X147294600Y-107391200D03*
X147294600Y-109931200D03*
X147294600Y-112471200D03*
X147294600Y-115011200D03*
X147294600Y-117551200D03*
X147294600Y-120091200D03*
D19*
X147523200Y-43484800D03*
D20*
X147523200Y-46024800D03*
X147523200Y-48564800D03*
X147523200Y-51104800D03*
X147523200Y-53644800D03*
X147523200Y-56184800D03*
X147523200Y-58724800D03*
X147523200Y-61264800D03*
X147523200Y-63804800D03*
X147523200Y-66344800D03*
D19*
X147358100Y-73037700D03*
D20*
X147358100Y-75577700D03*
X147358100Y-78117700D03*
X147358100Y-80657700D03*
X147358100Y-83197700D03*
X147358100Y-85737700D03*
X147358100Y-88277700D03*
X147358100Y-90817700D03*
X147358100Y-93357700D03*
X147358100Y-95897700D03*
D21*
X111812600Y-66939200D03*
X111812600Y-65039200D03*
X115212600Y-65989200D03*
D22*
X107848400Y-121102300D03*
X107848400Y-118902300D03*
X109855000Y-121140400D03*
X109855000Y-118940400D03*
X92925900Y-66111300D03*
X92925900Y-63911300D03*
X94551500Y-66085900D03*
X94551500Y-63885900D03*
X96227900Y-66149400D03*
X96227900Y-63949400D03*
X98018600Y-66200200D03*
X98018600Y-64000200D03*
X120675400Y-103779500D03*
X120675400Y-101579500D03*
D23*
X111945600Y-68961000D03*
X109745600Y-68961000D03*
D22*
X110109000Y-52849600D03*
X110109000Y-55049600D03*
D24*
X124536200Y-105960300D03*
X124536200Y-101460300D03*
X131036200Y-105960300D03*
X131036200Y-101460300D03*
D25*
X116347200Y-101080300D03*
X118247200Y-101080300D03*
X117297200Y-104380300D03*
D26*
X126085600Y-93916500D03*
X126085600Y-91376500D03*
D27*
X119087900Y-98526600D03*
X110477300Y-97828100D03*
X111633000Y-97561400D03*
X127241300Y-90551000D03*
X110070900Y-89420700D03*
X105930700Y-89014300D03*
X112776000Y-82702400D03*
X113957100Y-82677000D03*
X120777000Y-91579700D03*
X120802400Y-89509600D03*
X104787700Y-51231800D03*
X102349300Y-66662300D03*
X104178100Y-63182500D03*
X102247700Y-62877700D03*
X100241100Y-62928500D03*
X115087400Y-90144600D03*
X111379000Y-86360000D03*
X111671100Y-94500700D03*
X110197900Y-85623400D03*
X117881400Y-91567000D03*
X113792000Y-85547200D03*
X122123200Y-100418900D03*
X122237500Y-102844600D03*
X110159800Y-94513400D03*
X117894100Y-89496900D03*
X109016800Y-89306400D03*
X112293400Y-85648800D03*
X105460800Y-63271400D03*
X105105200Y-56794400D03*
X107061000Y-57696100D03*
X105740200Y-59232800D03*
X111671100Y-63512700D03*
X133997700Y-100533200D03*
X141490700Y-75298300D03*
X130530600Y-86639400D03*
X134696200Y-101269800D03*
X140741400Y-74714100D03*
X129781300Y-86169500D03*
X93802200Y-79375000D03*
X96621600Y-83578700D03*
X102819200Y-95377000D03*
X104444800Y-97878900D03*
X95605600Y-76098400D03*
X100253800Y-110363000D03*
X105156000Y-95783400D03*
X123177300Y-93687900D03*
X121310400Y-93992700D03*
X102209600Y-91998800D03*
X99377500Y-78917800D03*
X102730300Y-91313000D03*
X100520500Y-79209900D03*
X103784400Y-98526600D03*
X96316800Y-73634600D03*
X96151700Y-72199500D03*
X104355900Y-99225100D03*
X111055150Y-102749350D03*
X110566200Y-103403400D03*
X111086900Y-104051100D03*
X110591600Y-104711500D03*
X111099600Y-105384600D03*
X110617000Y-106057700D03*
X139280900Y-74764900D03*
X137185400Y-79108300D03*
X119075200Y-76911200D03*
X118999000Y-79082900D03*
X140030200Y-75387200D03*
X137693400Y-79895700D03*
X120002300Y-76860400D03*
X119634000Y-79908400D03*
X131318000Y-86944200D03*
X142214600Y-74599800D03*
X132219700Y-87033100D03*
X142875000Y-75158600D03*
X143535400Y-74599800D03*
X134480300Y-90043000D03*
X144195800Y-75184000D03*
X135458200Y-90157300D03*
X143624300Y-87007700D03*
X143700500Y-89458800D03*
X144614900Y-86969600D03*
X144411700Y-88976200D03*
X142100300Y-82118200D03*
X143027400Y-82194400D03*
X122910600Y-98259900D03*
X120675400Y-96888300D03*
X121958100Y-99364800D03*
X120015000Y-97497900D03*
X114668300Y-97790000D03*
X109575600Y-70637400D03*
X104584500Y-58991500D03*
D28*
X110477300Y-97828100D02*
X109702600Y-98602800D01*
X109702600Y-98602800D02*
X109702600Y-98773300D01*
X111683800Y-97612200D02*
X111683800Y-98773300D01*
X111633000Y-97561400D02*
X111683800Y-97612200D01*
X105930700Y-89014300D02*
X105498900Y-89446100D01*
X105498900Y-89446100D02*
X104845800Y-89446100D01*
X112776000Y-82702400D02*
X112217200Y-82143600D01*
X112217200Y-82143600D02*
X112217200Y-81592100D01*
X114274600Y-82359500D02*
X114274600Y-81592100D01*
X113957100Y-82677000D02*
X114274600Y-82359500D01*
X120802400Y-91554300D02*
X122001600Y-91554300D01*
X120777000Y-91579700D02*
X120802400Y-91554300D01*
X120815100Y-89496900D02*
X122027000Y-89496900D01*
X120802400Y-89509600D02*
X120815100Y-89496900D01*
D29*
X110197900Y-84092100D02*
X110197900Y-84493100D01*
X110197900Y-84493100D02*
X111379000Y-85674200D01*
X116497100Y-91554300D02*
X119501600Y-91554300D01*
X115087400Y-90144600D02*
X116497100Y-91554300D01*
X111379000Y-85674200D02*
X111379000Y-86360000D01*
X111683800Y-96273300D02*
X111683800Y-95592900D01*
X111683800Y-95592900D02*
X113601500Y-93675200D01*
X117380700Y-93675200D02*
X119501600Y-91554300D01*
X113601500Y-93675200D02*
X117380700Y-93675200D01*
D28*
X111683800Y-94513400D02*
X111683800Y-96273300D01*
X111671100Y-94500700D02*
X111683800Y-94513400D01*
X110197900Y-85623400D02*
X110197900Y-84092100D01*
X117894100Y-91554300D02*
X119501600Y-91554300D01*
X117881400Y-91567000D02*
X117894100Y-91554300D01*
X114274600Y-85064600D02*
X114274600Y-84092100D01*
X113792000Y-85547200D02*
X114274600Y-85064600D01*
D30*
X133807200Y-58293000D02*
X135813800Y-58293000D01*
X136702800Y-59182000D02*
X136702800Y-61772800D01*
X135813800Y-58293000D02*
X136702800Y-59182000D01*
D28*
X96227900Y-66149400D02*
X94615000Y-66149400D01*
X94615000Y-66149400D02*
X94551500Y-66085900D01*
D29*
X113766600Y-86537800D02*
X114858800Y-86537800D01*
X129768600Y-73456800D02*
X131724400Y-73456800D01*
X127342900Y-75882500D02*
X129768600Y-73456800D01*
X118529100Y-75882500D02*
X127342900Y-75882500D01*
X115671600Y-78740000D02*
X118529100Y-75882500D01*
X115671600Y-85725000D02*
X115671600Y-78740000D01*
X114858800Y-86537800D02*
X115671600Y-85725000D01*
D31*
X109855000Y-121140400D02*
X107886500Y-121140400D01*
X107886500Y-121140400D02*
X105046900Y-123980000D01*
X105046900Y-123980000D02*
X101275800Y-123980000D01*
D29*
X120675400Y-103779500D02*
X121302600Y-103779500D01*
X124421900Y-84810600D02*
X124317600Y-84706300D01*
X124421900Y-98120200D02*
X124421900Y-84810600D01*
X122123200Y-100418900D02*
X124421900Y-98120200D01*
X121302600Y-103779500D02*
X122237500Y-102844600D01*
X120675400Y-103779500D02*
X119054700Y-103779500D01*
X118453900Y-104380300D02*
X117297200Y-104380300D01*
X119054700Y-103779500D02*
X118453900Y-104380300D01*
D31*
X101275800Y-123980000D02*
X99176900Y-123980000D01*
X91859100Y-106845100D02*
X85191600Y-106845100D01*
X95123000Y-110109000D02*
X91859100Y-106845100D01*
X95123000Y-119926100D02*
X95123000Y-110109000D01*
X99176900Y-123980000D02*
X95123000Y-119926100D01*
D29*
X107345800Y-89446100D02*
X107899200Y-89446100D01*
X107899200Y-89446100D02*
X110261400Y-87083900D01*
X113220500Y-87083900D02*
X113766600Y-86537800D01*
X110261400Y-87083900D02*
X113220500Y-87083900D01*
X112217200Y-84092100D02*
X112217200Y-84658200D01*
X112217200Y-84658200D02*
X113055400Y-85496400D01*
X113055400Y-85826600D02*
X113766600Y-86537800D01*
X113055400Y-85496400D02*
X113055400Y-85826600D01*
X109702600Y-96273300D02*
X109544800Y-96273300D01*
X109544800Y-96273300D02*
X109054900Y-95783400D01*
X118795800Y-88569800D02*
X119527000Y-89301000D01*
X114668300Y-88569800D02*
X118795800Y-88569800D01*
X109054900Y-94183200D02*
X114668300Y-88569800D01*
X109054900Y-95783400D02*
X109054900Y-94183200D01*
X119527000Y-89301000D02*
X119527000Y-89496900D01*
X131724400Y-73456800D02*
X131406900Y-73456800D01*
X131406900Y-73456800D02*
X125349000Y-79514700D01*
X125349000Y-79514700D02*
X125349000Y-83674900D01*
X125349000Y-83674900D02*
X124317600Y-84706300D01*
X124317600Y-84706300D02*
X119527000Y-89496900D01*
D31*
X87388700Y-110058200D02*
X85191600Y-107861100D01*
X87007700Y-69964300D02*
X88468200Y-69964300D01*
X85242400Y-71729600D02*
X87007700Y-69964300D01*
X85242400Y-102552500D02*
X85242400Y-71729600D01*
X85191600Y-102603300D02*
X85242400Y-102552500D01*
X85191600Y-107861100D02*
X85191600Y-106845100D01*
X85191600Y-106845100D02*
X85191600Y-102603300D01*
X87388700Y-73520300D02*
X87388700Y-71043800D01*
X87388700Y-71043800D02*
X88468200Y-69964300D01*
X89877900Y-66319400D02*
X92717800Y-66319400D01*
X92717800Y-66319400D02*
X92900500Y-66136700D01*
X92900500Y-66136700D02*
X96278700Y-66136700D01*
X96278700Y-66136700D02*
X96342200Y-66200200D01*
X96342200Y-66200200D02*
X98018600Y-66200200D01*
X89877900Y-66319400D02*
X87337900Y-66319400D01*
X131724400Y-73456800D02*
X122351800Y-73456800D01*
X122351800Y-73456800D02*
X120980200Y-74828400D01*
X120980200Y-74828400D02*
X102489000Y-74828400D01*
X102489000Y-74828400D02*
X97624900Y-69964300D01*
X97624900Y-69964300D02*
X88468200Y-69964300D01*
X87337900Y-68834000D02*
X87337900Y-66319400D01*
X88468200Y-69964300D02*
X87337900Y-68834000D01*
D28*
X109702600Y-96273300D02*
X109702600Y-94970600D01*
X109702600Y-94970600D02*
X110159800Y-94513400D01*
X119527000Y-89496900D02*
X117894100Y-89496900D01*
D31*
X147358100Y-73037700D02*
X148691600Y-73037700D01*
X149618700Y-99987100D02*
X147294600Y-102311200D01*
X149618700Y-73964800D02*
X149618700Y-99987100D01*
X148691600Y-73037700D02*
X149618700Y-73964800D01*
X147523200Y-43484800D02*
X149009100Y-43484800D01*
X149707600Y-70688200D02*
X147358100Y-73037700D01*
X149707600Y-44183300D02*
X149707600Y-70688200D01*
X149009100Y-43484800D02*
X149707600Y-44183300D01*
X131724400Y-73456800D02*
X142913100Y-73456800D01*
X142913100Y-73456800D02*
X143332200Y-73037700D01*
X143332200Y-73037700D02*
X147358100Y-73037700D01*
D28*
X108877100Y-89446100D02*
X107345800Y-89446100D01*
X109016800Y-89306400D02*
X108877100Y-89446100D01*
X112217200Y-85572600D02*
X112217200Y-84092100D01*
X112293400Y-85648800D02*
X112217200Y-85572600D01*
D29*
X111945600Y-68961000D02*
X111945600Y-70980800D01*
X111945600Y-70980800D02*
X112110200Y-71145400D01*
X111812600Y-66939200D02*
X111812600Y-68828000D01*
X111812600Y-68828000D02*
X111945600Y-68961000D01*
D31*
X114610200Y-71145400D02*
X114610200Y-69870000D01*
X115212600Y-69267600D02*
X115212600Y-65989200D01*
X114610200Y-69870000D02*
X115212600Y-69267600D01*
X136702800Y-69392800D02*
X120980200Y-69392800D01*
X117576600Y-65989200D02*
X115212600Y-65989200D01*
X120980200Y-69392800D02*
X117576600Y-65989200D01*
D28*
X105288400Y-63443800D02*
X105288400Y-64833500D01*
X105460800Y-63271400D02*
X105288400Y-63443800D01*
X105105200Y-55994300D02*
X105105200Y-56794400D01*
X105638600Y-55250400D02*
X105638600Y-55460900D01*
X105638600Y-55460900D02*
X105105200Y-55994300D01*
D29*
X112953800Y-52654200D02*
X110304400Y-52654200D01*
X110304400Y-52654200D02*
X110109000Y-52849600D01*
D28*
X106768900Y-57988200D02*
X105740200Y-57988200D01*
X107061000Y-57696100D02*
X106768900Y-57988200D01*
X107670600Y-56057800D02*
X107670600Y-55275800D01*
X105740200Y-57988200D02*
X107670600Y-56057800D01*
X105740200Y-59232800D02*
X105740200Y-57988200D01*
D32*
X129895600Y-53492400D02*
X129895600Y-54584600D01*
X129895600Y-54584600D02*
X126187200Y-58293000D01*
D29*
X111812600Y-63654200D02*
X111812600Y-65039200D01*
X111671100Y-63512700D02*
X111812600Y-63654200D01*
D28*
X130530600Y-91922600D02*
X130530600Y-86639400D01*
X133883400Y-95275400D02*
X130530600Y-91922600D01*
X133883400Y-100418900D02*
X133883400Y-95275400D01*
X133997700Y-100533200D02*
X133883400Y-100418900D01*
X141338300Y-75361800D02*
X141427200Y-75361800D01*
X130530600Y-86347300D02*
X132638800Y-84239100D01*
X132638800Y-84239100D02*
X135204200Y-84239100D01*
X135204200Y-84239100D02*
X141325600Y-78117700D01*
X141325600Y-78117700D02*
X141325600Y-75361800D01*
X141325600Y-75361800D02*
X141338300Y-75361800D01*
X130530600Y-86639400D02*
X130530600Y-86347300D01*
X141427200Y-75361800D02*
X141490700Y-75298300D01*
X101275800Y-118900000D02*
X101914900Y-118900000D01*
X101914900Y-118900000D02*
X103771700Y-117043200D01*
X103771700Y-117043200D02*
X109308900Y-117043200D01*
X109308900Y-117043200D02*
X109855000Y-117589300D01*
X109855000Y-117589300D02*
X109855000Y-118940400D01*
X129781300Y-92176600D02*
X129781300Y-86169500D01*
X133235700Y-95631000D02*
X129781300Y-92176600D01*
X133235700Y-100825300D02*
X133235700Y-95631000D01*
X133604000Y-101193600D02*
X133235700Y-100825300D01*
X134620000Y-101193600D02*
X133604000Y-101193600D01*
X134696200Y-101269800D02*
X134620000Y-101193600D01*
X129781300Y-86169500D02*
X129781300Y-86144100D01*
X129781300Y-86144100D02*
X132384800Y-83540600D01*
X132384800Y-83540600D02*
X135064500Y-83540600D01*
X135064500Y-83540600D02*
X140741400Y-77863700D01*
X140741400Y-77863700D02*
X140741400Y-74714100D01*
X101275800Y-121440000D02*
X102219700Y-121440000D01*
X102219700Y-121440000D02*
X104757400Y-118902300D01*
X104757400Y-118902300D02*
X107848400Y-118902300D01*
X93802200Y-80759300D02*
X93802200Y-79375000D01*
X96621600Y-83578700D02*
X93802200Y-80759300D01*
X103098600Y-95656400D02*
X103098600Y-96964500D01*
X102819200Y-95377000D02*
X103098600Y-95656400D01*
X99021900Y-79514700D02*
X98742500Y-79235300D01*
X104013000Y-97878900D02*
X103098600Y-96964500D01*
X103098600Y-96964500D02*
X99098100Y-92964000D01*
X99098100Y-92964000D02*
X99098100Y-79590900D01*
X99098100Y-79590900D02*
X99021900Y-79514700D01*
X104444800Y-97878900D02*
X104013000Y-97878900D01*
X98742500Y-79235300D02*
X95605600Y-76098400D01*
X92925900Y-63911300D02*
X90009800Y-63911300D01*
X90009800Y-63911300D02*
X89877900Y-63779400D01*
X100253800Y-110363000D02*
X105105200Y-105511600D01*
X105105200Y-105511600D02*
X105105200Y-95834200D01*
X105105200Y-95834200D02*
X105156000Y-95783400D01*
X123177300Y-93687900D02*
X122872500Y-93992700D01*
X122872500Y-93992700D02*
X121310400Y-93992700D01*
X101384100Y-91998800D02*
X99695000Y-90309700D01*
X99695000Y-90309700D02*
X99695000Y-79514700D01*
X102209600Y-91998800D02*
X101384100Y-91998800D01*
X99695000Y-79235300D02*
X99695000Y-79514700D01*
X99377500Y-78917800D02*
X99695000Y-79235300D01*
X94551500Y-63885900D02*
X94551500Y-62953900D01*
X92837000Y-61239400D02*
X89877900Y-61239400D01*
X94551500Y-62953900D02*
X92837000Y-61239400D01*
X101650800Y-91313000D02*
X100469700Y-90131900D01*
X100469700Y-90131900D02*
X100469700Y-79400400D01*
X102730300Y-91313000D02*
X101650800Y-91313000D01*
X100469700Y-79260700D02*
X100469700Y-79400400D01*
X100520500Y-79209900D02*
X100469700Y-79260700D01*
X96227900Y-63949400D02*
X96227900Y-63119000D01*
X91808300Y-58699400D02*
X89877900Y-58699400D01*
X96227900Y-63119000D02*
X91808300Y-58699400D01*
X98234500Y-79514700D02*
X98221800Y-79514700D01*
X103670100Y-98526600D02*
X98463100Y-93319600D01*
X98463100Y-93319600D02*
X98463100Y-79743300D01*
X98348800Y-79629000D02*
X98234500Y-79514700D01*
X98463100Y-79743300D02*
X98348800Y-79629000D01*
X103784400Y-98526600D02*
X103670100Y-98526600D01*
X94881700Y-75069700D02*
X96316800Y-73634600D01*
X94881700Y-76288900D02*
X94881700Y-75069700D01*
X95313500Y-76720700D02*
X94881700Y-76288900D01*
X95427800Y-76720700D02*
X95313500Y-76720700D01*
X98221800Y-79514700D02*
X95427800Y-76720700D01*
X89877900Y-53619400D02*
X89877900Y-56159400D01*
X98018600Y-64000200D02*
X98018600Y-62852300D01*
X91325700Y-56159400D02*
X89877900Y-56159400D01*
X98018600Y-62852300D02*
X91325700Y-56159400D01*
X97237550Y-79292450D02*
X97047050Y-79292450D01*
X94018100Y-74333100D02*
X96151700Y-72199500D01*
X94018100Y-76263500D02*
X94018100Y-74333100D01*
X97047050Y-79292450D02*
X94018100Y-76263500D01*
X104355900Y-99225100D02*
X103187500Y-99225100D01*
X97726500Y-79781400D02*
X97237550Y-79292450D01*
X97237550Y-79292450D02*
X97231200Y-79286100D01*
X97726500Y-93764100D02*
X97726500Y-79781400D01*
X103187500Y-99225100D02*
X97726500Y-93764100D01*
X147294600Y-104851200D02*
X139446000Y-104851200D01*
X112642650Y-102749350D02*
X111055150Y-102749350D01*
X120484900Y-110591600D02*
X112642650Y-102749350D01*
X133705600Y-110591600D02*
X120484900Y-110591600D01*
X139446000Y-104851200D02*
X133705600Y-110591600D01*
X111061500Y-102730300D02*
X111061500Y-102755700D01*
X111061500Y-102755700D02*
X111055150Y-102749350D01*
X147294600Y-107391200D02*
X138023600Y-107391200D01*
X112458500Y-103403400D02*
X110566200Y-103403400D01*
X120256300Y-111201200D02*
X112458500Y-103403400D01*
X134213600Y-111201200D02*
X120256300Y-111201200D01*
X138023600Y-107391200D02*
X134213600Y-111201200D01*
X147294600Y-109931200D02*
X136474200Y-109931200D01*
X112318800Y-104051100D02*
X111086900Y-104051100D01*
X120078500Y-111810800D02*
X112318800Y-104051100D01*
X134594600Y-111810800D02*
X120078500Y-111810800D01*
X136474200Y-109931200D02*
X134594600Y-111810800D01*
X147294600Y-112471200D02*
X119951500Y-112471200D01*
X112191800Y-104711500D02*
X110591600Y-104711500D01*
X119951500Y-112471200D02*
X112191800Y-104711500D01*
X147294600Y-115011200D02*
X136639300Y-115011200D01*
X112064800Y-105384600D02*
X111099600Y-105384600D01*
X119837200Y-113157000D02*
X112064800Y-105384600D01*
X134785100Y-113157000D02*
X119837200Y-113157000D01*
X136639300Y-115011200D02*
X134785100Y-113157000D01*
X147294600Y-117551200D02*
X138315700Y-117551200D01*
X111937800Y-106057700D02*
X110617000Y-106057700D01*
X119621300Y-113741200D02*
X111937800Y-106057700D01*
X134505700Y-113741200D02*
X119621300Y-113741200D01*
X138315700Y-117551200D02*
X134505700Y-113741200D01*
X139280900Y-77012800D02*
X139280900Y-74764900D01*
X137185400Y-79108300D02*
X139280900Y-77012800D01*
X119075200Y-79006700D02*
X119075200Y-76911200D01*
X118999000Y-79082900D02*
X119075200Y-79006700D01*
X140030200Y-77558900D02*
X140030200Y-75387200D01*
X137693400Y-79895700D02*
X140030200Y-77558900D01*
X120002300Y-79540100D02*
X120002300Y-76860400D01*
X119634000Y-79908400D02*
X120002300Y-79540100D01*
X131318000Y-86944200D02*
X131318000Y-86525100D01*
X142214600Y-78155800D02*
X142214600Y-74599800D01*
X135597900Y-84772500D02*
X142214600Y-78155800D01*
X133070600Y-84772500D02*
X135597900Y-84772500D01*
X131318000Y-86525100D02*
X133070600Y-84772500D01*
X132219700Y-87033100D02*
X132219700Y-86626700D01*
X142875000Y-78384400D02*
X142875000Y-75158600D01*
X135890000Y-85369400D02*
X142875000Y-78384400D01*
X133477000Y-85369400D02*
X135890000Y-85369400D01*
X132219700Y-86626700D02*
X133477000Y-85369400D01*
X143548100Y-74612500D02*
X143535400Y-74599800D01*
X143548100Y-78549500D02*
X143548100Y-74612500D01*
X143459200Y-78638400D02*
X143548100Y-78549500D01*
X136080500Y-86017100D02*
X143459200Y-78638400D01*
X136080500Y-88442800D02*
X136080500Y-86017100D01*
X134480300Y-90043000D02*
X136080500Y-88442800D01*
X144106900Y-75272900D02*
X144195800Y-75184000D01*
X144106900Y-78854300D02*
X144106900Y-75272900D01*
X136715500Y-86245700D02*
X144106900Y-78854300D01*
X136715500Y-88900000D02*
X136715500Y-86245700D01*
X135458200Y-90157300D02*
X136715500Y-88900000D01*
X143624300Y-89382600D02*
X143624300Y-87007700D01*
X143700500Y-89458800D02*
X143624300Y-89382600D01*
X144614900Y-88773000D02*
X144614900Y-86969600D01*
X144411700Y-88976200D02*
X144614900Y-88773000D01*
X147358100Y-80657700D02*
X143586200Y-80657700D01*
X142125700Y-82118200D02*
X142100300Y-82118200D01*
X143586200Y-80657700D02*
X142125700Y-82118200D01*
X147358100Y-83197700D02*
X144030700Y-83197700D01*
X144030700Y-83197700D02*
X143027400Y-82194400D01*
X122047000Y-98259900D02*
X122910600Y-98259900D01*
X120675400Y-96888300D02*
X122047000Y-98259900D01*
X121881900Y-99364800D02*
X121958100Y-99364800D01*
X120015000Y-97497900D02*
X121881900Y-99364800D01*
X118247200Y-99959200D02*
X118247200Y-101080300D01*
X117551200Y-99263200D02*
X118247200Y-99959200D01*
X115417600Y-99263200D02*
X117551200Y-99263200D01*
X114617500Y-98463100D02*
X115417600Y-99263200D01*
X114617500Y-97840800D02*
X114617500Y-98463100D01*
X114668300Y-97790000D02*
X114617500Y-97840800D01*
X124536200Y-101460300D02*
X131036200Y-101460300D01*
X120675400Y-101579500D02*
X124417000Y-101579500D01*
X124417000Y-101579500D02*
X124536200Y-101460300D01*
X118247200Y-101080300D02*
X120176200Y-101080300D01*
X120176200Y-101080300D02*
X120675400Y-101579500D01*
X109745600Y-70467400D02*
X109745600Y-68961000D01*
X109575600Y-70637400D02*
X109745600Y-70467400D01*
X110109000Y-55049600D02*
X110109000Y-57365900D01*
X105498900Y-59905900D02*
X104584500Y-58991500D01*
X107569000Y-59905900D02*
X105498900Y-59905900D01*
X110109000Y-57365900D02*
X107569000Y-59905900D01*
D33*
G36*
X101781893Y-75535507D02*
X102106317Y-75752280D01*
X102489000Y-75828400D01*
X117451829Y-75828400D01*
X115105915Y-78174315D01*
X114932496Y-78433853D01*
X114871600Y-78740000D01*
X114871600Y-80234100D01*
X114580600Y-80234100D01*
X114428600Y-80386100D01*
X114428600Y-81438100D01*
X114448600Y-81438100D01*
X114448600Y-81746100D01*
X114428600Y-81746100D01*
X114428600Y-81766100D01*
X114120600Y-81766100D01*
X114120600Y-81746100D01*
X112371200Y-81746100D01*
X112371200Y-81766100D01*
X112063200Y-81766100D01*
X112063200Y-81746100D01*
X110351900Y-81746100D01*
X110351900Y-81766100D01*
X110043900Y-81766100D01*
X110043900Y-81746100D01*
X109116900Y-81746100D01*
X108964900Y-81898100D01*
X108964900Y-82463039D01*
X109057463Y-82686505D01*
X109224351Y-82853393D01*
X109146342Y-82903590D01*
X109009344Y-83104093D01*
X108961146Y-83342100D01*
X108961146Y-84842100D01*
X109002983Y-85064446D01*
X109134390Y-85268658D01*
X109318470Y-85394434D01*
X109298057Y-85443594D01*
X109297744Y-85801636D01*
X109434472Y-86132543D01*
X109687425Y-86385938D01*
X109814630Y-86438758D01*
X109695714Y-86518215D01*
X108004584Y-88209346D01*
X106595800Y-88209346D01*
X106373454Y-88251183D01*
X106169242Y-88382590D01*
X106107498Y-88472956D01*
X105940205Y-88305663D01*
X105716739Y-88213100D01*
X105151800Y-88213100D01*
X104999800Y-88365100D01*
X104999800Y-89292100D01*
X105019800Y-89292100D01*
X105019800Y-89600100D01*
X104999800Y-89600100D01*
X104999800Y-90527100D01*
X105151800Y-90679100D01*
X105716739Y-90679100D01*
X105940205Y-90586537D01*
X106107093Y-90419649D01*
X106157290Y-90497658D01*
X106357793Y-90634656D01*
X106595800Y-90682854D01*
X108095800Y-90682854D01*
X108318146Y-90641017D01*
X108522358Y-90509610D01*
X108659356Y-90309107D01*
X108687303Y-90171100D01*
X108752360Y-90171100D01*
X108836994Y-90206243D01*
X109195036Y-90206556D01*
X109525943Y-90069828D01*
X109779338Y-89816875D01*
X109916643Y-89486206D01*
X109916956Y-89128164D01*
X109780228Y-88797257D01*
X109729865Y-88746806D01*
X110592771Y-87883900D01*
X113220500Y-87883900D01*
X113526647Y-87823004D01*
X113786185Y-87649585D01*
X114097970Y-87337800D01*
X114858800Y-87337800D01*
X115164947Y-87276904D01*
X115424485Y-87103485D01*
X116237286Y-86290685D01*
X116410704Y-86031147D01*
X116471600Y-85725000D01*
X116471600Y-79071370D01*
X118256470Y-77286501D01*
X118311772Y-77420343D01*
X118350200Y-77458838D01*
X118350200Y-78458885D01*
X118236462Y-78572425D01*
X118099157Y-78903094D01*
X118098844Y-79261136D01*
X118235572Y-79592043D01*
X118488525Y-79845438D01*
X118733966Y-79947353D01*
X118733844Y-80086636D01*
X118870572Y-80417543D01*
X119123525Y-80670938D01*
X119454194Y-80808243D01*
X119812236Y-80808556D01*
X120143143Y-80671828D01*
X120396538Y-80418875D01*
X120533843Y-80088206D01*
X120533899Y-80024398D01*
X120672113Y-79817546D01*
X120727300Y-79540100D01*
X120727300Y-77408348D01*
X120764838Y-77370875D01*
X120902143Y-77040206D01*
X120902456Y-76682500D01*
X127049830Y-76682500D01*
X124783315Y-78949015D01*
X124609896Y-79208553D01*
X124549000Y-79514700D01*
X124549000Y-83343529D01*
X123751917Y-84140613D01*
X123751914Y-84140615D01*
X119632384Y-88260146D01*
X119617516Y-88260146D01*
X119361485Y-88004115D01*
X119101947Y-87830696D01*
X119063276Y-87823004D01*
X118795800Y-87769800D01*
X114668300Y-87769800D01*
X114400824Y-87823004D01*
X114362153Y-87830696D01*
X114102614Y-88004115D01*
X108489215Y-93617515D01*
X108315796Y-93877053D01*
X108254900Y-94183200D01*
X108254900Y-95783400D01*
X108308268Y-96051700D01*
X108315796Y-96089547D01*
X108465846Y-96314111D01*
X108465846Y-97023300D01*
X108507683Y-97245646D01*
X108639090Y-97449858D01*
X108729456Y-97511602D01*
X108562163Y-97678895D01*
X108469600Y-97902361D01*
X108469600Y-98467300D01*
X108621600Y-98619300D01*
X109548600Y-98619300D01*
X109548600Y-98599300D01*
X109856600Y-98599300D01*
X109856600Y-98619300D01*
X111529800Y-98619300D01*
X111529800Y-98599300D01*
X111837800Y-98599300D01*
X111837800Y-98619300D01*
X112764800Y-98619300D01*
X112916800Y-98467300D01*
X112916800Y-97902361D01*
X112824237Y-97678895D01*
X112657349Y-97512007D01*
X112735358Y-97461810D01*
X112872356Y-97261307D01*
X112920554Y-97023300D01*
X112920554Y-95523300D01*
X112914887Y-95493183D01*
X113932871Y-94475200D01*
X117380700Y-94475200D01*
X117686847Y-94414304D01*
X117946385Y-94240885D01*
X119396217Y-92791054D01*
X120251600Y-92791054D01*
X120473946Y-92749217D01*
X120678158Y-92617810D01*
X120739902Y-92527444D01*
X120907195Y-92694737D01*
X121130661Y-92787300D01*
X121695600Y-92787300D01*
X121847600Y-92635300D01*
X121847600Y-91708300D01*
X122155600Y-91708300D01*
X122155600Y-92635300D01*
X122307600Y-92787300D01*
X122872539Y-92787300D01*
X123096005Y-92694737D01*
X123267038Y-92523704D01*
X123359600Y-92300238D01*
X123359600Y-91860300D01*
X123207600Y-91708300D01*
X122155600Y-91708300D01*
X121847600Y-91708300D01*
X121827600Y-91708300D01*
X121827600Y-91400300D01*
X121847600Y-91400300D01*
X121847600Y-90603300D01*
X121873000Y-90577900D01*
X121873000Y-90473300D01*
X122155600Y-90473300D01*
X122155600Y-91400300D01*
X123207600Y-91400300D01*
X123359600Y-91248300D01*
X123359600Y-90808362D01*
X123267038Y-90584896D01*
X123220442Y-90538300D01*
X123292438Y-90466304D01*
X123385000Y-90242838D01*
X123385000Y-89802900D01*
X123233000Y-89650900D01*
X122181000Y-89650900D01*
X122181000Y-90447900D01*
X122155600Y-90473300D01*
X121873000Y-90473300D01*
X121873000Y-89650900D01*
X121853000Y-89650900D01*
X121853000Y-89342900D01*
X121873000Y-89342900D01*
X121873000Y-88415900D01*
X122181000Y-88415900D01*
X122181000Y-89342900D01*
X123233000Y-89342900D01*
X123385000Y-89190900D01*
X123385000Y-88750962D01*
X123292438Y-88527496D01*
X123121405Y-88356463D01*
X122897939Y-88263900D01*
X122333000Y-88263900D01*
X122181000Y-88415900D01*
X121873000Y-88415900D01*
X121806185Y-88349085D01*
X123621900Y-86533371D01*
X123621900Y-92898008D01*
X123357106Y-92788057D01*
X122999064Y-92787744D01*
X122668157Y-92924472D01*
X122414762Y-93177425D01*
X122377277Y-93267700D01*
X121858348Y-93267700D01*
X121820875Y-93230162D01*
X121490206Y-93092857D01*
X121132164Y-93092544D01*
X120801257Y-93229272D01*
X120547862Y-93482225D01*
X120410557Y-93812894D01*
X120410244Y-94170936D01*
X120546972Y-94501843D01*
X120799925Y-94755238D01*
X121130594Y-94892543D01*
X121488636Y-94892856D01*
X121819543Y-94756128D01*
X121858038Y-94717700D01*
X122872500Y-94717700D01*
X123103915Y-94671669D01*
X123149946Y-94662513D01*
X123261501Y-94587974D01*
X123355536Y-94588056D01*
X123621900Y-94477997D01*
X123621900Y-97698538D01*
X123421075Y-97497362D01*
X123090406Y-97360057D01*
X122732364Y-97359744D01*
X122401457Y-97496472D01*
X122362962Y-97534900D01*
X122347305Y-97534900D01*
X121575510Y-96763105D01*
X121575556Y-96710064D01*
X121438828Y-96379157D01*
X121185875Y-96125762D01*
X120855206Y-95988457D01*
X120497164Y-95988144D01*
X120166257Y-96124872D01*
X119912862Y-96377825D01*
X119818392Y-96605335D01*
X119505857Y-96734472D01*
X119252462Y-96987425D01*
X119115157Y-97318094D01*
X119114887Y-97626623D01*
X118909664Y-97626444D01*
X118578757Y-97763172D01*
X118325362Y-98016125D01*
X118188057Y-98346794D01*
X118187744Y-98704836D01*
X118307168Y-98993863D01*
X118063852Y-98750548D01*
X117828646Y-98593387D01*
X117782615Y-98584231D01*
X117551200Y-98538200D01*
X115717905Y-98538200D01*
X115445315Y-98265611D01*
X115568143Y-97969806D01*
X115568456Y-97611764D01*
X115431728Y-97280857D01*
X115178775Y-97027462D01*
X114848106Y-96890157D01*
X114490064Y-96889844D01*
X114159157Y-97026572D01*
X113905762Y-97279525D01*
X113768457Y-97610194D01*
X113768144Y-97968236D01*
X113892500Y-98269200D01*
X113892500Y-98463100D01*
X113937602Y-98689843D01*
X113947687Y-98740546D01*
X114104848Y-98975752D01*
X114904947Y-99775852D01*
X114994808Y-99835895D01*
X115140155Y-99933013D01*
X115372400Y-99979209D01*
X115339200Y-100059361D01*
X115339200Y-100774300D01*
X115491200Y-100926300D01*
X116193200Y-100926300D01*
X116193200Y-100906300D01*
X116501200Y-100906300D01*
X116501200Y-100926300D01*
X116521200Y-100926300D01*
X116521200Y-101234300D01*
X116501200Y-101234300D01*
X116501200Y-102436300D01*
X116653200Y-102588300D01*
X116868138Y-102588300D01*
X117091604Y-102495738D01*
X117262637Y-102324705D01*
X117299132Y-102236600D01*
X117408690Y-102406858D01*
X117609193Y-102543856D01*
X117847200Y-102592054D01*
X118647200Y-102592054D01*
X118869546Y-102550217D01*
X119073758Y-102418810D01*
X119210756Y-102218307D01*
X119258954Y-101980300D01*
X119258954Y-101805300D01*
X119613646Y-101805300D01*
X119613646Y-102179500D01*
X119655483Y-102401846D01*
X119786890Y-102606058D01*
X119894388Y-102679508D01*
X119798842Y-102740990D01*
X119661844Y-102941493D01*
X119654147Y-102979500D01*
X119054700Y-102979500D01*
X118748553Y-103040396D01*
X118644597Y-103109858D01*
X118489015Y-103213814D01*
X118295267Y-103407562D01*
X118267117Y-103257954D01*
X118135710Y-103053742D01*
X117935207Y-102916744D01*
X117697200Y-102868546D01*
X116897200Y-102868546D01*
X116674854Y-102910383D01*
X116470642Y-103041790D01*
X116333644Y-103242293D01*
X116285446Y-103480300D01*
X116285446Y-105280300D01*
X116305504Y-105386900D01*
X113155302Y-102236698D01*
X112920096Y-102079537D01*
X112874065Y-102070381D01*
X112642650Y-102024350D01*
X111603098Y-102024350D01*
X111565625Y-101986812D01*
X111234956Y-101849507D01*
X110876914Y-101849194D01*
X110546007Y-101985922D01*
X110292612Y-102238875D01*
X110155307Y-102569544D01*
X110155281Y-102599387D01*
X110057057Y-102639972D01*
X109803662Y-102892925D01*
X109666357Y-103223594D01*
X109666044Y-103581636D01*
X109802772Y-103912543D01*
X109960135Y-104070181D01*
X109829062Y-104201025D01*
X109691757Y-104531694D01*
X109691444Y-104889736D01*
X109828172Y-105220643D01*
X110004585Y-105397364D01*
X109854462Y-105547225D01*
X109717157Y-105877894D01*
X109716844Y-106235936D01*
X109853572Y-106566843D01*
X110106525Y-106820238D01*
X110437194Y-106957543D01*
X110795236Y-106957856D01*
X111126143Y-106821128D01*
X111164638Y-106782700D01*
X111637496Y-106782700D01*
X119108648Y-114253852D01*
X119343854Y-114411013D01*
X119389885Y-114420169D01*
X119621300Y-114466200D01*
X134205396Y-114466200D01*
X137803048Y-118063853D01*
X138038254Y-118221013D01*
X138315700Y-118276200D01*
X146040231Y-118276200D01*
X146240888Y-118576505D01*
X146619732Y-118829640D01*
X146405746Y-118935459D01*
X146031123Y-119363584D01*
X145886697Y-119712290D01*
X145997711Y-119937200D01*
X147140600Y-119937200D01*
X147140600Y-119917200D01*
X147448600Y-119917200D01*
X147448600Y-119937200D01*
X148591489Y-119937200D01*
X148702503Y-119712290D01*
X148558077Y-119363584D01*
X148183454Y-118935459D01*
X147969468Y-118829640D01*
X148348312Y-118576505D01*
X148662632Y-118106091D01*
X148773007Y-117551200D01*
X148662632Y-116996309D01*
X148348312Y-116525895D01*
X147982099Y-116281200D01*
X148348312Y-116036505D01*
X148662632Y-115566091D01*
X148773007Y-115011200D01*
X148662632Y-114456309D01*
X148348312Y-113985895D01*
X147982099Y-113741200D01*
X148348312Y-113496505D01*
X148662632Y-113026091D01*
X148773007Y-112471200D01*
X148662632Y-111916309D01*
X148348312Y-111445895D01*
X147982099Y-111201200D01*
X148348312Y-110956505D01*
X148662632Y-110486091D01*
X148773007Y-109931200D01*
X148662632Y-109376309D01*
X148348312Y-108905895D01*
X147982099Y-108661200D01*
X148348312Y-108416505D01*
X148662632Y-107946091D01*
X148773007Y-107391200D01*
X148662632Y-106836309D01*
X148348312Y-106365895D01*
X147982099Y-106121200D01*
X148348312Y-105876505D01*
X148662632Y-105406091D01*
X148773007Y-104851200D01*
X148662632Y-104296309D01*
X148348312Y-103825895D01*
X148241728Y-103754678D01*
X148366946Y-103731117D01*
X148571158Y-103599710D01*
X148708156Y-103399207D01*
X148756354Y-103161200D01*
X148756354Y-102263660D01*
X149654900Y-101365114D01*
X149654900Y-132421000D01*
X85282400Y-132421000D01*
X85282400Y-130757110D01*
X85980797Y-130757110D01*
X86125223Y-131105816D01*
X86499846Y-131533941D01*
X87009789Y-131786115D01*
X87234700Y-131676056D01*
X87234700Y-130532200D01*
X87542700Y-130532200D01*
X87542700Y-131676056D01*
X87767611Y-131786115D01*
X88277554Y-131533941D01*
X88652177Y-131105816D01*
X88796603Y-130757110D01*
X88685589Y-130532200D01*
X87542700Y-130532200D01*
X87234700Y-130532200D01*
X86091811Y-130532200D01*
X85980797Y-130757110D01*
X85282400Y-130757110D01*
X85282400Y-109366114D01*
X85926946Y-110010660D01*
X85926946Y-110908200D01*
X85968783Y-111130546D01*
X86100190Y-111334758D01*
X86300693Y-111471756D01*
X86443172Y-111500609D01*
X86334988Y-111572895D01*
X86020668Y-112043309D01*
X85910293Y-112598200D01*
X86020668Y-113153091D01*
X86334988Y-113623505D01*
X86701201Y-113868200D01*
X86334988Y-114112895D01*
X86020668Y-114583309D01*
X85910293Y-115138200D01*
X86020668Y-115693091D01*
X86334988Y-116163505D01*
X86701201Y-116408200D01*
X86334988Y-116652895D01*
X86020668Y-117123309D01*
X85910293Y-117678200D01*
X86020668Y-118233091D01*
X86334988Y-118703505D01*
X86701201Y-118948200D01*
X86334988Y-119192895D01*
X86020668Y-119663309D01*
X85910293Y-120218200D01*
X86020668Y-120773091D01*
X86334988Y-121243505D01*
X86701201Y-121488200D01*
X86334988Y-121732895D01*
X86020668Y-122203309D01*
X85910293Y-122758200D01*
X86020668Y-123313091D01*
X86334988Y-123783505D01*
X86701201Y-124028200D01*
X86334988Y-124272895D01*
X86020668Y-124743309D01*
X85910293Y-125298200D01*
X86020668Y-125853091D01*
X86334988Y-126323505D01*
X86701201Y-126568200D01*
X86334988Y-126812895D01*
X86020668Y-127283309D01*
X85910293Y-127838200D01*
X86020668Y-128393091D01*
X86334988Y-128863505D01*
X86713832Y-129116640D01*
X86499846Y-129222459D01*
X86125223Y-129650584D01*
X85980797Y-129999290D01*
X86091811Y-130224200D01*
X87234700Y-130224200D01*
X87234700Y-130204200D01*
X87542700Y-130204200D01*
X87542700Y-130224200D01*
X88685589Y-130224200D01*
X88796603Y-129999290D01*
X88652177Y-129650584D01*
X88277554Y-129222459D01*
X88063568Y-129116640D01*
X88442412Y-128863505D01*
X88756732Y-128393091D01*
X88867107Y-127838200D01*
X88756732Y-127283309D01*
X88473576Y-126859535D01*
X99716498Y-126859535D01*
X99912721Y-127265290D01*
X100271241Y-127577113D01*
X100721800Y-127728000D01*
X101121800Y-127728000D01*
X101121800Y-126674000D01*
X101429800Y-126674000D01*
X101429800Y-127728000D01*
X101829800Y-127728000D01*
X102280359Y-127577113D01*
X102638879Y-127265290D01*
X102835102Y-126859535D01*
X102720510Y-126674000D01*
X101429800Y-126674000D01*
X101121800Y-126674000D01*
X99831090Y-126674000D01*
X99716498Y-126859535D01*
X88473576Y-126859535D01*
X88442412Y-126812895D01*
X88076199Y-126568200D01*
X88442412Y-126323505D01*
X88537988Y-126180465D01*
X99716498Y-126180465D01*
X99831090Y-126366000D01*
X101121800Y-126366000D01*
X101121800Y-125312000D01*
X101429800Y-125312000D01*
X101429800Y-126366000D01*
X102720510Y-126366000D01*
X102835102Y-126180465D01*
X102638879Y-125774710D01*
X102280359Y-125462887D01*
X101829800Y-125312000D01*
X101429800Y-125312000D01*
X101121800Y-125312000D01*
X100721800Y-125312000D01*
X100271241Y-125462887D01*
X99912721Y-125774710D01*
X99716498Y-126180465D01*
X88537988Y-126180465D01*
X88756732Y-125853091D01*
X88867107Y-125298200D01*
X88756732Y-124743309D01*
X88442412Y-124272895D01*
X88076199Y-124028200D01*
X88442412Y-123783505D01*
X88756732Y-123313091D01*
X88867107Y-122758200D01*
X88756732Y-122203309D01*
X88442412Y-121732895D01*
X88076199Y-121488200D01*
X88442412Y-121243505D01*
X88756732Y-120773091D01*
X88867107Y-120218200D01*
X88756732Y-119663309D01*
X88442412Y-119192895D01*
X88076199Y-118948200D01*
X88442412Y-118703505D01*
X88756732Y-118233091D01*
X88867107Y-117678200D01*
X88756732Y-117123309D01*
X88442412Y-116652895D01*
X88076199Y-116408200D01*
X88442412Y-116163505D01*
X88756732Y-115693091D01*
X88867107Y-115138200D01*
X88756732Y-114583309D01*
X88442412Y-114112895D01*
X88076199Y-113868200D01*
X88442412Y-113623505D01*
X88756732Y-113153091D01*
X88867107Y-112598200D01*
X88756732Y-112043309D01*
X88442412Y-111572895D01*
X88335828Y-111501678D01*
X88461046Y-111478117D01*
X88665258Y-111346710D01*
X88802256Y-111146207D01*
X88850454Y-110908200D01*
X88850454Y-109208200D01*
X88808617Y-108985854D01*
X88677210Y-108781642D01*
X88476707Y-108644644D01*
X88238700Y-108596446D01*
X87341160Y-108596446D01*
X86589814Y-107845100D01*
X91444886Y-107845100D01*
X94123000Y-110523214D01*
X94123000Y-119926100D01*
X94199120Y-120308784D01*
X94415893Y-120633207D01*
X98469793Y-124687107D01*
X98794217Y-124903880D01*
X99176900Y-124980000D01*
X100222620Y-124980000D01*
X100385234Y-125088655D01*
X100844454Y-125180000D01*
X101707146Y-125180000D01*
X102166366Y-125088655D01*
X102328980Y-124980000D01*
X105046900Y-124980000D01*
X105429584Y-124903880D01*
X105754007Y-124687107D01*
X108127060Y-122314054D01*
X108298400Y-122314054D01*
X108520746Y-122272217D01*
X108724958Y-122140810D01*
X108725238Y-122140400D01*
X108949400Y-122140400D01*
X108966490Y-122166958D01*
X109166993Y-122303956D01*
X109405000Y-122352154D01*
X110305000Y-122352154D01*
X110527346Y-122310317D01*
X110731558Y-122178910D01*
X110868556Y-121978407D01*
X110916754Y-121740400D01*
X110916754Y-120540400D01*
X110903529Y-120470110D01*
X145886697Y-120470110D01*
X146031123Y-120818816D01*
X146405746Y-121246941D01*
X146915689Y-121499115D01*
X147140600Y-121389056D01*
X147140600Y-120245200D01*
X147448600Y-120245200D01*
X147448600Y-121389056D01*
X147673511Y-121499115D01*
X148183454Y-121246941D01*
X148558077Y-120818816D01*
X148702503Y-120470110D01*
X148591489Y-120245200D01*
X147448600Y-120245200D01*
X147140600Y-120245200D01*
X145997711Y-120245200D01*
X145886697Y-120470110D01*
X110903529Y-120470110D01*
X110874917Y-120318054D01*
X110743510Y-120113842D01*
X110636012Y-120040392D01*
X110731558Y-119978910D01*
X110868556Y-119778407D01*
X110916754Y-119540400D01*
X110916754Y-118340400D01*
X110874917Y-118118054D01*
X110743510Y-117913842D01*
X110580000Y-117802120D01*
X110580000Y-117589300D01*
X110526562Y-117320646D01*
X110524813Y-117311854D01*
X110367652Y-117076648D01*
X109821552Y-116530548D01*
X109586346Y-116373387D01*
X109540315Y-116364231D01*
X109308900Y-116318200D01*
X103771700Y-116318200D01*
X103494254Y-116373387D01*
X103259048Y-116530547D01*
X102026143Y-117763453D01*
X101707146Y-117700000D01*
X100844454Y-117700000D01*
X100385234Y-117791345D01*
X99995926Y-118051472D01*
X99735799Y-118440780D01*
X99644454Y-118900000D01*
X99735799Y-119359220D01*
X99995926Y-119748528D01*
X100385234Y-120008655D01*
X100844454Y-120100000D01*
X101707146Y-120100000D01*
X102166366Y-120008655D01*
X102555674Y-119748528D01*
X102815801Y-119359220D01*
X102898937Y-118941267D01*
X104072005Y-117768200D01*
X107120393Y-117768200D01*
X106971842Y-117863790D01*
X106834844Y-118064293D01*
X106811959Y-118177300D01*
X104757400Y-118177300D01*
X104479954Y-118232487D01*
X104244748Y-118389647D01*
X102248303Y-120386093D01*
X102166366Y-120331345D01*
X101707146Y-120240000D01*
X100844454Y-120240000D01*
X100385234Y-120331345D01*
X99995926Y-120591472D01*
X99735799Y-120980780D01*
X99644454Y-121440000D01*
X99735799Y-121899220D01*
X99995926Y-122288528D01*
X100385234Y-122548655D01*
X100844454Y-122640000D01*
X101707146Y-122640000D01*
X102166366Y-122548655D01*
X102555674Y-122288528D01*
X102815801Y-121899220D01*
X102823254Y-121861750D01*
X105057705Y-119627300D01*
X106810166Y-119627300D01*
X106828483Y-119724646D01*
X106959890Y-119928858D01*
X107067388Y-120002308D01*
X106971842Y-120063790D01*
X106834844Y-120264293D01*
X106786646Y-120502300D01*
X106786646Y-120826040D01*
X104632686Y-122980000D01*
X102328980Y-122980000D01*
X102166366Y-122871345D01*
X101707146Y-122780000D01*
X100844454Y-122780000D01*
X100385234Y-122871345D01*
X100222620Y-122980000D01*
X99591114Y-122980000D01*
X96123000Y-119511886D01*
X96123000Y-110109005D01*
X96123001Y-110109000D01*
X96046880Y-109726316D01*
X95830107Y-109401893D01*
X92566207Y-106137993D01*
X92241784Y-105921220D01*
X91859100Y-105845100D01*
X86191600Y-105845100D01*
X86191600Y-104803773D01*
X86499846Y-105156041D01*
X87009789Y-105408215D01*
X87234700Y-105298156D01*
X87234700Y-104154300D01*
X87542700Y-104154300D01*
X87542700Y-105298156D01*
X87767611Y-105408215D01*
X88277554Y-105156041D01*
X88652177Y-104727916D01*
X88796603Y-104379210D01*
X88685589Y-104154300D01*
X87542700Y-104154300D01*
X87234700Y-104154300D01*
X87214700Y-104154300D01*
X87214700Y-103846300D01*
X87234700Y-103846300D01*
X87234700Y-103826300D01*
X87542700Y-103826300D01*
X87542700Y-103846300D01*
X88685589Y-103846300D01*
X88796603Y-103621390D01*
X88652177Y-103272684D01*
X88277554Y-102844559D01*
X88063568Y-102738740D01*
X88442412Y-102485605D01*
X88756732Y-102015191D01*
X88867107Y-101460300D01*
X88756732Y-100905409D01*
X88442412Y-100434995D01*
X88076199Y-100190300D01*
X88442412Y-99945605D01*
X88756732Y-99475191D01*
X88867107Y-98920300D01*
X88756732Y-98365409D01*
X88442412Y-97894995D01*
X88076199Y-97650300D01*
X88442412Y-97405605D01*
X88756732Y-96935191D01*
X88867107Y-96380300D01*
X88756732Y-95825409D01*
X88442412Y-95354995D01*
X88076199Y-95110300D01*
X88442412Y-94865605D01*
X88756732Y-94395191D01*
X88867107Y-93840300D01*
X88756732Y-93285409D01*
X88442412Y-92814995D01*
X88076199Y-92570300D01*
X88442412Y-92325605D01*
X88756732Y-91855191D01*
X88867107Y-91300300D01*
X88756732Y-90745409D01*
X88442412Y-90274995D01*
X88076199Y-90030300D01*
X88442412Y-89785605D01*
X88756732Y-89315191D01*
X88867107Y-88760300D01*
X88756732Y-88205409D01*
X88442412Y-87734995D01*
X88076199Y-87490300D01*
X88442412Y-87245605D01*
X88756732Y-86775191D01*
X88867107Y-86220300D01*
X88756732Y-85665409D01*
X88442412Y-85194995D01*
X88076199Y-84950300D01*
X88442412Y-84705605D01*
X88756732Y-84235191D01*
X88867107Y-83680300D01*
X88756732Y-83125409D01*
X88442412Y-82654995D01*
X88076199Y-82410300D01*
X88442412Y-82165605D01*
X88756732Y-81695191D01*
X88867107Y-81140300D01*
X88756732Y-80585409D01*
X88442412Y-80114995D01*
X88076199Y-79870300D01*
X88442412Y-79625605D01*
X88490767Y-79553236D01*
X92902044Y-79553236D01*
X93038772Y-79884143D01*
X93077200Y-79922638D01*
X93077200Y-80759300D01*
X93086998Y-80808556D01*
X93132387Y-81036746D01*
X93289548Y-81271952D01*
X95721490Y-83703895D01*
X95721444Y-83756936D01*
X95858172Y-84087843D01*
X96111125Y-84341238D01*
X96441794Y-84478543D01*
X96799836Y-84478856D01*
X97001500Y-84395530D01*
X97001500Y-93764100D01*
X97023968Y-93877053D01*
X97056687Y-94041546D01*
X97213848Y-94276752D01*
X102674847Y-99737752D01*
X102731868Y-99775852D01*
X102910055Y-99894913D01*
X103187500Y-99950100D01*
X103807952Y-99950100D01*
X103845425Y-99987638D01*
X104176094Y-100124943D01*
X104380200Y-100125121D01*
X104380200Y-105211295D01*
X100128606Y-109462890D01*
X100075564Y-109462844D01*
X99744657Y-109599572D01*
X99491262Y-109852525D01*
X99353957Y-110183194D01*
X99353644Y-110541236D01*
X99490372Y-110872143D01*
X99743325Y-111125538D01*
X100073994Y-111262843D01*
X100432036Y-111263156D01*
X100762943Y-111126428D01*
X101016338Y-110873475D01*
X101153643Y-110542806D01*
X101153691Y-110488414D01*
X105617853Y-106024252D01*
X105775013Y-105789046D01*
X105830200Y-105511600D01*
X105830200Y-101386300D01*
X115339200Y-101386300D01*
X115339200Y-102101239D01*
X115431763Y-102324705D01*
X115602796Y-102495738D01*
X115826262Y-102588300D01*
X116041200Y-102588300D01*
X116193200Y-102436300D01*
X116193200Y-101234300D01*
X115491200Y-101234300D01*
X115339200Y-101386300D01*
X105830200Y-101386300D01*
X105830200Y-99079300D01*
X108469600Y-99079300D01*
X108469600Y-99644239D01*
X108562163Y-99867705D01*
X108733196Y-100038738D01*
X108956662Y-100131300D01*
X109396600Y-100131300D01*
X109548600Y-99979300D01*
X109548600Y-98927300D01*
X109856600Y-98927300D01*
X109856600Y-99979300D01*
X110008600Y-100131300D01*
X110448538Y-100131300D01*
X110672004Y-100038738D01*
X110693200Y-100017542D01*
X110714396Y-100038738D01*
X110937862Y-100131300D01*
X111377800Y-100131300D01*
X111529800Y-99979300D01*
X111529800Y-98927300D01*
X111837800Y-98927300D01*
X111837800Y-99979300D01*
X111989800Y-100131300D01*
X112429738Y-100131300D01*
X112653204Y-100038738D01*
X112824237Y-99867705D01*
X112916800Y-99644239D01*
X112916800Y-99079300D01*
X112764800Y-98927300D01*
X111837800Y-98927300D01*
X111529800Y-98927300D01*
X109856600Y-98927300D01*
X109548600Y-98927300D01*
X108621600Y-98927300D01*
X108469600Y-99079300D01*
X105830200Y-99079300D01*
X105830200Y-96382059D01*
X105918538Y-96293875D01*
X106055843Y-95963206D01*
X106056156Y-95605164D01*
X105919428Y-95274257D01*
X105666475Y-95020862D01*
X105335806Y-94883557D01*
X104977764Y-94883244D01*
X104646857Y-95019972D01*
X104393462Y-95272925D01*
X104256157Y-95603594D01*
X104255844Y-95961636D01*
X104380200Y-96262600D01*
X104380200Y-96978843D01*
X104266564Y-96978744D01*
X104175695Y-97016290D01*
X103823600Y-96664196D01*
X103823600Y-95656400D01*
X103768413Y-95378955D01*
X103719263Y-95305397D01*
X103719356Y-95198764D01*
X103582628Y-94867857D01*
X103329675Y-94614462D01*
X102999006Y-94477157D01*
X102640964Y-94476844D01*
X102310057Y-94613572D01*
X102056662Y-94866525D01*
X102047645Y-94888240D01*
X99823100Y-92663696D01*
X99823100Y-91463104D01*
X100871447Y-92511452D01*
X100992614Y-92592413D01*
X101106655Y-92668613D01*
X101384100Y-92723800D01*
X101661652Y-92723800D01*
X101699125Y-92761338D01*
X102029794Y-92898643D01*
X102387836Y-92898956D01*
X102718743Y-92762228D01*
X102972138Y-92509275D01*
X103109443Y-92178606D01*
X103109485Y-92130125D01*
X103239443Y-92076428D01*
X103492838Y-91823475D01*
X103630143Y-91492806D01*
X103630456Y-91134764D01*
X103493728Y-90803857D01*
X103240775Y-90550462D01*
X102910106Y-90413157D01*
X102552064Y-90412844D01*
X102221157Y-90549572D01*
X102182662Y-90588000D01*
X101951105Y-90588000D01*
X101194700Y-89831596D01*
X101194700Y-89752100D01*
X103487800Y-89752100D01*
X103487800Y-90192038D01*
X103580362Y-90415504D01*
X103751395Y-90586537D01*
X103974861Y-90679100D01*
X104539800Y-90679100D01*
X104691800Y-90527100D01*
X104691800Y-89600100D01*
X103639800Y-89600100D01*
X103487800Y-89752100D01*
X101194700Y-89752100D01*
X101194700Y-88700162D01*
X103487800Y-88700162D01*
X103487800Y-89140100D01*
X103639800Y-89292100D01*
X104691800Y-89292100D01*
X104691800Y-88365100D01*
X104539800Y-88213100D01*
X103974861Y-88213100D01*
X103751395Y-88305663D01*
X103580362Y-88476696D01*
X103487800Y-88700162D01*
X101194700Y-88700162D01*
X101194700Y-80721161D01*
X108964900Y-80721161D01*
X108964900Y-81286100D01*
X109116900Y-81438100D01*
X110043900Y-81438100D01*
X110043900Y-80386100D01*
X110351900Y-80386100D01*
X110351900Y-81438100D01*
X112063200Y-81438100D01*
X112063200Y-80386100D01*
X112371200Y-80386100D01*
X112371200Y-81438100D01*
X114120600Y-81438100D01*
X114120600Y-80386100D01*
X113968600Y-80234100D01*
X113528662Y-80234100D01*
X113305196Y-80326662D01*
X113245900Y-80385958D01*
X113186604Y-80326662D01*
X112963138Y-80234100D01*
X112523200Y-80234100D01*
X112371200Y-80386100D01*
X112063200Y-80386100D01*
X111911200Y-80234100D01*
X111471262Y-80234100D01*
X111247796Y-80326662D01*
X111207550Y-80366908D01*
X111167304Y-80326662D01*
X110943838Y-80234100D01*
X110503900Y-80234100D01*
X110351900Y-80386100D01*
X110043900Y-80386100D01*
X109891900Y-80234100D01*
X109451962Y-80234100D01*
X109228496Y-80326662D01*
X109057463Y-80497695D01*
X108964900Y-80721161D01*
X101194700Y-80721161D01*
X101194700Y-79808559D01*
X101283038Y-79720375D01*
X101420343Y-79389706D01*
X101420656Y-79031664D01*
X101283928Y-78700757D01*
X101030975Y-78447362D01*
X100700306Y-78310057D01*
X100342264Y-78309744D01*
X100129816Y-78397526D01*
X99887975Y-78155262D01*
X99557306Y-78017957D01*
X99199264Y-78017644D01*
X98868357Y-78154372D01*
X98777538Y-78245033D01*
X96505710Y-75973206D01*
X96505756Y-75920164D01*
X96369028Y-75589257D01*
X96116075Y-75335862D01*
X95785406Y-75198557D01*
X95778153Y-75198551D01*
X96441994Y-74534710D01*
X96495036Y-74534756D01*
X96825943Y-74398028D01*
X97079338Y-74145075D01*
X97216643Y-73814406D01*
X97216956Y-73456364D01*
X97080228Y-73125457D01*
X96827275Y-72872062D01*
X96774020Y-72849949D01*
X96914238Y-72709975D01*
X97051543Y-72379306D01*
X97051856Y-72021264D01*
X96915128Y-71690357D01*
X96662175Y-71436962D01*
X96331506Y-71299657D01*
X95973464Y-71299344D01*
X95642557Y-71436072D01*
X95389162Y-71689025D01*
X95251857Y-72019694D01*
X95251809Y-72074087D01*
X93505448Y-73820448D01*
X93348287Y-74055654D01*
X93339131Y-74101685D01*
X93293100Y-74333100D01*
X93293100Y-76263500D01*
X93329836Y-76448185D01*
X93348287Y-76540946D01*
X93505448Y-76776152D01*
X96534397Y-79805102D01*
X96654684Y-79885475D01*
X96769605Y-79962263D01*
X96909981Y-79990185D01*
X97001500Y-80081705D01*
X97001500Y-82761943D01*
X96801406Y-82678857D01*
X96747014Y-82678809D01*
X94527200Y-80458996D01*
X94527200Y-79922948D01*
X94564738Y-79885475D01*
X94702043Y-79554806D01*
X94702356Y-79196764D01*
X94565628Y-78865857D01*
X94312675Y-78612462D01*
X93982006Y-78475157D01*
X93623964Y-78474844D01*
X93293057Y-78611572D01*
X93039662Y-78864525D01*
X92902357Y-79195194D01*
X92902044Y-79553236D01*
X88490767Y-79553236D01*
X88756732Y-79155191D01*
X88867107Y-78600300D01*
X88756732Y-78045409D01*
X88442412Y-77574995D01*
X88076199Y-77330300D01*
X88442412Y-77085605D01*
X88756732Y-76615191D01*
X88867107Y-76060300D01*
X88756732Y-75505409D01*
X88442412Y-75034995D01*
X88335828Y-74963778D01*
X88461046Y-74940217D01*
X88665258Y-74808810D01*
X88802256Y-74608307D01*
X88850454Y-74370300D01*
X88850454Y-72670300D01*
X88808617Y-72447954D01*
X88677210Y-72243742D01*
X88476707Y-72106744D01*
X88388700Y-72088922D01*
X88388700Y-71458014D01*
X88882413Y-70964300D01*
X97210686Y-70964300D01*
X101781893Y-75535507D01*
X101781893Y-75535507D01*
G37*
X101781893Y-75535507D02*
X102106317Y-75752280D01*
X102489000Y-75828400D01*
X117451829Y-75828400D01*
X115105915Y-78174315D01*
X114932496Y-78433853D01*
X114871600Y-78740000D01*
X114871600Y-80234100D01*
X114580600Y-80234100D01*
X114428600Y-80386100D01*
X114428600Y-81438100D01*
X114448600Y-81438100D01*
X114448600Y-81746100D01*
X114428600Y-81746100D01*
X114428600Y-81766100D01*
X114120600Y-81766100D01*
X114120600Y-81746100D01*
X112371200Y-81746100D01*
X112371200Y-81766100D01*
X112063200Y-81766100D01*
X112063200Y-81746100D01*
X110351900Y-81746100D01*
X110351900Y-81766100D01*
X110043900Y-81766100D01*
X110043900Y-81746100D01*
X109116900Y-81746100D01*
X108964900Y-81898100D01*
X108964900Y-82463039D01*
X109057463Y-82686505D01*
X109224351Y-82853393D01*
X109146342Y-82903590D01*
X109009344Y-83104093D01*
X108961146Y-83342100D01*
X108961146Y-84842100D01*
X109002983Y-85064446D01*
X109134390Y-85268658D01*
X109318470Y-85394434D01*
X109298057Y-85443594D01*
X109297744Y-85801636D01*
X109434472Y-86132543D01*
X109687425Y-86385938D01*
X109814630Y-86438758D01*
X109695714Y-86518215D01*
X108004584Y-88209346D01*
X106595800Y-88209346D01*
X106373454Y-88251183D01*
X106169242Y-88382590D01*
X106107498Y-88472956D01*
X105940205Y-88305663D01*
X105716739Y-88213100D01*
X105151800Y-88213100D01*
X104999800Y-88365100D01*
X104999800Y-89292100D01*
X105019800Y-89292100D01*
X105019800Y-89600100D01*
X104999800Y-89600100D01*
X104999800Y-90527100D01*
X105151800Y-90679100D01*
X105716739Y-90679100D01*
X105940205Y-90586537D01*
X106107093Y-90419649D01*
X106157290Y-90497658D01*
X106357793Y-90634656D01*
X106595800Y-90682854D01*
X108095800Y-90682854D01*
X108318146Y-90641017D01*
X108522358Y-90509610D01*
X108659356Y-90309107D01*
X108687303Y-90171100D01*
X108752360Y-90171100D01*
X108836994Y-90206243D01*
X109195036Y-90206556D01*
X109525943Y-90069828D01*
X109779338Y-89816875D01*
X109916643Y-89486206D01*
X109916956Y-89128164D01*
X109780228Y-88797257D01*
X109729865Y-88746806D01*
X110592771Y-87883900D01*
X113220500Y-87883900D01*
X113526647Y-87823004D01*
X113786185Y-87649585D01*
X114097970Y-87337800D01*
X114858800Y-87337800D01*
X115164947Y-87276904D01*
X115424485Y-87103485D01*
X116237286Y-86290685D01*
X116410704Y-86031147D01*
X116471600Y-85725000D01*
X116471600Y-79071370D01*
X118256470Y-77286501D01*
X118311772Y-77420343D01*
X118350200Y-77458838D01*
X118350200Y-78458885D01*
X118236462Y-78572425D01*
X118099157Y-78903094D01*
X118098844Y-79261136D01*
X118235572Y-79592043D01*
X118488525Y-79845438D01*
X118733966Y-79947353D01*
X118733844Y-80086636D01*
X118870572Y-80417543D01*
X119123525Y-80670938D01*
X119454194Y-80808243D01*
X119812236Y-80808556D01*
X120143143Y-80671828D01*
X120396538Y-80418875D01*
X120533843Y-80088206D01*
X120533899Y-80024398D01*
X120672113Y-79817546D01*
X120727300Y-79540100D01*
X120727300Y-77408348D01*
X120764838Y-77370875D01*
X120902143Y-77040206D01*
X120902456Y-76682500D01*
X127049830Y-76682500D01*
X124783315Y-78949015D01*
X124609896Y-79208553D01*
X124549000Y-79514700D01*
X124549000Y-83343529D01*
X123751917Y-84140613D01*
X123751914Y-84140615D01*
X119632384Y-88260146D01*
X119617516Y-88260146D01*
X119361485Y-88004115D01*
X119101947Y-87830696D01*
X119063276Y-87823004D01*
X118795800Y-87769800D01*
X114668300Y-87769800D01*
X114400824Y-87823004D01*
X114362153Y-87830696D01*
X114102614Y-88004115D01*
X108489215Y-93617515D01*
X108315796Y-93877053D01*
X108254900Y-94183200D01*
X108254900Y-95783400D01*
X108308268Y-96051700D01*
X108315796Y-96089547D01*
X108465846Y-96314111D01*
X108465846Y-97023300D01*
X108507683Y-97245646D01*
X108639090Y-97449858D01*
X108729456Y-97511602D01*
X108562163Y-97678895D01*
X108469600Y-97902361D01*
X108469600Y-98467300D01*
X108621600Y-98619300D01*
X109548600Y-98619300D01*
X109548600Y-98599300D01*
X109856600Y-98599300D01*
X109856600Y-98619300D01*
X111529800Y-98619300D01*
X111529800Y-98599300D01*
X111837800Y-98599300D01*
X111837800Y-98619300D01*
X112764800Y-98619300D01*
X112916800Y-98467300D01*
X112916800Y-97902361D01*
X112824237Y-97678895D01*
X112657349Y-97512007D01*
X112735358Y-97461810D01*
X112872356Y-97261307D01*
X112920554Y-97023300D01*
X112920554Y-95523300D01*
X112914887Y-95493183D01*
X113932871Y-94475200D01*
X117380700Y-94475200D01*
X117686847Y-94414304D01*
X117946385Y-94240885D01*
X119396217Y-92791054D01*
X120251600Y-92791054D01*
X120473946Y-92749217D01*
X120678158Y-92617810D01*
X120739902Y-92527444D01*
X120907195Y-92694737D01*
X121130661Y-92787300D01*
X121695600Y-92787300D01*
X121847600Y-92635300D01*
X121847600Y-91708300D01*
X122155600Y-91708300D01*
X122155600Y-92635300D01*
X122307600Y-92787300D01*
X122872539Y-92787300D01*
X123096005Y-92694737D01*
X123267038Y-92523704D01*
X123359600Y-92300238D01*
X123359600Y-91860300D01*
X123207600Y-91708300D01*
X122155600Y-91708300D01*
X121847600Y-91708300D01*
X121827600Y-91708300D01*
X121827600Y-91400300D01*
X121847600Y-91400300D01*
X121847600Y-90603300D01*
X121873000Y-90577900D01*
X121873000Y-90473300D01*
X122155600Y-90473300D01*
X122155600Y-91400300D01*
X123207600Y-91400300D01*
X123359600Y-91248300D01*
X123359600Y-90808362D01*
X123267038Y-90584896D01*
X123220442Y-90538300D01*
X123292438Y-90466304D01*
X123385000Y-90242838D01*
X123385000Y-89802900D01*
X123233000Y-89650900D01*
X122181000Y-89650900D01*
X122181000Y-90447900D01*
X122155600Y-90473300D01*
X121873000Y-90473300D01*
X121873000Y-89650900D01*
X121853000Y-89650900D01*
X121853000Y-89342900D01*
X121873000Y-89342900D01*
X121873000Y-88415900D01*
X122181000Y-88415900D01*
X122181000Y-89342900D01*
X123233000Y-89342900D01*
X123385000Y-89190900D01*
X123385000Y-88750962D01*
X123292438Y-88527496D01*
X123121405Y-88356463D01*
X122897939Y-88263900D01*
X122333000Y-88263900D01*
X122181000Y-88415900D01*
X121873000Y-88415900D01*
X121806185Y-88349085D01*
X123621900Y-86533371D01*
X123621900Y-92898008D01*
X123357106Y-92788057D01*
X122999064Y-92787744D01*
X122668157Y-92924472D01*
X122414762Y-93177425D01*
X122377277Y-93267700D01*
X121858348Y-93267700D01*
X121820875Y-93230162D01*
X121490206Y-93092857D01*
X121132164Y-93092544D01*
X120801257Y-93229272D01*
X120547862Y-93482225D01*
X120410557Y-93812894D01*
X120410244Y-94170936D01*
X120546972Y-94501843D01*
X120799925Y-94755238D01*
X121130594Y-94892543D01*
X121488636Y-94892856D01*
X121819543Y-94756128D01*
X121858038Y-94717700D01*
X122872500Y-94717700D01*
X123103915Y-94671669D01*
X123149946Y-94662513D01*
X123261501Y-94587974D01*
X123355536Y-94588056D01*
X123621900Y-94477997D01*
X123621900Y-97698538D01*
X123421075Y-97497362D01*
X123090406Y-97360057D01*
X122732364Y-97359744D01*
X122401457Y-97496472D01*
X122362962Y-97534900D01*
X122347305Y-97534900D01*
X121575510Y-96763105D01*
X121575556Y-96710064D01*
X121438828Y-96379157D01*
X121185875Y-96125762D01*
X120855206Y-95988457D01*
X120497164Y-95988144D01*
X120166257Y-96124872D01*
X119912862Y-96377825D01*
X119818392Y-96605335D01*
X119505857Y-96734472D01*
X119252462Y-96987425D01*
X119115157Y-97318094D01*
X119114887Y-97626623D01*
X118909664Y-97626444D01*
X118578757Y-97763172D01*
X118325362Y-98016125D01*
X118188057Y-98346794D01*
X118187744Y-98704836D01*
X118307168Y-98993863D01*
X118063852Y-98750548D01*
X117828646Y-98593387D01*
X117782615Y-98584231D01*
X117551200Y-98538200D01*
X115717905Y-98538200D01*
X115445315Y-98265611D01*
X115568143Y-97969806D01*
X115568456Y-97611764D01*
X115431728Y-97280857D01*
X115178775Y-97027462D01*
X114848106Y-96890157D01*
X114490064Y-96889844D01*
X114159157Y-97026572D01*
X113905762Y-97279525D01*
X113768457Y-97610194D01*
X113768144Y-97968236D01*
X113892500Y-98269200D01*
X113892500Y-98463100D01*
X113937602Y-98689843D01*
X113947687Y-98740546D01*
X114104848Y-98975752D01*
X114904947Y-99775852D01*
X114994808Y-99835895D01*
X115140155Y-99933013D01*
X115372400Y-99979209D01*
X115339200Y-100059361D01*
X115339200Y-100774300D01*
X115491200Y-100926300D01*
X116193200Y-100926300D01*
X116193200Y-100906300D01*
X116501200Y-100906300D01*
X116501200Y-100926300D01*
X116521200Y-100926300D01*
X116521200Y-101234300D01*
X116501200Y-101234300D01*
X116501200Y-102436300D01*
X116653200Y-102588300D01*
X116868138Y-102588300D01*
X117091604Y-102495738D01*
X117262637Y-102324705D01*
X117299132Y-102236600D01*
X117408690Y-102406858D01*
X117609193Y-102543856D01*
X117847200Y-102592054D01*
X118647200Y-102592054D01*
X118869546Y-102550217D01*
X119073758Y-102418810D01*
X119210756Y-102218307D01*
X119258954Y-101980300D01*
X119258954Y-101805300D01*
X119613646Y-101805300D01*
X119613646Y-102179500D01*
X119655483Y-102401846D01*
X119786890Y-102606058D01*
X119894388Y-102679508D01*
X119798842Y-102740990D01*
X119661844Y-102941493D01*
X119654147Y-102979500D01*
X119054700Y-102979500D01*
X118748553Y-103040396D01*
X118644597Y-103109858D01*
X118489015Y-103213814D01*
X118295267Y-103407562D01*
X118267117Y-103257954D01*
X118135710Y-103053742D01*
X117935207Y-102916744D01*
X117697200Y-102868546D01*
X116897200Y-102868546D01*
X116674854Y-102910383D01*
X116470642Y-103041790D01*
X116333644Y-103242293D01*
X116285446Y-103480300D01*
X116285446Y-105280300D01*
X116305504Y-105386900D01*
X113155302Y-102236698D01*
X112920096Y-102079537D01*
X112874065Y-102070381D01*
X112642650Y-102024350D01*
X111603098Y-102024350D01*
X111565625Y-101986812D01*
X111234956Y-101849507D01*
X110876914Y-101849194D01*
X110546007Y-101985922D01*
X110292612Y-102238875D01*
X110155307Y-102569544D01*
X110155281Y-102599387D01*
X110057057Y-102639972D01*
X109803662Y-102892925D01*
X109666357Y-103223594D01*
X109666044Y-103581636D01*
X109802772Y-103912543D01*
X109960135Y-104070181D01*
X109829062Y-104201025D01*
X109691757Y-104531694D01*
X109691444Y-104889736D01*
X109828172Y-105220643D01*
X110004585Y-105397364D01*
X109854462Y-105547225D01*
X109717157Y-105877894D01*
X109716844Y-106235936D01*
X109853572Y-106566843D01*
X110106525Y-106820238D01*
X110437194Y-106957543D01*
X110795236Y-106957856D01*
X111126143Y-106821128D01*
X111164638Y-106782700D01*
X111637496Y-106782700D01*
X119108648Y-114253852D01*
X119343854Y-114411013D01*
X119389885Y-114420169D01*
X119621300Y-114466200D01*
X134205396Y-114466200D01*
X137803048Y-118063853D01*
X138038254Y-118221013D01*
X138315700Y-118276200D01*
X146040231Y-118276200D01*
X146240888Y-118576505D01*
X146619732Y-118829640D01*
X146405746Y-118935459D01*
X146031123Y-119363584D01*
X145886697Y-119712290D01*
X145997711Y-119937200D01*
X147140600Y-119937200D01*
X147140600Y-119917200D01*
X147448600Y-119917200D01*
X147448600Y-119937200D01*
X148591489Y-119937200D01*
X148702503Y-119712290D01*
X148558077Y-119363584D01*
X148183454Y-118935459D01*
X147969468Y-118829640D01*
X148348312Y-118576505D01*
X148662632Y-118106091D01*
X148773007Y-117551200D01*
X148662632Y-116996309D01*
X148348312Y-116525895D01*
X147982099Y-116281200D01*
X148348312Y-116036505D01*
X148662632Y-115566091D01*
X148773007Y-115011200D01*
X148662632Y-114456309D01*
X148348312Y-113985895D01*
X147982099Y-113741200D01*
X148348312Y-113496505D01*
X148662632Y-113026091D01*
X148773007Y-112471200D01*
X148662632Y-111916309D01*
X148348312Y-111445895D01*
X147982099Y-111201200D01*
X148348312Y-110956505D01*
X148662632Y-110486091D01*
X148773007Y-109931200D01*
X148662632Y-109376309D01*
X148348312Y-108905895D01*
X147982099Y-108661200D01*
X148348312Y-108416505D01*
X148662632Y-107946091D01*
X148773007Y-107391200D01*
X148662632Y-106836309D01*
X148348312Y-106365895D01*
X147982099Y-106121200D01*
X148348312Y-105876505D01*
X148662632Y-105406091D01*
X148773007Y-104851200D01*
X148662632Y-104296309D01*
X148348312Y-103825895D01*
X148241728Y-103754678D01*
X148366946Y-103731117D01*
X148571158Y-103599710D01*
X148708156Y-103399207D01*
X148756354Y-103161200D01*
X148756354Y-102263660D01*
X149654900Y-101365114D01*
X149654900Y-132421000D01*
X85282400Y-132421000D01*
X85282400Y-130757110D01*
X85980797Y-130757110D01*
X86125223Y-131105816D01*
X86499846Y-131533941D01*
X87009789Y-131786115D01*
X87234700Y-131676056D01*
X87234700Y-130532200D01*
X87542700Y-130532200D01*
X87542700Y-131676056D01*
X87767611Y-131786115D01*
X88277554Y-131533941D01*
X88652177Y-131105816D01*
X88796603Y-130757110D01*
X88685589Y-130532200D01*
X87542700Y-130532200D01*
X87234700Y-130532200D01*
X86091811Y-130532200D01*
X85980797Y-130757110D01*
X85282400Y-130757110D01*
X85282400Y-109366114D01*
X85926946Y-110010660D01*
X85926946Y-110908200D01*
X85968783Y-111130546D01*
X86100190Y-111334758D01*
X86300693Y-111471756D01*
X86443172Y-111500609D01*
X86334988Y-111572895D01*
X86020668Y-112043309D01*
X85910293Y-112598200D01*
X86020668Y-113153091D01*
X86334988Y-113623505D01*
X86701201Y-113868200D01*
X86334988Y-114112895D01*
X86020668Y-114583309D01*
X85910293Y-115138200D01*
X86020668Y-115693091D01*
X86334988Y-116163505D01*
X86701201Y-116408200D01*
X86334988Y-116652895D01*
X86020668Y-117123309D01*
X85910293Y-117678200D01*
X86020668Y-118233091D01*
X86334988Y-118703505D01*
X86701201Y-118948200D01*
X86334988Y-119192895D01*
X86020668Y-119663309D01*
X85910293Y-120218200D01*
X86020668Y-120773091D01*
X86334988Y-121243505D01*
X86701201Y-121488200D01*
X86334988Y-121732895D01*
X86020668Y-122203309D01*
X85910293Y-122758200D01*
X86020668Y-123313091D01*
X86334988Y-123783505D01*
X86701201Y-124028200D01*
X86334988Y-124272895D01*
X86020668Y-124743309D01*
X85910293Y-125298200D01*
X86020668Y-125853091D01*
X86334988Y-126323505D01*
X86701201Y-126568200D01*
X86334988Y-126812895D01*
X86020668Y-127283309D01*
X85910293Y-127838200D01*
X86020668Y-128393091D01*
X86334988Y-128863505D01*
X86713832Y-129116640D01*
X86499846Y-129222459D01*
X86125223Y-129650584D01*
X85980797Y-129999290D01*
X86091811Y-130224200D01*
X87234700Y-130224200D01*
X87234700Y-130204200D01*
X87542700Y-130204200D01*
X87542700Y-130224200D01*
X88685589Y-130224200D01*
X88796603Y-129999290D01*
X88652177Y-129650584D01*
X88277554Y-129222459D01*
X88063568Y-129116640D01*
X88442412Y-128863505D01*
X88756732Y-128393091D01*
X88867107Y-127838200D01*
X88756732Y-127283309D01*
X88473576Y-126859535D01*
X99716498Y-126859535D01*
X99912721Y-127265290D01*
X100271241Y-127577113D01*
X100721800Y-127728000D01*
X101121800Y-127728000D01*
X101121800Y-126674000D01*
X101429800Y-126674000D01*
X101429800Y-127728000D01*
X101829800Y-127728000D01*
X102280359Y-127577113D01*
X102638879Y-127265290D01*
X102835102Y-126859535D01*
X102720510Y-126674000D01*
X101429800Y-126674000D01*
X101121800Y-126674000D01*
X99831090Y-126674000D01*
X99716498Y-126859535D01*
X88473576Y-126859535D01*
X88442412Y-126812895D01*
X88076199Y-126568200D01*
X88442412Y-126323505D01*
X88537988Y-126180465D01*
X99716498Y-126180465D01*
X99831090Y-126366000D01*
X101121800Y-126366000D01*
X101121800Y-125312000D01*
X101429800Y-125312000D01*
X101429800Y-126366000D01*
X102720510Y-126366000D01*
X102835102Y-126180465D01*
X102638879Y-125774710D01*
X102280359Y-125462887D01*
X101829800Y-125312000D01*
X101429800Y-125312000D01*
X101121800Y-125312000D01*
X100721800Y-125312000D01*
X100271241Y-125462887D01*
X99912721Y-125774710D01*
X99716498Y-126180465D01*
X88537988Y-126180465D01*
X88756732Y-125853091D01*
X88867107Y-125298200D01*
X88756732Y-124743309D01*
X88442412Y-124272895D01*
X88076199Y-124028200D01*
X88442412Y-123783505D01*
X88756732Y-123313091D01*
X88867107Y-122758200D01*
X88756732Y-122203309D01*
X88442412Y-121732895D01*
X88076199Y-121488200D01*
X88442412Y-121243505D01*
X88756732Y-120773091D01*
X88867107Y-120218200D01*
X88756732Y-119663309D01*
X88442412Y-119192895D01*
X88076199Y-118948200D01*
X88442412Y-118703505D01*
X88756732Y-118233091D01*
X88867107Y-117678200D01*
X88756732Y-117123309D01*
X88442412Y-116652895D01*
X88076199Y-116408200D01*
X88442412Y-116163505D01*
X88756732Y-115693091D01*
X88867107Y-115138200D01*
X88756732Y-114583309D01*
X88442412Y-114112895D01*
X88076199Y-113868200D01*
X88442412Y-113623505D01*
X88756732Y-113153091D01*
X88867107Y-112598200D01*
X88756732Y-112043309D01*
X88442412Y-111572895D01*
X88335828Y-111501678D01*
X88461046Y-111478117D01*
X88665258Y-111346710D01*
X88802256Y-111146207D01*
X88850454Y-110908200D01*
X88850454Y-109208200D01*
X88808617Y-108985854D01*
X88677210Y-108781642D01*
X88476707Y-108644644D01*
X88238700Y-108596446D01*
X87341160Y-108596446D01*
X86589814Y-107845100D01*
X91444886Y-107845100D01*
X94123000Y-110523214D01*
X94123000Y-119926100D01*
X94199120Y-120308784D01*
X94415893Y-120633207D01*
X98469793Y-124687107D01*
X98794217Y-124903880D01*
X99176900Y-124980000D01*
X100222620Y-124980000D01*
X100385234Y-125088655D01*
X100844454Y-125180000D01*
X101707146Y-125180000D01*
X102166366Y-125088655D01*
X102328980Y-124980000D01*
X105046900Y-124980000D01*
X105429584Y-124903880D01*
X105754007Y-124687107D01*
X108127060Y-122314054D01*
X108298400Y-122314054D01*
X108520746Y-122272217D01*
X108724958Y-122140810D01*
X108725238Y-122140400D01*
X108949400Y-122140400D01*
X108966490Y-122166958D01*
X109166993Y-122303956D01*
X109405000Y-122352154D01*
X110305000Y-122352154D01*
X110527346Y-122310317D01*
X110731558Y-122178910D01*
X110868556Y-121978407D01*
X110916754Y-121740400D01*
X110916754Y-120540400D01*
X110903529Y-120470110D01*
X145886697Y-120470110D01*
X146031123Y-120818816D01*
X146405746Y-121246941D01*
X146915689Y-121499115D01*
X147140600Y-121389056D01*
X147140600Y-120245200D01*
X147448600Y-120245200D01*
X147448600Y-121389056D01*
X147673511Y-121499115D01*
X148183454Y-121246941D01*
X148558077Y-120818816D01*
X148702503Y-120470110D01*
X148591489Y-120245200D01*
X147448600Y-120245200D01*
X147140600Y-120245200D01*
X145997711Y-120245200D01*
X145886697Y-120470110D01*
X110903529Y-120470110D01*
X110874917Y-120318054D01*
X110743510Y-120113842D01*
X110636012Y-120040392D01*
X110731558Y-119978910D01*
X110868556Y-119778407D01*
X110916754Y-119540400D01*
X110916754Y-118340400D01*
X110874917Y-118118054D01*
X110743510Y-117913842D01*
X110580000Y-117802120D01*
X110580000Y-117589300D01*
X110526562Y-117320646D01*
X110524813Y-117311854D01*
X110367652Y-117076648D01*
X109821552Y-116530548D01*
X109586346Y-116373387D01*
X109540315Y-116364231D01*
X109308900Y-116318200D01*
X103771700Y-116318200D01*
X103494254Y-116373387D01*
X103259048Y-116530547D01*
X102026143Y-117763453D01*
X101707146Y-117700000D01*
X100844454Y-117700000D01*
X100385234Y-117791345D01*
X99995926Y-118051472D01*
X99735799Y-118440780D01*
X99644454Y-118900000D01*
X99735799Y-119359220D01*
X99995926Y-119748528D01*
X100385234Y-120008655D01*
X100844454Y-120100000D01*
X101707146Y-120100000D01*
X102166366Y-120008655D01*
X102555674Y-119748528D01*
X102815801Y-119359220D01*
X102898937Y-118941267D01*
X104072005Y-117768200D01*
X107120393Y-117768200D01*
X106971842Y-117863790D01*
X106834844Y-118064293D01*
X106811959Y-118177300D01*
X104757400Y-118177300D01*
X104479954Y-118232487D01*
X104244748Y-118389647D01*
X102248303Y-120386093D01*
X102166366Y-120331345D01*
X101707146Y-120240000D01*
X100844454Y-120240000D01*
X100385234Y-120331345D01*
X99995926Y-120591472D01*
X99735799Y-120980780D01*
X99644454Y-121440000D01*
X99735799Y-121899220D01*
X99995926Y-122288528D01*
X100385234Y-122548655D01*
X100844454Y-122640000D01*
X101707146Y-122640000D01*
X102166366Y-122548655D01*
X102555674Y-122288528D01*
X102815801Y-121899220D01*
X102823254Y-121861750D01*
X105057705Y-119627300D01*
X106810166Y-119627300D01*
X106828483Y-119724646D01*
X106959890Y-119928858D01*
X107067388Y-120002308D01*
X106971842Y-120063790D01*
X106834844Y-120264293D01*
X106786646Y-120502300D01*
X106786646Y-120826040D01*
X104632686Y-122980000D01*
X102328980Y-122980000D01*
X102166366Y-122871345D01*
X101707146Y-122780000D01*
X100844454Y-122780000D01*
X100385234Y-122871345D01*
X100222620Y-122980000D01*
X99591114Y-122980000D01*
X96123000Y-119511886D01*
X96123000Y-110109005D01*
X96123001Y-110109000D01*
X96046880Y-109726316D01*
X95830107Y-109401893D01*
X92566207Y-106137993D01*
X92241784Y-105921220D01*
X91859100Y-105845100D01*
X86191600Y-105845100D01*
X86191600Y-104803773D01*
X86499846Y-105156041D01*
X87009789Y-105408215D01*
X87234700Y-105298156D01*
X87234700Y-104154300D01*
X87542700Y-104154300D01*
X87542700Y-105298156D01*
X87767611Y-105408215D01*
X88277554Y-105156041D01*
X88652177Y-104727916D01*
X88796603Y-104379210D01*
X88685589Y-104154300D01*
X87542700Y-104154300D01*
X87234700Y-104154300D01*
X87214700Y-104154300D01*
X87214700Y-103846300D01*
X87234700Y-103846300D01*
X87234700Y-103826300D01*
X87542700Y-103826300D01*
X87542700Y-103846300D01*
X88685589Y-103846300D01*
X88796603Y-103621390D01*
X88652177Y-103272684D01*
X88277554Y-102844559D01*
X88063568Y-102738740D01*
X88442412Y-102485605D01*
X88756732Y-102015191D01*
X88867107Y-101460300D01*
X88756732Y-100905409D01*
X88442412Y-100434995D01*
X88076199Y-100190300D01*
X88442412Y-99945605D01*
X88756732Y-99475191D01*
X88867107Y-98920300D01*
X88756732Y-98365409D01*
X88442412Y-97894995D01*
X88076199Y-97650300D01*
X88442412Y-97405605D01*
X88756732Y-96935191D01*
X88867107Y-96380300D01*
X88756732Y-95825409D01*
X88442412Y-95354995D01*
X88076199Y-95110300D01*
X88442412Y-94865605D01*
X88756732Y-94395191D01*
X88867107Y-93840300D01*
X88756732Y-93285409D01*
X88442412Y-92814995D01*
X88076199Y-92570300D01*
X88442412Y-92325605D01*
X88756732Y-91855191D01*
X88867107Y-91300300D01*
X88756732Y-90745409D01*
X88442412Y-90274995D01*
X88076199Y-90030300D01*
X88442412Y-89785605D01*
X88756732Y-89315191D01*
X88867107Y-88760300D01*
X88756732Y-88205409D01*
X88442412Y-87734995D01*
X88076199Y-87490300D01*
X88442412Y-87245605D01*
X88756732Y-86775191D01*
X88867107Y-86220300D01*
X88756732Y-85665409D01*
X88442412Y-85194995D01*
X88076199Y-84950300D01*
X88442412Y-84705605D01*
X88756732Y-84235191D01*
X88867107Y-83680300D01*
X88756732Y-83125409D01*
X88442412Y-82654995D01*
X88076199Y-82410300D01*
X88442412Y-82165605D01*
X88756732Y-81695191D01*
X88867107Y-81140300D01*
X88756732Y-80585409D01*
X88442412Y-80114995D01*
X88076199Y-79870300D01*
X88442412Y-79625605D01*
X88490767Y-79553236D01*
X92902044Y-79553236D01*
X93038772Y-79884143D01*
X93077200Y-79922638D01*
X93077200Y-80759300D01*
X93086998Y-80808556D01*
X93132387Y-81036746D01*
X93289548Y-81271952D01*
X95721490Y-83703895D01*
X95721444Y-83756936D01*
X95858172Y-84087843D01*
X96111125Y-84341238D01*
X96441794Y-84478543D01*
X96799836Y-84478856D01*
X97001500Y-84395530D01*
X97001500Y-93764100D01*
X97023968Y-93877053D01*
X97056687Y-94041546D01*
X97213848Y-94276752D01*
X102674847Y-99737752D01*
X102731868Y-99775852D01*
X102910055Y-99894913D01*
X103187500Y-99950100D01*
X103807952Y-99950100D01*
X103845425Y-99987638D01*
X104176094Y-100124943D01*
X104380200Y-100125121D01*
X104380200Y-105211295D01*
X100128606Y-109462890D01*
X100075564Y-109462844D01*
X99744657Y-109599572D01*
X99491262Y-109852525D01*
X99353957Y-110183194D01*
X99353644Y-110541236D01*
X99490372Y-110872143D01*
X99743325Y-111125538D01*
X100073994Y-111262843D01*
X100432036Y-111263156D01*
X100762943Y-111126428D01*
X101016338Y-110873475D01*
X101153643Y-110542806D01*
X101153691Y-110488414D01*
X105617853Y-106024252D01*
X105775013Y-105789046D01*
X105830200Y-105511600D01*
X105830200Y-101386300D01*
X115339200Y-101386300D01*
X115339200Y-102101239D01*
X115431763Y-102324705D01*
X115602796Y-102495738D01*
X115826262Y-102588300D01*
X116041200Y-102588300D01*
X116193200Y-102436300D01*
X116193200Y-101234300D01*
X115491200Y-101234300D01*
X115339200Y-101386300D01*
X105830200Y-101386300D01*
X105830200Y-99079300D01*
X108469600Y-99079300D01*
X108469600Y-99644239D01*
X108562163Y-99867705D01*
X108733196Y-100038738D01*
X108956662Y-100131300D01*
X109396600Y-100131300D01*
X109548600Y-99979300D01*
X109548600Y-98927300D01*
X109856600Y-98927300D01*
X109856600Y-99979300D01*
X110008600Y-100131300D01*
X110448538Y-100131300D01*
X110672004Y-100038738D01*
X110693200Y-100017542D01*
X110714396Y-100038738D01*
X110937862Y-100131300D01*
X111377800Y-100131300D01*
X111529800Y-99979300D01*
X111529800Y-98927300D01*
X111837800Y-98927300D01*
X111837800Y-99979300D01*
X111989800Y-100131300D01*
X112429738Y-100131300D01*
X112653204Y-100038738D01*
X112824237Y-99867705D01*
X112916800Y-99644239D01*
X112916800Y-99079300D01*
X112764800Y-98927300D01*
X111837800Y-98927300D01*
X111529800Y-98927300D01*
X109856600Y-98927300D01*
X109548600Y-98927300D01*
X108621600Y-98927300D01*
X108469600Y-99079300D01*
X105830200Y-99079300D01*
X105830200Y-96382059D01*
X105918538Y-96293875D01*
X106055843Y-95963206D01*
X106056156Y-95605164D01*
X105919428Y-95274257D01*
X105666475Y-95020862D01*
X105335806Y-94883557D01*
X104977764Y-94883244D01*
X104646857Y-95019972D01*
X104393462Y-95272925D01*
X104256157Y-95603594D01*
X104255844Y-95961636D01*
X104380200Y-96262600D01*
X104380200Y-96978843D01*
X104266564Y-96978744D01*
X104175695Y-97016290D01*
X103823600Y-96664196D01*
X103823600Y-95656400D01*
X103768413Y-95378955D01*
X103719263Y-95305397D01*
X103719356Y-95198764D01*
X103582628Y-94867857D01*
X103329675Y-94614462D01*
X102999006Y-94477157D01*
X102640964Y-94476844D01*
X102310057Y-94613572D01*
X102056662Y-94866525D01*
X102047645Y-94888240D01*
X99823100Y-92663696D01*
X99823100Y-91463104D01*
X100871447Y-92511452D01*
X100992614Y-92592413D01*
X101106655Y-92668613D01*
X101384100Y-92723800D01*
X101661652Y-92723800D01*
X101699125Y-92761338D01*
X102029794Y-92898643D01*
X102387836Y-92898956D01*
X102718743Y-92762228D01*
X102972138Y-92509275D01*
X103109443Y-92178606D01*
X103109485Y-92130125D01*
X103239443Y-92076428D01*
X103492838Y-91823475D01*
X103630143Y-91492806D01*
X103630456Y-91134764D01*
X103493728Y-90803857D01*
X103240775Y-90550462D01*
X102910106Y-90413157D01*
X102552064Y-90412844D01*
X102221157Y-90549572D01*
X102182662Y-90588000D01*
X101951105Y-90588000D01*
X101194700Y-89831596D01*
X101194700Y-89752100D01*
X103487800Y-89752100D01*
X103487800Y-90192038D01*
X103580362Y-90415504D01*
X103751395Y-90586537D01*
X103974861Y-90679100D01*
X104539800Y-90679100D01*
X104691800Y-90527100D01*
X104691800Y-89600100D01*
X103639800Y-89600100D01*
X103487800Y-89752100D01*
X101194700Y-89752100D01*
X101194700Y-88700162D01*
X103487800Y-88700162D01*
X103487800Y-89140100D01*
X103639800Y-89292100D01*
X104691800Y-89292100D01*
X104691800Y-88365100D01*
X104539800Y-88213100D01*
X103974861Y-88213100D01*
X103751395Y-88305663D01*
X103580362Y-88476696D01*
X103487800Y-88700162D01*
X101194700Y-88700162D01*
X101194700Y-80721161D01*
X108964900Y-80721161D01*
X108964900Y-81286100D01*
X109116900Y-81438100D01*
X110043900Y-81438100D01*
X110043900Y-80386100D01*
X110351900Y-80386100D01*
X110351900Y-81438100D01*
X112063200Y-81438100D01*
X112063200Y-80386100D01*
X112371200Y-80386100D01*
X112371200Y-81438100D01*
X114120600Y-81438100D01*
X114120600Y-80386100D01*
X113968600Y-80234100D01*
X113528662Y-80234100D01*
X113305196Y-80326662D01*
X113245900Y-80385958D01*
X113186604Y-80326662D01*
X112963138Y-80234100D01*
X112523200Y-80234100D01*
X112371200Y-80386100D01*
X112063200Y-80386100D01*
X111911200Y-80234100D01*
X111471262Y-80234100D01*
X111247796Y-80326662D01*
X111207550Y-80366908D01*
X111167304Y-80326662D01*
X110943838Y-80234100D01*
X110503900Y-80234100D01*
X110351900Y-80386100D01*
X110043900Y-80386100D01*
X109891900Y-80234100D01*
X109451962Y-80234100D01*
X109228496Y-80326662D01*
X109057463Y-80497695D01*
X108964900Y-80721161D01*
X101194700Y-80721161D01*
X101194700Y-79808559D01*
X101283038Y-79720375D01*
X101420343Y-79389706D01*
X101420656Y-79031664D01*
X101283928Y-78700757D01*
X101030975Y-78447362D01*
X100700306Y-78310057D01*
X100342264Y-78309744D01*
X100129816Y-78397526D01*
X99887975Y-78155262D01*
X99557306Y-78017957D01*
X99199264Y-78017644D01*
X98868357Y-78154372D01*
X98777538Y-78245033D01*
X96505710Y-75973206D01*
X96505756Y-75920164D01*
X96369028Y-75589257D01*
X96116075Y-75335862D01*
X95785406Y-75198557D01*
X95778153Y-75198551D01*
X96441994Y-74534710D01*
X96495036Y-74534756D01*
X96825943Y-74398028D01*
X97079338Y-74145075D01*
X97216643Y-73814406D01*
X97216956Y-73456364D01*
X97080228Y-73125457D01*
X96827275Y-72872062D01*
X96774020Y-72849949D01*
X96914238Y-72709975D01*
X97051543Y-72379306D01*
X97051856Y-72021264D01*
X96915128Y-71690357D01*
X96662175Y-71436962D01*
X96331506Y-71299657D01*
X95973464Y-71299344D01*
X95642557Y-71436072D01*
X95389162Y-71689025D01*
X95251857Y-72019694D01*
X95251809Y-72074087D01*
X93505448Y-73820448D01*
X93348287Y-74055654D01*
X93339131Y-74101685D01*
X93293100Y-74333100D01*
X93293100Y-76263500D01*
X93329836Y-76448185D01*
X93348287Y-76540946D01*
X93505448Y-76776152D01*
X96534397Y-79805102D01*
X96654684Y-79885475D01*
X96769605Y-79962263D01*
X96909981Y-79990185D01*
X97001500Y-80081705D01*
X97001500Y-82761943D01*
X96801406Y-82678857D01*
X96747014Y-82678809D01*
X94527200Y-80458996D01*
X94527200Y-79922948D01*
X94564738Y-79885475D01*
X94702043Y-79554806D01*
X94702356Y-79196764D01*
X94565628Y-78865857D01*
X94312675Y-78612462D01*
X93982006Y-78475157D01*
X93623964Y-78474844D01*
X93293057Y-78611572D01*
X93039662Y-78864525D01*
X92902357Y-79195194D01*
X92902044Y-79553236D01*
X88490767Y-79553236D01*
X88756732Y-79155191D01*
X88867107Y-78600300D01*
X88756732Y-78045409D01*
X88442412Y-77574995D01*
X88076199Y-77330300D01*
X88442412Y-77085605D01*
X88756732Y-76615191D01*
X88867107Y-76060300D01*
X88756732Y-75505409D01*
X88442412Y-75034995D01*
X88335828Y-74963778D01*
X88461046Y-74940217D01*
X88665258Y-74808810D01*
X88802256Y-74608307D01*
X88850454Y-74370300D01*
X88850454Y-72670300D01*
X88808617Y-72447954D01*
X88677210Y-72243742D01*
X88476707Y-72106744D01*
X88388700Y-72088922D01*
X88388700Y-71458014D01*
X88882413Y-70964300D01*
X97210686Y-70964300D01*
X101781893Y-75535507D01*
G36*
X141589825Y-82880738D02*
X141920494Y-83018043D01*
X142278536Y-83018356D01*
X142490717Y-82930684D01*
X142516925Y-82956938D01*
X142847594Y-83094243D01*
X142901986Y-83094291D01*
X143518047Y-83710352D01*
X143590115Y-83758506D01*
X143753255Y-83867513D01*
X144030700Y-83922700D01*
X146103731Y-83922700D01*
X146304388Y-84223005D01*
X146670601Y-84467700D01*
X146304388Y-84712395D01*
X145990068Y-85182809D01*
X145879693Y-85737700D01*
X145990068Y-86292591D01*
X146304388Y-86763005D01*
X146670601Y-87007700D01*
X146304388Y-87252395D01*
X145990068Y-87722809D01*
X145879693Y-88277700D01*
X145990068Y-88832591D01*
X146304388Y-89303005D01*
X146670601Y-89547700D01*
X146304388Y-89792395D01*
X145990068Y-90262809D01*
X145879693Y-90817700D01*
X145990068Y-91372591D01*
X146304388Y-91843005D01*
X146670601Y-92087700D01*
X146304388Y-92332395D01*
X145990068Y-92802809D01*
X145879693Y-93357700D01*
X145990068Y-93912591D01*
X146304388Y-94383005D01*
X146683232Y-94636140D01*
X146469246Y-94741959D01*
X146094623Y-95170084D01*
X145950197Y-95518790D01*
X146061211Y-95743700D01*
X147204100Y-95743700D01*
X147204100Y-95723700D01*
X147512100Y-95723700D01*
X147512100Y-95743700D01*
X147532100Y-95743700D01*
X147532100Y-96051700D01*
X147512100Y-96051700D01*
X147512100Y-97195556D01*
X147737011Y-97305615D01*
X148246954Y-97053441D01*
X148618700Y-96628604D01*
X148618700Y-99572886D01*
X147342140Y-100849446D01*
X146444600Y-100849446D01*
X146222254Y-100891283D01*
X146018042Y-101022690D01*
X145881044Y-101223193D01*
X145832846Y-101461200D01*
X145832846Y-103161200D01*
X145874683Y-103383546D01*
X146006090Y-103587758D01*
X146206593Y-103724756D01*
X146349072Y-103753609D01*
X146240888Y-103825895D01*
X146040231Y-104126200D01*
X139446000Y-104126200D01*
X139168554Y-104181387D01*
X138933348Y-104338547D01*
X133405296Y-109866600D01*
X120785205Y-109866600D01*
X118033971Y-107115366D01*
X123598923Y-107115366D01*
X123701374Y-107371340D01*
X124304903Y-107583405D01*
X124943645Y-107548367D01*
X125371026Y-107371340D01*
X125473477Y-107115366D01*
X130098923Y-107115366D01*
X130201374Y-107371340D01*
X130804903Y-107583405D01*
X131443645Y-107548367D01*
X131871026Y-107371340D01*
X131973477Y-107115366D01*
X131036200Y-106178089D01*
X130098923Y-107115366D01*
X125473477Y-107115366D01*
X124536200Y-106178089D01*
X123598923Y-107115366D01*
X118033971Y-107115366D01*
X116788683Y-105870079D01*
X116897200Y-105892054D01*
X117697200Y-105892054D01*
X117919546Y-105850217D01*
X118107917Y-105729003D01*
X122913095Y-105729003D01*
X122948133Y-106367745D01*
X123125160Y-106795126D01*
X123381134Y-106897577D01*
X124318411Y-105960300D01*
X124753989Y-105960300D01*
X125691266Y-106897577D01*
X125947240Y-106795126D01*
X126159305Y-106191597D01*
X126133930Y-105729003D01*
X129413095Y-105729003D01*
X129448133Y-106367745D01*
X129625160Y-106795126D01*
X129881134Y-106897577D01*
X130818411Y-105960300D01*
X131253989Y-105960300D01*
X132191266Y-106897577D01*
X132447240Y-106795126D01*
X132659305Y-106191597D01*
X132624267Y-105552855D01*
X132447240Y-105125474D01*
X132191266Y-105023023D01*
X131253989Y-105960300D01*
X130818411Y-105960300D01*
X129881134Y-105023023D01*
X129625160Y-105125474D01*
X129413095Y-105729003D01*
X126133930Y-105729003D01*
X126124267Y-105552855D01*
X125947240Y-105125474D01*
X125691266Y-105023023D01*
X124753989Y-105960300D01*
X124318411Y-105960300D01*
X123381134Y-105023023D01*
X123125160Y-105125474D01*
X122913095Y-105729003D01*
X118107917Y-105729003D01*
X118123758Y-105718810D01*
X118260756Y-105518307D01*
X118308954Y-105280300D01*
X118308954Y-105180300D01*
X118453900Y-105180300D01*
X118760047Y-105119404D01*
X119019585Y-104945985D01*
X119386071Y-104579500D01*
X119651278Y-104579500D01*
X119655483Y-104601846D01*
X119786890Y-104806058D01*
X119987393Y-104943056D01*
X120225400Y-104991254D01*
X121125400Y-104991254D01*
X121347746Y-104949417D01*
X121551958Y-104818010D01*
X121560687Y-104805234D01*
X123598923Y-104805234D01*
X124536200Y-105742511D01*
X125473477Y-104805234D01*
X130098923Y-104805234D01*
X131036200Y-105742511D01*
X131973477Y-104805234D01*
X131871026Y-104549260D01*
X131267497Y-104337195D01*
X130628755Y-104372233D01*
X130201374Y-104549260D01*
X130098923Y-104805234D01*
X125473477Y-104805234D01*
X125371026Y-104549260D01*
X124767497Y-104337195D01*
X124128755Y-104372233D01*
X123701374Y-104549260D01*
X123598923Y-104805234D01*
X121560687Y-104805234D01*
X121688956Y-104617507D01*
X121724670Y-104441146D01*
X121868285Y-104345185D01*
X122506019Y-103707452D01*
X122746643Y-103608028D01*
X123000038Y-103355075D01*
X123137343Y-103024406D01*
X123137656Y-102666364D01*
X123000928Y-102335457D01*
X122970025Y-102304500D01*
X123153814Y-102304500D01*
X123178995Y-102365443D01*
X123628689Y-102815923D01*
X124216544Y-103060022D01*
X124853063Y-103060577D01*
X125441343Y-102817505D01*
X125891823Y-102367811D01*
X125967608Y-102185300D01*
X129604562Y-102185300D01*
X129678995Y-102365443D01*
X130128689Y-102815923D01*
X130716544Y-103060022D01*
X131353063Y-103060577D01*
X131941343Y-102817505D01*
X132391823Y-102367811D01*
X132635922Y-101779956D01*
X132636420Y-101208306D01*
X132723048Y-101337952D01*
X133091348Y-101706253D01*
X133326554Y-101863413D01*
X133604000Y-101918600D01*
X134072185Y-101918600D01*
X134185725Y-102032338D01*
X134516394Y-102169643D01*
X134874436Y-102169956D01*
X135205343Y-102033228D01*
X135458738Y-101780275D01*
X135596043Y-101449606D01*
X135596356Y-101091564D01*
X135459628Y-100760657D01*
X135206675Y-100507262D01*
X134897835Y-100379021D01*
X134897856Y-100354964D01*
X134761128Y-100024057D01*
X134608400Y-99871062D01*
X134608400Y-96276610D01*
X145950197Y-96276610D01*
X146094623Y-96625316D01*
X146469246Y-97053441D01*
X146979189Y-97305615D01*
X147204100Y-97195556D01*
X147204100Y-96051700D01*
X146061211Y-96051700D01*
X145950197Y-96276610D01*
X134608400Y-96276610D01*
X134608400Y-95275400D01*
X134553213Y-94997955D01*
X134482779Y-94892543D01*
X134396052Y-94762747D01*
X131255600Y-91622296D01*
X131255600Y-87844146D01*
X131496236Y-87844356D01*
X131681459Y-87767823D01*
X131709225Y-87795638D01*
X132039894Y-87932943D01*
X132397936Y-87933256D01*
X132728843Y-87796528D01*
X132982238Y-87543575D01*
X133119543Y-87212906D01*
X133119856Y-86854864D01*
X133089736Y-86781968D01*
X133777305Y-86094400D01*
X135355500Y-86094400D01*
X135355500Y-88142495D01*
X134355105Y-89142890D01*
X134302064Y-89142844D01*
X133971157Y-89279572D01*
X133717762Y-89532525D01*
X133580457Y-89863194D01*
X133580144Y-90221236D01*
X133716872Y-90552143D01*
X133969825Y-90805538D01*
X134300494Y-90942843D01*
X134658536Y-90943156D01*
X134879756Y-90851750D01*
X134947725Y-90919838D01*
X135278394Y-91057143D01*
X135636436Y-91057456D01*
X135967343Y-90920728D01*
X136220738Y-90667775D01*
X136358043Y-90337106D01*
X136358091Y-90282714D01*
X137228153Y-89412652D01*
X137385313Y-89177446D01*
X137440500Y-88900000D01*
X137440500Y-87185936D01*
X142724144Y-87185936D01*
X142860872Y-87516843D01*
X142899300Y-87555338D01*
X142899300Y-89041434D01*
X142800657Y-89278994D01*
X142800344Y-89637036D01*
X142937072Y-89967943D01*
X143190025Y-90221338D01*
X143520694Y-90358643D01*
X143878736Y-90358956D01*
X144209643Y-90222228D01*
X144463038Y-89969275D01*
X144501653Y-89876279D01*
X144589936Y-89876356D01*
X144920843Y-89739628D01*
X145174238Y-89486675D01*
X145311543Y-89156006D01*
X145311754Y-88914499D01*
X145339900Y-88773000D01*
X145339900Y-87517548D01*
X145377438Y-87480075D01*
X145514743Y-87149406D01*
X145515056Y-86791364D01*
X145378328Y-86460457D01*
X145125375Y-86207062D01*
X144794706Y-86069757D01*
X144436664Y-86069444D01*
X144105757Y-86206172D01*
X144086697Y-86225198D01*
X143804106Y-86107857D01*
X143446064Y-86107544D01*
X143115157Y-86244272D01*
X142861762Y-86497225D01*
X142724457Y-86827894D01*
X142724144Y-87185936D01*
X137440500Y-87185936D01*
X137440500Y-86546004D01*
X141348007Y-82638498D01*
X141589825Y-82880738D01*
X141589825Y-82880738D01*
G37*
X141589825Y-82880738D02*
X141920494Y-83018043D01*
X142278536Y-83018356D01*
X142490717Y-82930684D01*
X142516925Y-82956938D01*
X142847594Y-83094243D01*
X142901986Y-83094291D01*
X143518047Y-83710352D01*
X143590115Y-83758506D01*
X143753255Y-83867513D01*
X144030700Y-83922700D01*
X146103731Y-83922700D01*
X146304388Y-84223005D01*
X146670601Y-84467700D01*
X146304388Y-84712395D01*
X145990068Y-85182809D01*
X145879693Y-85737700D01*
X145990068Y-86292591D01*
X146304388Y-86763005D01*
X146670601Y-87007700D01*
X146304388Y-87252395D01*
X145990068Y-87722809D01*
X145879693Y-88277700D01*
X145990068Y-88832591D01*
X146304388Y-89303005D01*
X146670601Y-89547700D01*
X146304388Y-89792395D01*
X145990068Y-90262809D01*
X145879693Y-90817700D01*
X145990068Y-91372591D01*
X146304388Y-91843005D01*
X146670601Y-92087700D01*
X146304388Y-92332395D01*
X145990068Y-92802809D01*
X145879693Y-93357700D01*
X145990068Y-93912591D01*
X146304388Y-94383005D01*
X146683232Y-94636140D01*
X146469246Y-94741959D01*
X146094623Y-95170084D01*
X145950197Y-95518790D01*
X146061211Y-95743700D01*
X147204100Y-95743700D01*
X147204100Y-95723700D01*
X147512100Y-95723700D01*
X147512100Y-95743700D01*
X147532100Y-95743700D01*
X147532100Y-96051700D01*
X147512100Y-96051700D01*
X147512100Y-97195556D01*
X147737011Y-97305615D01*
X148246954Y-97053441D01*
X148618700Y-96628604D01*
X148618700Y-99572886D01*
X147342140Y-100849446D01*
X146444600Y-100849446D01*
X146222254Y-100891283D01*
X146018042Y-101022690D01*
X145881044Y-101223193D01*
X145832846Y-101461200D01*
X145832846Y-103161200D01*
X145874683Y-103383546D01*
X146006090Y-103587758D01*
X146206593Y-103724756D01*
X146349072Y-103753609D01*
X146240888Y-103825895D01*
X146040231Y-104126200D01*
X139446000Y-104126200D01*
X139168554Y-104181387D01*
X138933348Y-104338547D01*
X133405296Y-109866600D01*
X120785205Y-109866600D01*
X118033971Y-107115366D01*
X123598923Y-107115366D01*
X123701374Y-107371340D01*
X124304903Y-107583405D01*
X124943645Y-107548367D01*
X125371026Y-107371340D01*
X125473477Y-107115366D01*
X130098923Y-107115366D01*
X130201374Y-107371340D01*
X130804903Y-107583405D01*
X131443645Y-107548367D01*
X131871026Y-107371340D01*
X131973477Y-107115366D01*
X131036200Y-106178089D01*
X130098923Y-107115366D01*
X125473477Y-107115366D01*
X124536200Y-106178089D01*
X123598923Y-107115366D01*
X118033971Y-107115366D01*
X116788683Y-105870079D01*
X116897200Y-105892054D01*
X117697200Y-105892054D01*
X117919546Y-105850217D01*
X118107917Y-105729003D01*
X122913095Y-105729003D01*
X122948133Y-106367745D01*
X123125160Y-106795126D01*
X123381134Y-106897577D01*
X124318411Y-105960300D01*
X124753989Y-105960300D01*
X125691266Y-106897577D01*
X125947240Y-106795126D01*
X126159305Y-106191597D01*
X126133930Y-105729003D01*
X129413095Y-105729003D01*
X129448133Y-106367745D01*
X129625160Y-106795126D01*
X129881134Y-106897577D01*
X130818411Y-105960300D01*
X131253989Y-105960300D01*
X132191266Y-106897577D01*
X132447240Y-106795126D01*
X132659305Y-106191597D01*
X132624267Y-105552855D01*
X132447240Y-105125474D01*
X132191266Y-105023023D01*
X131253989Y-105960300D01*
X130818411Y-105960300D01*
X129881134Y-105023023D01*
X129625160Y-105125474D01*
X129413095Y-105729003D01*
X126133930Y-105729003D01*
X126124267Y-105552855D01*
X125947240Y-105125474D01*
X125691266Y-105023023D01*
X124753989Y-105960300D01*
X124318411Y-105960300D01*
X123381134Y-105023023D01*
X123125160Y-105125474D01*
X122913095Y-105729003D01*
X118107917Y-105729003D01*
X118123758Y-105718810D01*
X118260756Y-105518307D01*
X118308954Y-105280300D01*
X118308954Y-105180300D01*
X118453900Y-105180300D01*
X118760047Y-105119404D01*
X119019585Y-104945985D01*
X119386071Y-104579500D01*
X119651278Y-104579500D01*
X119655483Y-104601846D01*
X119786890Y-104806058D01*
X119987393Y-104943056D01*
X120225400Y-104991254D01*
X121125400Y-104991254D01*
X121347746Y-104949417D01*
X121551958Y-104818010D01*
X121560687Y-104805234D01*
X123598923Y-104805234D01*
X124536200Y-105742511D01*
X125473477Y-104805234D01*
X130098923Y-104805234D01*
X131036200Y-105742511D01*
X131973477Y-104805234D01*
X131871026Y-104549260D01*
X131267497Y-104337195D01*
X130628755Y-104372233D01*
X130201374Y-104549260D01*
X130098923Y-104805234D01*
X125473477Y-104805234D01*
X125371026Y-104549260D01*
X124767497Y-104337195D01*
X124128755Y-104372233D01*
X123701374Y-104549260D01*
X123598923Y-104805234D01*
X121560687Y-104805234D01*
X121688956Y-104617507D01*
X121724670Y-104441146D01*
X121868285Y-104345185D01*
X122506019Y-103707452D01*
X122746643Y-103608028D01*
X123000038Y-103355075D01*
X123137343Y-103024406D01*
X123137656Y-102666364D01*
X123000928Y-102335457D01*
X122970025Y-102304500D01*
X123153814Y-102304500D01*
X123178995Y-102365443D01*
X123628689Y-102815923D01*
X124216544Y-103060022D01*
X124853063Y-103060577D01*
X125441343Y-102817505D01*
X125891823Y-102367811D01*
X125967608Y-102185300D01*
X129604562Y-102185300D01*
X129678995Y-102365443D01*
X130128689Y-102815923D01*
X130716544Y-103060022D01*
X131353063Y-103060577D01*
X131941343Y-102817505D01*
X132391823Y-102367811D01*
X132635922Y-101779956D01*
X132636420Y-101208306D01*
X132723048Y-101337952D01*
X133091348Y-101706253D01*
X133326554Y-101863413D01*
X133604000Y-101918600D01*
X134072185Y-101918600D01*
X134185725Y-102032338D01*
X134516394Y-102169643D01*
X134874436Y-102169956D01*
X135205343Y-102033228D01*
X135458738Y-101780275D01*
X135596043Y-101449606D01*
X135596356Y-101091564D01*
X135459628Y-100760657D01*
X135206675Y-100507262D01*
X134897835Y-100379021D01*
X134897856Y-100354964D01*
X134761128Y-100024057D01*
X134608400Y-99871062D01*
X134608400Y-96276610D01*
X145950197Y-96276610D01*
X146094623Y-96625316D01*
X146469246Y-97053441D01*
X146979189Y-97305615D01*
X147204100Y-97195556D01*
X147204100Y-96051700D01*
X146061211Y-96051700D01*
X145950197Y-96276610D01*
X134608400Y-96276610D01*
X134608400Y-95275400D01*
X134553213Y-94997955D01*
X134482779Y-94892543D01*
X134396052Y-94762747D01*
X131255600Y-91622296D01*
X131255600Y-87844146D01*
X131496236Y-87844356D01*
X131681459Y-87767823D01*
X131709225Y-87795638D01*
X132039894Y-87932943D01*
X132397936Y-87933256D01*
X132728843Y-87796528D01*
X132982238Y-87543575D01*
X133119543Y-87212906D01*
X133119856Y-86854864D01*
X133089736Y-86781968D01*
X133777305Y-86094400D01*
X135355500Y-86094400D01*
X135355500Y-88142495D01*
X134355105Y-89142890D01*
X134302064Y-89142844D01*
X133971157Y-89279572D01*
X133717762Y-89532525D01*
X133580457Y-89863194D01*
X133580144Y-90221236D01*
X133716872Y-90552143D01*
X133969825Y-90805538D01*
X134300494Y-90942843D01*
X134658536Y-90943156D01*
X134879756Y-90851750D01*
X134947725Y-90919838D01*
X135278394Y-91057143D01*
X135636436Y-91057456D01*
X135967343Y-90920728D01*
X136220738Y-90667775D01*
X136358043Y-90337106D01*
X136358091Y-90282714D01*
X137228153Y-89412652D01*
X137385313Y-89177446D01*
X137440500Y-88900000D01*
X137440500Y-87185936D01*
X142724144Y-87185936D01*
X142860872Y-87516843D01*
X142899300Y-87555338D01*
X142899300Y-89041434D01*
X142800657Y-89278994D01*
X142800344Y-89637036D01*
X142937072Y-89967943D01*
X143190025Y-90221338D01*
X143520694Y-90358643D01*
X143878736Y-90358956D01*
X144209643Y-90222228D01*
X144463038Y-89969275D01*
X144501653Y-89876279D01*
X144589936Y-89876356D01*
X144920843Y-89739628D01*
X145174238Y-89486675D01*
X145311543Y-89156006D01*
X145311754Y-88914499D01*
X145339900Y-88773000D01*
X145339900Y-87517548D01*
X145377438Y-87480075D01*
X145514743Y-87149406D01*
X145515056Y-86791364D01*
X145378328Y-86460457D01*
X145125375Y-86207062D01*
X144794706Y-86069757D01*
X144436664Y-86069444D01*
X144105757Y-86206172D01*
X144086697Y-86225198D01*
X143804106Y-86107857D01*
X143446064Y-86107544D01*
X143115157Y-86244272D01*
X142861762Y-86497225D01*
X142724457Y-86827894D01*
X142724144Y-87185936D01*
X137440500Y-87185936D01*
X137440500Y-86546004D01*
X141348007Y-82638498D01*
X141589825Y-82880738D01*
G36*
X138381057Y-74585094D02*
X138380744Y-74943136D01*
X138517472Y-75274043D01*
X138555900Y-75312538D01*
X138555900Y-76712495D01*
X137060205Y-78208190D01*
X137007164Y-78208144D01*
X136676257Y-78344872D01*
X136422862Y-78597825D01*
X136285557Y-78928494D01*
X136285244Y-79286536D01*
X136421972Y-79617443D01*
X136674925Y-79870838D01*
X136793379Y-79920024D01*
X136793244Y-80073936D01*
X136929972Y-80404843D01*
X137052356Y-80527440D01*
X134764196Y-82815600D01*
X132384800Y-82815600D01*
X132173963Y-82857538D01*
X132107354Y-82870787D01*
X131872148Y-83027948D01*
X129630728Y-85269368D01*
X129603064Y-85269344D01*
X129272157Y-85406072D01*
X129018762Y-85659025D01*
X128881457Y-85989694D01*
X128881144Y-86347736D01*
X129017872Y-86678643D01*
X129056300Y-86717138D01*
X129056300Y-92176600D01*
X129091647Y-92354300D01*
X129111487Y-92454046D01*
X129268648Y-92689252D01*
X132510700Y-95931305D01*
X132510700Y-100825300D01*
X132515967Y-100851781D01*
X132393405Y-100555157D01*
X131943711Y-100104677D01*
X131355856Y-99860578D01*
X130719337Y-99860023D01*
X130131057Y-100103095D01*
X129680577Y-100552789D01*
X129604792Y-100735300D01*
X125967838Y-100735300D01*
X125893405Y-100555157D01*
X125443711Y-100104677D01*
X124855856Y-99860578D01*
X124219337Y-99860023D01*
X123631057Y-100103095D01*
X123180577Y-100552789D01*
X123055296Y-100854500D01*
X122916829Y-100854500D01*
X122986317Y-100687154D01*
X124987586Y-98685885D01*
X125161004Y-98426347D01*
X125221900Y-98120200D01*
X125221900Y-94608285D01*
X125461687Y-94848491D01*
X125865837Y-95016308D01*
X126303444Y-95016690D01*
X126707886Y-94849578D01*
X127017591Y-94540413D01*
X127185408Y-94136263D01*
X127185790Y-93698656D01*
X127018678Y-93294214D01*
X126709513Y-92984509D01*
X126305363Y-92816692D01*
X125867756Y-92816310D01*
X125463314Y-92983422D01*
X125221900Y-93224415D01*
X125221900Y-92068285D01*
X125461687Y-92308491D01*
X125865837Y-92476308D01*
X126303444Y-92476690D01*
X126707886Y-92309578D01*
X127017591Y-92000413D01*
X127185408Y-91596263D01*
X127185790Y-91158656D01*
X127018678Y-90754214D01*
X126709513Y-90444509D01*
X126305363Y-90276692D01*
X125867756Y-90276310D01*
X125463314Y-90443422D01*
X125221900Y-90684415D01*
X125221900Y-84933370D01*
X125914686Y-84240585D01*
X126088104Y-83981047D01*
X126112948Y-83856146D01*
X126149000Y-83674900D01*
X126149000Y-79846070D01*
X129028301Y-76966769D01*
X130932220Y-76966769D01*
X131010043Y-77202029D01*
X131540948Y-77380615D01*
X132099782Y-77342437D01*
X132438757Y-77202029D01*
X132516580Y-76966769D01*
X131724400Y-76174589D01*
X130932220Y-76966769D01*
X129028301Y-76966769D01*
X130340559Y-75654511D01*
X130300585Y-75773348D01*
X130338763Y-76332182D01*
X130479171Y-76671157D01*
X130714431Y-76748980D01*
X131506611Y-75956800D01*
X131942189Y-75956800D01*
X132734369Y-76748980D01*
X132969629Y-76671157D01*
X133148215Y-76140252D01*
X133110037Y-75581418D01*
X132969629Y-75242443D01*
X132734369Y-75164620D01*
X131942189Y-75956800D01*
X131506611Y-75956800D01*
X131492469Y-75942658D01*
X131710258Y-75724869D01*
X131724400Y-75739011D01*
X132516580Y-74946831D01*
X132490686Y-74868554D01*
X132524400Y-74868554D01*
X132746746Y-74826717D01*
X132950958Y-74695310D01*
X133087956Y-74494807D01*
X133095653Y-74456800D01*
X138434329Y-74456800D01*
X138381057Y-74585094D01*
X138381057Y-74585094D01*
G37*
X138381057Y-74585094D02*
X138380744Y-74943136D01*
X138517472Y-75274043D01*
X138555900Y-75312538D01*
X138555900Y-76712495D01*
X137060205Y-78208190D01*
X137007164Y-78208144D01*
X136676257Y-78344872D01*
X136422862Y-78597825D01*
X136285557Y-78928494D01*
X136285244Y-79286536D01*
X136421972Y-79617443D01*
X136674925Y-79870838D01*
X136793379Y-79920024D01*
X136793244Y-80073936D01*
X136929972Y-80404843D01*
X137052356Y-80527440D01*
X134764196Y-82815600D01*
X132384800Y-82815600D01*
X132173963Y-82857538D01*
X132107354Y-82870787D01*
X131872148Y-83027948D01*
X129630728Y-85269368D01*
X129603064Y-85269344D01*
X129272157Y-85406072D01*
X129018762Y-85659025D01*
X128881457Y-85989694D01*
X128881144Y-86347736D01*
X129017872Y-86678643D01*
X129056300Y-86717138D01*
X129056300Y-92176600D01*
X129091647Y-92354300D01*
X129111487Y-92454046D01*
X129268648Y-92689252D01*
X132510700Y-95931305D01*
X132510700Y-100825300D01*
X132515967Y-100851781D01*
X132393405Y-100555157D01*
X131943711Y-100104677D01*
X131355856Y-99860578D01*
X130719337Y-99860023D01*
X130131057Y-100103095D01*
X129680577Y-100552789D01*
X129604792Y-100735300D01*
X125967838Y-100735300D01*
X125893405Y-100555157D01*
X125443711Y-100104677D01*
X124855856Y-99860578D01*
X124219337Y-99860023D01*
X123631057Y-100103095D01*
X123180577Y-100552789D01*
X123055296Y-100854500D01*
X122916829Y-100854500D01*
X122986317Y-100687154D01*
X124987586Y-98685885D01*
X125161004Y-98426347D01*
X125221900Y-98120200D01*
X125221900Y-94608285D01*
X125461687Y-94848491D01*
X125865837Y-95016308D01*
X126303444Y-95016690D01*
X126707886Y-94849578D01*
X127017591Y-94540413D01*
X127185408Y-94136263D01*
X127185790Y-93698656D01*
X127018678Y-93294214D01*
X126709513Y-92984509D01*
X126305363Y-92816692D01*
X125867756Y-92816310D01*
X125463314Y-92983422D01*
X125221900Y-93224415D01*
X125221900Y-92068285D01*
X125461687Y-92308491D01*
X125865837Y-92476308D01*
X126303444Y-92476690D01*
X126707886Y-92309578D01*
X127017591Y-92000413D01*
X127185408Y-91596263D01*
X127185790Y-91158656D01*
X127018678Y-90754214D01*
X126709513Y-90444509D01*
X126305363Y-90276692D01*
X125867756Y-90276310D01*
X125463314Y-90443422D01*
X125221900Y-90684415D01*
X125221900Y-84933370D01*
X125914686Y-84240585D01*
X126088104Y-83981047D01*
X126112948Y-83856146D01*
X126149000Y-83674900D01*
X126149000Y-79846070D01*
X129028301Y-76966769D01*
X130932220Y-76966769D01*
X131010043Y-77202029D01*
X131540948Y-77380615D01*
X132099782Y-77342437D01*
X132438757Y-77202029D01*
X132516580Y-76966769D01*
X131724400Y-76174589D01*
X130932220Y-76966769D01*
X129028301Y-76966769D01*
X130340559Y-75654511D01*
X130300585Y-75773348D01*
X130338763Y-76332182D01*
X130479171Y-76671157D01*
X130714431Y-76748980D01*
X131506611Y-75956800D01*
X131942189Y-75956800D01*
X132734369Y-76748980D01*
X132969629Y-76671157D01*
X133148215Y-76140252D01*
X133110037Y-75581418D01*
X132969629Y-75242443D01*
X132734369Y-75164620D01*
X131942189Y-75956800D01*
X131506611Y-75956800D01*
X131492469Y-75942658D01*
X131710258Y-75724869D01*
X131724400Y-75739011D01*
X132516580Y-74946831D01*
X132490686Y-74868554D01*
X132524400Y-74868554D01*
X132746746Y-74826717D01*
X132950958Y-74695310D01*
X133087956Y-74494807D01*
X133095653Y-74456800D01*
X138434329Y-74456800D01*
X138381057Y-74585094D01*
G36*
X149654900Y-42736729D02*
X149391784Y-42560920D01*
X149009100Y-42484800D01*
X148956730Y-42484800D01*
X148943117Y-42412454D01*
X148811710Y-42208242D01*
X148611207Y-42071244D01*
X148373200Y-42023046D01*
X146673200Y-42023046D01*
X146450854Y-42064883D01*
X146246642Y-42196290D01*
X146109644Y-42396793D01*
X146061446Y-42634800D01*
X146061446Y-44334800D01*
X146103283Y-44557146D01*
X146234690Y-44761358D01*
X146435193Y-44898356D01*
X146577672Y-44927209D01*
X146469488Y-44999495D01*
X146155168Y-45469909D01*
X146044793Y-46024800D01*
X146155168Y-46579691D01*
X146469488Y-47050105D01*
X146835701Y-47294800D01*
X146469488Y-47539495D01*
X146155168Y-48009909D01*
X146044793Y-48564800D01*
X146155168Y-49119691D01*
X146469488Y-49590105D01*
X146835701Y-49834800D01*
X146469488Y-50079495D01*
X146155168Y-50549909D01*
X146044793Y-51104800D01*
X146155168Y-51659691D01*
X146469488Y-52130105D01*
X146835701Y-52374800D01*
X146469488Y-52619495D01*
X146155168Y-53089909D01*
X146044793Y-53644800D01*
X146155168Y-54199691D01*
X146469488Y-54670105D01*
X146835701Y-54914800D01*
X146469488Y-55159495D01*
X146155168Y-55629909D01*
X146044793Y-56184800D01*
X146155168Y-56739691D01*
X146469488Y-57210105D01*
X146835701Y-57454800D01*
X146469488Y-57699495D01*
X146155168Y-58169909D01*
X146044793Y-58724800D01*
X146155168Y-59279691D01*
X146469488Y-59750105D01*
X146835701Y-59994800D01*
X146469488Y-60239495D01*
X146155168Y-60709909D01*
X146044793Y-61264800D01*
X146155168Y-61819691D01*
X146469488Y-62290105D01*
X146835701Y-62534800D01*
X146469488Y-62779495D01*
X146155168Y-63249909D01*
X146044793Y-63804800D01*
X146155168Y-64359691D01*
X146469488Y-64830105D01*
X146848332Y-65083240D01*
X146634346Y-65189059D01*
X146259723Y-65617184D01*
X146115297Y-65965890D01*
X146226311Y-66190800D01*
X147369200Y-66190800D01*
X147369200Y-66170800D01*
X147677200Y-66170800D01*
X147677200Y-66190800D01*
X147697200Y-66190800D01*
X147697200Y-66498800D01*
X147677200Y-66498800D01*
X147677200Y-67642656D01*
X147902111Y-67752715D01*
X148412054Y-67500541D01*
X148707600Y-67162786D01*
X148707600Y-70273986D01*
X147405640Y-71575946D01*
X146508100Y-71575946D01*
X146285754Y-71617783D01*
X146081542Y-71749190D01*
X145944544Y-71949693D01*
X145926722Y-72037700D01*
X143332200Y-72037700D01*
X142949516Y-72113820D01*
X142625093Y-72330593D01*
X142498886Y-72456800D01*
X133098522Y-72456800D01*
X133094317Y-72434454D01*
X132962910Y-72230242D01*
X132762407Y-72093244D01*
X132524400Y-72045046D01*
X130924400Y-72045046D01*
X130702054Y-72086883D01*
X130497842Y-72218290D01*
X130360844Y-72418793D01*
X130353147Y-72456800D01*
X122351800Y-72456800D01*
X121969117Y-72532920D01*
X121783716Y-72656801D01*
X121644693Y-72749693D01*
X120565986Y-73828400D01*
X102903214Y-73828400D01*
X98332007Y-69257193D01*
X98007584Y-69040420D01*
X97624900Y-68964300D01*
X88882413Y-68964300D01*
X88429114Y-68511000D01*
X108533846Y-68511000D01*
X108533846Y-69411000D01*
X108575683Y-69633346D01*
X108707090Y-69837558D01*
X108907593Y-69974556D01*
X108955898Y-69984338D01*
X108813062Y-70126925D01*
X108675757Y-70457594D01*
X108675444Y-70815636D01*
X108812172Y-71146543D01*
X109065125Y-71399938D01*
X109395794Y-71537243D01*
X109753836Y-71537556D01*
X110084743Y-71400828D01*
X110338138Y-71147875D01*
X110475443Y-70817206D01*
X110475756Y-70459164D01*
X110470600Y-70446686D01*
X110470600Y-69999234D01*
X110567946Y-69980917D01*
X110772158Y-69849510D01*
X110845608Y-69742012D01*
X110907090Y-69837558D01*
X111104125Y-69972187D01*
X110933642Y-70081890D01*
X110796644Y-70282393D01*
X110748446Y-70520400D01*
X110748446Y-71770400D01*
X110790283Y-71992746D01*
X110921690Y-72196958D01*
X111122193Y-72333956D01*
X111360200Y-72382154D01*
X112860200Y-72382154D01*
X113082546Y-72340317D01*
X113286758Y-72208910D01*
X113360208Y-72101412D01*
X113421690Y-72196958D01*
X113622193Y-72333956D01*
X113860200Y-72382154D01*
X115360200Y-72382154D01*
X115582546Y-72340317D01*
X115786758Y-72208910D01*
X115923756Y-72008407D01*
X115971954Y-71770400D01*
X115971954Y-70520400D01*
X115930117Y-70298054D01*
X115799439Y-70094975D01*
X115919707Y-69974707D01*
X115935893Y-69950483D01*
X116136480Y-69650283D01*
X116212600Y-69267600D01*
X116212600Y-66989200D01*
X117162386Y-66989200D01*
X120273093Y-70099907D01*
X120597517Y-70316680D01*
X120980200Y-70392800D01*
X135343438Y-70392800D01*
X135500718Y-70628187D01*
X136052238Y-70996700D01*
X136702800Y-71126105D01*
X137353362Y-70996700D01*
X137904882Y-70628187D01*
X138273395Y-70076667D01*
X138402800Y-69426105D01*
X138402800Y-69359495D01*
X138273395Y-68708933D01*
X137904882Y-68157413D01*
X137353362Y-67788900D01*
X136702800Y-67659495D01*
X136052238Y-67788900D01*
X135500718Y-68157413D01*
X135343438Y-68392800D01*
X121394414Y-68392800D01*
X119725324Y-66723710D01*
X146115297Y-66723710D01*
X146259723Y-67072416D01*
X146634346Y-67500541D01*
X147144289Y-67752715D01*
X147369200Y-67642656D01*
X147369200Y-66498800D01*
X146226311Y-66498800D01*
X146115297Y-66723710D01*
X119725324Y-66723710D01*
X118283707Y-65282093D01*
X117959284Y-65065320D01*
X117576600Y-64989200D01*
X115212600Y-64989200D01*
X115020323Y-65027446D01*
X114212600Y-65027446D01*
X113990254Y-65069283D01*
X113786042Y-65200690D01*
X113649044Y-65401193D01*
X113600846Y-65639200D01*
X113600846Y-66339200D01*
X113642683Y-66561546D01*
X113774090Y-66765758D01*
X113974593Y-66902756D01*
X114212600Y-66950954D01*
X114212600Y-68853386D01*
X113903093Y-69162893D01*
X113686320Y-69487316D01*
X113629000Y-69775484D01*
X113610200Y-69870000D01*
X113610200Y-69968278D01*
X113433642Y-70081890D01*
X113360192Y-70189388D01*
X113298710Y-70093842D01*
X113098207Y-69956844D01*
X112875457Y-69911736D01*
X112972158Y-69849510D01*
X113109156Y-69649007D01*
X113157354Y-69411000D01*
X113157354Y-68511000D01*
X113115517Y-68288654D01*
X112984110Y-68084442D01*
X112783607Y-67947444D01*
X112612600Y-67912814D01*
X112612600Y-67900954D01*
X112812600Y-67900954D01*
X113034946Y-67859117D01*
X113239158Y-67727710D01*
X113376156Y-67527207D01*
X113424354Y-67289200D01*
X113424354Y-66589200D01*
X113382517Y-66366854D01*
X113251110Y-66162642D01*
X113050607Y-66025644D01*
X112872774Y-65989632D01*
X113034946Y-65959117D01*
X113239158Y-65827710D01*
X113376156Y-65627207D01*
X113424354Y-65389200D01*
X113424354Y-64689200D01*
X113382517Y-64466854D01*
X113251110Y-64262642D01*
X113050607Y-64125644D01*
X112812600Y-64077446D01*
X112612600Y-64077446D01*
X112612600Y-63654200D01*
X112571159Y-63445859D01*
X112571256Y-63334464D01*
X112434528Y-63003557D01*
X112181575Y-62750162D01*
X111850906Y-62612857D01*
X111492864Y-62612544D01*
X111161957Y-62749272D01*
X110908562Y-63002225D01*
X110771257Y-63332894D01*
X110770944Y-63690936D01*
X110907672Y-64021843D01*
X110963178Y-64077446D01*
X110812600Y-64077446D01*
X110590254Y-64119283D01*
X110386042Y-64250690D01*
X110249044Y-64451193D01*
X110200846Y-64689200D01*
X110200846Y-65389200D01*
X110242683Y-65611546D01*
X110374090Y-65815758D01*
X110574593Y-65952756D01*
X110752426Y-65988768D01*
X110590254Y-66019283D01*
X110386042Y-66150690D01*
X110249044Y-66351193D01*
X110200846Y-66589200D01*
X110200846Y-67289200D01*
X110242683Y-67511546D01*
X110374090Y-67715758D01*
X110574593Y-67852756D01*
X110812600Y-67900954D01*
X111012600Y-67900954D01*
X111012600Y-68012287D01*
X110919042Y-68072490D01*
X110845592Y-68179988D01*
X110784110Y-68084442D01*
X110583607Y-67947444D01*
X110345600Y-67899246D01*
X109145600Y-67899246D01*
X108923254Y-67941083D01*
X108719042Y-68072490D01*
X108582044Y-68272993D01*
X108533846Y-68511000D01*
X88429114Y-68511000D01*
X88337900Y-68419786D01*
X88337900Y-67380594D01*
X88391612Y-67344705D01*
X88408520Y-67319400D01*
X88444370Y-67319400D01*
X88457983Y-67391746D01*
X88589390Y-67595958D01*
X88789893Y-67732956D01*
X89027900Y-67781154D01*
X90727900Y-67781154D01*
X90950246Y-67739317D01*
X91154458Y-67607910D01*
X91291456Y-67407407D01*
X91309278Y-67319400D01*
X92457856Y-67319400D01*
X92475900Y-67323054D01*
X93375900Y-67323054D01*
X93598246Y-67281217D01*
X93758786Y-67177912D01*
X93863493Y-67249456D01*
X94101500Y-67297654D01*
X95001500Y-67297654D01*
X95223846Y-67255817D01*
X95343542Y-67178795D01*
X95539893Y-67312956D01*
X95777900Y-67361154D01*
X96677900Y-67361154D01*
X96900246Y-67319317D01*
X97085359Y-67200200D01*
X97113000Y-67200200D01*
X97130090Y-67226758D01*
X97330593Y-67363756D01*
X97568600Y-67411954D01*
X98468600Y-67411954D01*
X98690946Y-67370117D01*
X98895158Y-67238710D01*
X99032156Y-67038207D01*
X99080354Y-66800200D01*
X99080354Y-65600200D01*
X99038517Y-65377854D01*
X98907110Y-65173642D01*
X98857142Y-65139500D01*
X101430400Y-65139500D01*
X101430400Y-65579438D01*
X101522962Y-65802904D01*
X101693995Y-65973937D01*
X101917461Y-66066500D01*
X102482400Y-66066500D01*
X102634400Y-65914500D01*
X102634400Y-64987500D01*
X101582400Y-64987500D01*
X101430400Y-65139500D01*
X98857142Y-65139500D01*
X98799612Y-65100192D01*
X98895158Y-65038710D01*
X99032156Y-64838207D01*
X99080354Y-64600200D01*
X99080354Y-64087562D01*
X101430400Y-64087562D01*
X101430400Y-64527500D01*
X101582400Y-64679500D01*
X102634400Y-64679500D01*
X102634400Y-63752500D01*
X102942400Y-63752500D01*
X102942400Y-64679500D01*
X102962400Y-64679500D01*
X102962400Y-64987500D01*
X102942400Y-64987500D01*
X102942400Y-65914500D01*
X103094400Y-66066500D01*
X103659339Y-66066500D01*
X103882805Y-65973937D01*
X104049693Y-65807049D01*
X104099890Y-65885058D01*
X104300393Y-66022056D01*
X104538400Y-66070254D01*
X106038400Y-66070254D01*
X106260746Y-66028417D01*
X106464958Y-65897010D01*
X106601956Y-65696507D01*
X106650154Y-65458500D01*
X106650154Y-64208500D01*
X106608317Y-63986154D01*
X106476910Y-63781942D01*
X106279359Y-63646961D01*
X106360643Y-63451206D01*
X106360956Y-63093164D01*
X106224228Y-62762257D01*
X105971275Y-62508862D01*
X105640606Y-62371557D01*
X105282564Y-62371244D01*
X104951657Y-62507972D01*
X104698262Y-62760925D01*
X104560957Y-63091594D01*
X104560644Y-63449636D01*
X104563400Y-63456306D01*
X104563400Y-63596746D01*
X104538400Y-63596746D01*
X104316054Y-63638583D01*
X104111842Y-63769990D01*
X104050098Y-63860356D01*
X103882805Y-63693063D01*
X103659339Y-63600500D01*
X103094400Y-63600500D01*
X102942400Y-63752500D01*
X102634400Y-63752500D01*
X102482400Y-63600500D01*
X101917461Y-63600500D01*
X101693995Y-63693063D01*
X101522962Y-63864096D01*
X101430400Y-64087562D01*
X99080354Y-64087562D01*
X99080354Y-63400200D01*
X99038517Y-63177854D01*
X98907110Y-62973642D01*
X98743600Y-62861920D01*
X98743600Y-62852300D01*
X98693731Y-62601588D01*
X98688413Y-62574854D01*
X98531252Y-62339648D01*
X95361340Y-59169736D01*
X103684344Y-59169736D01*
X103821072Y-59500643D01*
X104074025Y-59754038D01*
X104404694Y-59891343D01*
X104459086Y-59891391D01*
X104986248Y-60418553D01*
X105221454Y-60575713D01*
X105267485Y-60584869D01*
X105498900Y-60630900D01*
X107569000Y-60630900D01*
X107800415Y-60584869D01*
X107846446Y-60575713D01*
X108081652Y-60418552D01*
X109139456Y-59360748D01*
X120191385Y-59360748D01*
X120229563Y-59919582D01*
X120369971Y-60258557D01*
X120430680Y-60278639D01*
X120388642Y-60305690D01*
X120251644Y-60506193D01*
X120203446Y-60744200D01*
X120203446Y-62344200D01*
X120245283Y-62566546D01*
X120376690Y-62770758D01*
X120577193Y-62907756D01*
X120815200Y-62955954D01*
X122415200Y-62955954D01*
X122637546Y-62914117D01*
X122841758Y-62782710D01*
X122978756Y-62582207D01*
X123026954Y-62344200D01*
X123026954Y-60744200D01*
X122985117Y-60521854D01*
X122853710Y-60317642D01*
X122797636Y-60279329D01*
X122860429Y-60258557D01*
X123039015Y-59727652D01*
X123000837Y-59168818D01*
X122860429Y-58829843D01*
X122625169Y-58752020D01*
X121832989Y-59544200D01*
X121847131Y-59558342D01*
X121629342Y-59776131D01*
X121615200Y-59761989D01*
X121601058Y-59776131D01*
X121383269Y-59558342D01*
X121397411Y-59544200D01*
X120605231Y-58752020D01*
X120369971Y-58829843D01*
X120191385Y-59360748D01*
X109139456Y-59360748D01*
X109965973Y-58534231D01*
X120823020Y-58534231D01*
X121615200Y-59326411D01*
X122407380Y-58534231D01*
X122329557Y-58298971D01*
X122311807Y-58293000D01*
X124453895Y-58293000D01*
X124583300Y-58943562D01*
X124951813Y-59495082D01*
X125503333Y-59863595D01*
X126153895Y-59993000D01*
X126220505Y-59993000D01*
X126871067Y-59863595D01*
X127422587Y-59495082D01*
X127774427Y-58968515D01*
X129549942Y-57193000D01*
X132095446Y-57193000D01*
X132095446Y-59393000D01*
X132137283Y-59615346D01*
X132268690Y-59819558D01*
X132469193Y-59956556D01*
X132707200Y-60004754D01*
X134907200Y-60004754D01*
X135129546Y-59962917D01*
X135333758Y-59831510D01*
X135470756Y-59631007D01*
X135491877Y-59526711D01*
X135602800Y-59637635D01*
X135602800Y-60061046D01*
X135380454Y-60102883D01*
X135176242Y-60234290D01*
X135039244Y-60434793D01*
X134991046Y-60672800D01*
X134991046Y-62872800D01*
X135032883Y-63095146D01*
X135164290Y-63299358D01*
X135364793Y-63436356D01*
X135602800Y-63484554D01*
X137802800Y-63484554D01*
X138025146Y-63442717D01*
X138229358Y-63311310D01*
X138366356Y-63110807D01*
X138414554Y-62872800D01*
X138414554Y-60672800D01*
X138372717Y-60450454D01*
X138241310Y-60246242D01*
X138040807Y-60109244D01*
X137802800Y-60061046D01*
X137802800Y-59182000D01*
X137719067Y-58761048D01*
X137608747Y-58595943D01*
X137480618Y-58404183D01*
X136591617Y-57515183D01*
X136447151Y-57418654D01*
X136234752Y-57276733D01*
X135813800Y-57193000D01*
X135518954Y-57193000D01*
X135477117Y-56970654D01*
X135345710Y-56766442D01*
X135145207Y-56629444D01*
X134907200Y-56581246D01*
X132707200Y-56581246D01*
X132484854Y-56623083D01*
X132280642Y-56754490D01*
X132143644Y-56954993D01*
X132095446Y-57193000D01*
X129549942Y-57193000D01*
X130888788Y-55854154D01*
X131645600Y-55854154D01*
X131867946Y-55812317D01*
X132072158Y-55680910D01*
X132209156Y-55480407D01*
X132257354Y-55242400D01*
X132257354Y-51742400D01*
X132215517Y-51520054D01*
X132084110Y-51315842D01*
X131883607Y-51178844D01*
X131645600Y-51130646D01*
X128145600Y-51130646D01*
X127923254Y-51172483D01*
X127719042Y-51303890D01*
X127582044Y-51504393D01*
X127553600Y-51644853D01*
X127553600Y-50798400D01*
X127401600Y-50646400D01*
X125349600Y-50646400D01*
X125349600Y-52698400D01*
X125501600Y-52850400D01*
X127066538Y-52850400D01*
X127290004Y-52757838D01*
X127461037Y-52586805D01*
X127533846Y-52411029D01*
X127533846Y-54683612D01*
X125478380Y-56739078D01*
X124951813Y-57090918D01*
X124583300Y-57642438D01*
X124453895Y-58293000D01*
X122311807Y-58293000D01*
X121798652Y-58120385D01*
X121239818Y-58158563D01*
X120900843Y-58298971D01*
X120823020Y-58534231D01*
X109965973Y-58534231D01*
X110621652Y-57878553D01*
X110733771Y-57710755D01*
X110778813Y-57643345D01*
X110834000Y-57365900D01*
X110834000Y-56185635D01*
X110867359Y-56164169D01*
X112161620Y-56164169D01*
X112239443Y-56399429D01*
X112770348Y-56578015D01*
X113329182Y-56539837D01*
X113668157Y-56399429D01*
X113745980Y-56164169D01*
X112953800Y-55371989D01*
X112161620Y-56164169D01*
X110867359Y-56164169D01*
X110985558Y-56088110D01*
X111122556Y-55887607D01*
X111170754Y-55649600D01*
X111170754Y-54970748D01*
X111529985Y-54970748D01*
X111568163Y-55529582D01*
X111708571Y-55868557D01*
X111943831Y-55946380D01*
X112736011Y-55154200D01*
X113171589Y-55154200D01*
X113963769Y-55946380D01*
X114199029Y-55868557D01*
X114377615Y-55337652D01*
X114339437Y-54778818D01*
X114199029Y-54439843D01*
X113963769Y-54362020D01*
X113171589Y-55154200D01*
X112736011Y-55154200D01*
X111943831Y-54362020D01*
X111708571Y-54439843D01*
X111529985Y-54970748D01*
X111170754Y-54970748D01*
X111170754Y-54449600D01*
X111128917Y-54227254D01*
X110997510Y-54023042D01*
X110890012Y-53949592D01*
X110985558Y-53888110D01*
X111122556Y-53687607D01*
X111169822Y-53454200D01*
X111542046Y-53454200D01*
X111583883Y-53676546D01*
X111715290Y-53880758D01*
X111915793Y-54017756D01*
X112153800Y-54065954D01*
X112187514Y-54065954D01*
X112161620Y-54144231D01*
X112953800Y-54936411D01*
X113745980Y-54144231D01*
X113720086Y-54065954D01*
X113753800Y-54065954D01*
X113976146Y-54024117D01*
X114180358Y-53892710D01*
X114317356Y-53692207D01*
X114365554Y-53454200D01*
X114365554Y-51854200D01*
X114323717Y-51631854D01*
X114192310Y-51427642D01*
X113991807Y-51290644D01*
X113753800Y-51242446D01*
X112153800Y-51242446D01*
X111931454Y-51284283D01*
X111727242Y-51415690D01*
X111590244Y-51616193D01*
X111542046Y-51854200D01*
X111017560Y-51854200D01*
X110997510Y-51823042D01*
X110797007Y-51686044D01*
X110559000Y-51637846D01*
X109659000Y-51637846D01*
X109436654Y-51679683D01*
X109232442Y-51811090D01*
X109095444Y-52011593D01*
X109047246Y-52249600D01*
X109047246Y-53449600D01*
X109089083Y-53671946D01*
X109220490Y-53876158D01*
X109327988Y-53949608D01*
X109232442Y-54011090D01*
X109095444Y-54211593D01*
X109047246Y-54449600D01*
X109047246Y-55649600D01*
X109089083Y-55871946D01*
X109220490Y-56076158D01*
X109384000Y-56187880D01*
X109384000Y-57065595D01*
X107268696Y-59180900D01*
X106640246Y-59180900D01*
X106640356Y-59054564D01*
X106503628Y-58723657D01*
X106493189Y-58713200D01*
X106768900Y-58713200D01*
X107000315Y-58667169D01*
X107046346Y-58658013D01*
X107138902Y-58596168D01*
X107239236Y-58596256D01*
X107570143Y-58459528D01*
X107823538Y-58206575D01*
X107960843Y-57875906D01*
X107961156Y-57517864D01*
X107824428Y-57186957D01*
X107695700Y-57058004D01*
X108116151Y-56637554D01*
X108295600Y-56637554D01*
X108517946Y-56595717D01*
X108722158Y-56464310D01*
X108859156Y-56263807D01*
X108907354Y-56025800D01*
X108907354Y-54525800D01*
X108865517Y-54303454D01*
X108734110Y-54099242D01*
X108643744Y-54037498D01*
X108811037Y-53870205D01*
X108903600Y-53646739D01*
X108903600Y-53081800D01*
X108751600Y-52929800D01*
X107824600Y-52929800D01*
X107824600Y-52949800D01*
X107516600Y-52949800D01*
X107516600Y-52929800D01*
X106745000Y-52929800D01*
X106719600Y-52904400D01*
X105792600Y-52904400D01*
X105792600Y-52924400D01*
X105484600Y-52924400D01*
X105484600Y-52904400D01*
X104557600Y-52904400D01*
X104405600Y-53056400D01*
X104405600Y-53621339D01*
X104498163Y-53844805D01*
X104665051Y-54011693D01*
X104587042Y-54061890D01*
X104450044Y-54262393D01*
X104401846Y-54500400D01*
X104401846Y-55885478D01*
X104380200Y-55994300D01*
X104380200Y-56246452D01*
X104342662Y-56283925D01*
X104205357Y-56614594D01*
X104205044Y-56972636D01*
X104341772Y-57303543D01*
X104594725Y-57556938D01*
X104925394Y-57694243D01*
X105081328Y-57694379D01*
X105070387Y-57710754D01*
X105070387Y-57710755D01*
X105015200Y-57988200D01*
X105015200Y-58195837D01*
X104764306Y-58091657D01*
X104406264Y-58091344D01*
X104075357Y-58228072D01*
X103821962Y-58481025D01*
X103684657Y-58811694D01*
X103684344Y-59169736D01*
X95361340Y-59169736D01*
X91838352Y-55646748D01*
X91603146Y-55489587D01*
X91556994Y-55480407D01*
X91325700Y-55434400D01*
X91132269Y-55434400D01*
X90931612Y-55134095D01*
X90602900Y-54914457D01*
X90602900Y-54864343D01*
X90931612Y-54644705D01*
X91245932Y-54174291D01*
X91356307Y-53619400D01*
X91245932Y-53064509D01*
X90931612Y-52594095D01*
X90565399Y-52349400D01*
X90931612Y-52104705D01*
X91082114Y-51879461D01*
X104405600Y-51879461D01*
X104405600Y-52444400D01*
X104557600Y-52596400D01*
X105484600Y-52596400D01*
X105484600Y-51544400D01*
X105792600Y-51544400D01*
X105792600Y-52596400D01*
X106564200Y-52596400D01*
X106589600Y-52621800D01*
X107516600Y-52621800D01*
X107516600Y-51569800D01*
X107824600Y-51569800D01*
X107824600Y-52621800D01*
X108751600Y-52621800D01*
X108903600Y-52469800D01*
X108903600Y-51904861D01*
X108811037Y-51681395D01*
X108640004Y-51510362D01*
X108416538Y-51417800D01*
X107976600Y-51417800D01*
X107824600Y-51569800D01*
X107516600Y-51569800D01*
X107364600Y-51417800D01*
X106924662Y-51417800D01*
X106701196Y-51510362D01*
X106667300Y-51544258D01*
X106608004Y-51484962D01*
X106384538Y-51392400D01*
X105944600Y-51392400D01*
X105792600Y-51544400D01*
X105484600Y-51544400D01*
X105332600Y-51392400D01*
X104892662Y-51392400D01*
X104669196Y-51484962D01*
X104498163Y-51655995D01*
X104405600Y-51879461D01*
X91082114Y-51879461D01*
X91245932Y-51634291D01*
X91356307Y-51079400D01*
X91300413Y-50798400D01*
X122837600Y-50798400D01*
X122837600Y-52363339D01*
X122930163Y-52586805D01*
X123101196Y-52757838D01*
X123324662Y-52850400D01*
X124889600Y-52850400D01*
X125041600Y-52698400D01*
X125041600Y-50646400D01*
X122989600Y-50646400D01*
X122837600Y-50798400D01*
X91300413Y-50798400D01*
X91245932Y-50524509D01*
X90931612Y-50054095D01*
X90565399Y-49809400D01*
X90931612Y-49564705D01*
X91245932Y-49094291D01*
X91339984Y-48621461D01*
X122837600Y-48621461D01*
X122837600Y-50186400D01*
X122989600Y-50338400D01*
X125041600Y-50338400D01*
X125041600Y-48286400D01*
X125349600Y-48286400D01*
X125349600Y-50338400D01*
X127401600Y-50338400D01*
X127553600Y-50186400D01*
X127553600Y-49401966D01*
X127630163Y-49586805D01*
X127801196Y-49757838D01*
X128024662Y-49850400D01*
X129589600Y-49850400D01*
X129741600Y-49698400D01*
X129741600Y-47646400D01*
X130049600Y-47646400D01*
X130049600Y-49698400D01*
X130201600Y-49850400D01*
X131766538Y-49850400D01*
X131990004Y-49757838D01*
X132161037Y-49586805D01*
X132253600Y-49363339D01*
X132253600Y-47798400D01*
X132101600Y-47646400D01*
X130049600Y-47646400D01*
X129741600Y-47646400D01*
X127689600Y-47646400D01*
X127537600Y-47798400D01*
X127537600Y-48582834D01*
X127461037Y-48397995D01*
X127290004Y-48226962D01*
X127066538Y-48134400D01*
X125501600Y-48134400D01*
X125349600Y-48286400D01*
X125041600Y-48286400D01*
X124889600Y-48134400D01*
X123324662Y-48134400D01*
X123101196Y-48226962D01*
X122930163Y-48397995D01*
X122837600Y-48621461D01*
X91339984Y-48621461D01*
X91356307Y-48539400D01*
X91245932Y-47984509D01*
X90931612Y-47514095D01*
X90565399Y-47269400D01*
X90931612Y-47024705D01*
X91021657Y-46889942D01*
X103506018Y-46889942D01*
X103665534Y-47276000D01*
X103960646Y-47571628D01*
X104346426Y-47731818D01*
X104764142Y-47732182D01*
X105150200Y-47572666D01*
X105445828Y-47277554D01*
X105606018Y-46891774D01*
X105606019Y-46889942D01*
X107906018Y-46889942D01*
X108065534Y-47276000D01*
X108360646Y-47571628D01*
X108746426Y-47731818D01*
X109164142Y-47732182D01*
X109550200Y-47572666D01*
X109845828Y-47277554D01*
X110006018Y-46891774D01*
X110006382Y-46474058D01*
X109846866Y-46088000D01*
X109551754Y-45792372D01*
X109165974Y-45632182D01*
X108748258Y-45631818D01*
X108362200Y-45791334D01*
X108066572Y-46086446D01*
X107906382Y-46472226D01*
X107906018Y-46889942D01*
X105606019Y-46889942D01*
X105606382Y-46474058D01*
X105446866Y-46088000D01*
X105151754Y-45792372D01*
X104765974Y-45632182D01*
X104348258Y-45631818D01*
X103962200Y-45791334D01*
X103666572Y-46086446D01*
X103506382Y-46472226D01*
X103506018Y-46889942D01*
X91021657Y-46889942D01*
X91245932Y-46554291D01*
X91356307Y-45999400D01*
X91281131Y-45621461D01*
X127537600Y-45621461D01*
X127537600Y-47186400D01*
X127689600Y-47338400D01*
X129741600Y-47338400D01*
X129741600Y-45286400D01*
X130049600Y-45286400D01*
X130049600Y-47338400D01*
X132101600Y-47338400D01*
X132253600Y-47186400D01*
X132253600Y-45621461D01*
X132161037Y-45397995D01*
X131990004Y-45226962D01*
X131766538Y-45134400D01*
X130201600Y-45134400D01*
X130049600Y-45286400D01*
X129741600Y-45286400D01*
X129589600Y-45134400D01*
X128024662Y-45134400D01*
X127801196Y-45226962D01*
X127630163Y-45397995D01*
X127537600Y-45621461D01*
X91281131Y-45621461D01*
X91245932Y-45444509D01*
X90931612Y-44974095D01*
X90565399Y-44729400D01*
X90931612Y-44484705D01*
X91245932Y-44014291D01*
X91356307Y-43459400D01*
X91245932Y-42904509D01*
X90931612Y-42434095D01*
X90461198Y-42119775D01*
X89906307Y-42009400D01*
X89849493Y-42009400D01*
X89294602Y-42119775D01*
X88824188Y-42434095D01*
X88610523Y-42753867D01*
X88601377Y-42731784D01*
X88226754Y-42303659D01*
X87716811Y-42051485D01*
X87491900Y-42161544D01*
X87491900Y-43305400D01*
X87511900Y-43305400D01*
X87511900Y-43613400D01*
X87491900Y-43613400D01*
X87491900Y-45845400D01*
X87511900Y-45845400D01*
X87511900Y-46153400D01*
X87491900Y-46153400D01*
X87491900Y-48385400D01*
X87511900Y-48385400D01*
X87511900Y-48693400D01*
X87491900Y-48693400D01*
X87491900Y-50925400D01*
X87511900Y-50925400D01*
X87511900Y-51233400D01*
X87491900Y-51233400D01*
X87491900Y-53465400D01*
X87511900Y-53465400D01*
X87511900Y-53773400D01*
X87491900Y-53773400D01*
X87491900Y-56005400D01*
X87511900Y-56005400D01*
X87511900Y-56313400D01*
X87491900Y-56313400D01*
X87491900Y-58545400D01*
X87511900Y-58545400D01*
X87511900Y-58853400D01*
X87491900Y-58853400D01*
X87491900Y-61085400D01*
X87511900Y-61085400D01*
X87511900Y-61393400D01*
X87491900Y-61393400D01*
X87491900Y-63625400D01*
X87511900Y-63625400D01*
X87511900Y-63933400D01*
X87491900Y-63933400D01*
X87491900Y-63953400D01*
X87183900Y-63953400D01*
X87183900Y-63933400D01*
X86041011Y-63933400D01*
X85929997Y-64158310D01*
X86074423Y-64507016D01*
X86449046Y-64935141D01*
X86663032Y-65040960D01*
X86284188Y-65294095D01*
X85969868Y-65764509D01*
X85859493Y-66319400D01*
X85969868Y-66874291D01*
X86284188Y-67344705D01*
X86337900Y-67380594D01*
X86337900Y-68834000D01*
X86407826Y-69185543D01*
X86300593Y-69257193D01*
X85282400Y-70275386D01*
X85282400Y-61618310D01*
X85929997Y-61618310D01*
X86074423Y-61967016D01*
X86449046Y-62395141D01*
X86680099Y-62509400D01*
X86449046Y-62623659D01*
X86074423Y-63051784D01*
X85929997Y-63400490D01*
X86041011Y-63625400D01*
X87183900Y-63625400D01*
X87183900Y-61393400D01*
X86041011Y-61393400D01*
X85929997Y-61618310D01*
X85282400Y-61618310D01*
X85282400Y-59078310D01*
X85929997Y-59078310D01*
X86074423Y-59427016D01*
X86449046Y-59855141D01*
X86680099Y-59969400D01*
X86449046Y-60083659D01*
X86074423Y-60511784D01*
X85929997Y-60860490D01*
X86041011Y-61085400D01*
X87183900Y-61085400D01*
X87183900Y-58853400D01*
X86041011Y-58853400D01*
X85929997Y-59078310D01*
X85282400Y-59078310D01*
X85282400Y-56538310D01*
X85929997Y-56538310D01*
X86074423Y-56887016D01*
X86449046Y-57315141D01*
X86680099Y-57429400D01*
X86449046Y-57543659D01*
X86074423Y-57971784D01*
X85929997Y-58320490D01*
X86041011Y-58545400D01*
X87183900Y-58545400D01*
X87183900Y-56313400D01*
X86041011Y-56313400D01*
X85929997Y-56538310D01*
X85282400Y-56538310D01*
X85282400Y-53998310D01*
X85929997Y-53998310D01*
X86074423Y-54347016D01*
X86449046Y-54775141D01*
X86680099Y-54889400D01*
X86449046Y-55003659D01*
X86074423Y-55431784D01*
X85929997Y-55780490D01*
X86041011Y-56005400D01*
X87183900Y-56005400D01*
X87183900Y-53773400D01*
X86041011Y-53773400D01*
X85929997Y-53998310D01*
X85282400Y-53998310D01*
X85282400Y-51458310D01*
X85929997Y-51458310D01*
X86074423Y-51807016D01*
X86449046Y-52235141D01*
X86680099Y-52349400D01*
X86449046Y-52463659D01*
X86074423Y-52891784D01*
X85929997Y-53240490D01*
X86041011Y-53465400D01*
X87183900Y-53465400D01*
X87183900Y-51233400D01*
X86041011Y-51233400D01*
X85929997Y-51458310D01*
X85282400Y-51458310D01*
X85282400Y-48918310D01*
X85929997Y-48918310D01*
X86074423Y-49267016D01*
X86449046Y-49695141D01*
X86680099Y-49809400D01*
X86449046Y-49923659D01*
X86074423Y-50351784D01*
X85929997Y-50700490D01*
X86041011Y-50925400D01*
X87183900Y-50925400D01*
X87183900Y-48693400D01*
X86041011Y-48693400D01*
X85929997Y-48918310D01*
X85282400Y-48918310D01*
X85282400Y-46378310D01*
X85929997Y-46378310D01*
X86074423Y-46727016D01*
X86449046Y-47155141D01*
X86680099Y-47269400D01*
X86449046Y-47383659D01*
X86074423Y-47811784D01*
X85929997Y-48160490D01*
X86041011Y-48385400D01*
X87183900Y-48385400D01*
X87183900Y-46153400D01*
X86041011Y-46153400D01*
X85929997Y-46378310D01*
X85282400Y-46378310D01*
X85282400Y-43838310D01*
X85929997Y-43838310D01*
X86074423Y-44187016D01*
X86449046Y-44615141D01*
X86680099Y-44729400D01*
X86449046Y-44843659D01*
X86074423Y-45271784D01*
X85929997Y-45620490D01*
X86041011Y-45845400D01*
X87183900Y-45845400D01*
X87183900Y-43613400D01*
X86041011Y-43613400D01*
X85929997Y-43838310D01*
X85282400Y-43838310D01*
X85282400Y-43080490D01*
X85929997Y-43080490D01*
X86041011Y-43305400D01*
X87183900Y-43305400D01*
X87183900Y-42161544D01*
X86958989Y-42051485D01*
X86449046Y-42303659D01*
X86074423Y-42731784D01*
X85929997Y-43080490D01*
X85282400Y-43080490D01*
X85282400Y-41657900D01*
X149654900Y-41657900D01*
X149654900Y-42736729D01*
X149654900Y-42736729D01*
G37*
X149654900Y-42736729D02*
X149391784Y-42560920D01*
X149009100Y-42484800D01*
X148956730Y-42484800D01*
X148943117Y-42412454D01*
X148811710Y-42208242D01*
X148611207Y-42071244D01*
X148373200Y-42023046D01*
X146673200Y-42023046D01*
X146450854Y-42064883D01*
X146246642Y-42196290D01*
X146109644Y-42396793D01*
X146061446Y-42634800D01*
X146061446Y-44334800D01*
X146103283Y-44557146D01*
X146234690Y-44761358D01*
X146435193Y-44898356D01*
X146577672Y-44927209D01*
X146469488Y-44999495D01*
X146155168Y-45469909D01*
X146044793Y-46024800D01*
X146155168Y-46579691D01*
X146469488Y-47050105D01*
X146835701Y-47294800D01*
X146469488Y-47539495D01*
X146155168Y-48009909D01*
X146044793Y-48564800D01*
X146155168Y-49119691D01*
X146469488Y-49590105D01*
X146835701Y-49834800D01*
X146469488Y-50079495D01*
X146155168Y-50549909D01*
X146044793Y-51104800D01*
X146155168Y-51659691D01*
X146469488Y-52130105D01*
X146835701Y-52374800D01*
X146469488Y-52619495D01*
X146155168Y-53089909D01*
X146044793Y-53644800D01*
X146155168Y-54199691D01*
X146469488Y-54670105D01*
X146835701Y-54914800D01*
X146469488Y-55159495D01*
X146155168Y-55629909D01*
X146044793Y-56184800D01*
X146155168Y-56739691D01*
X146469488Y-57210105D01*
X146835701Y-57454800D01*
X146469488Y-57699495D01*
X146155168Y-58169909D01*
X146044793Y-58724800D01*
X146155168Y-59279691D01*
X146469488Y-59750105D01*
X146835701Y-59994800D01*
X146469488Y-60239495D01*
X146155168Y-60709909D01*
X146044793Y-61264800D01*
X146155168Y-61819691D01*
X146469488Y-62290105D01*
X146835701Y-62534800D01*
X146469488Y-62779495D01*
X146155168Y-63249909D01*
X146044793Y-63804800D01*
X146155168Y-64359691D01*
X146469488Y-64830105D01*
X146848332Y-65083240D01*
X146634346Y-65189059D01*
X146259723Y-65617184D01*
X146115297Y-65965890D01*
X146226311Y-66190800D01*
X147369200Y-66190800D01*
X147369200Y-66170800D01*
X147677200Y-66170800D01*
X147677200Y-66190800D01*
X147697200Y-66190800D01*
X147697200Y-66498800D01*
X147677200Y-66498800D01*
X147677200Y-67642656D01*
X147902111Y-67752715D01*
X148412054Y-67500541D01*
X148707600Y-67162786D01*
X148707600Y-70273986D01*
X147405640Y-71575946D01*
X146508100Y-71575946D01*
X146285754Y-71617783D01*
X146081542Y-71749190D01*
X145944544Y-71949693D01*
X145926722Y-72037700D01*
X143332200Y-72037700D01*
X142949516Y-72113820D01*
X142625093Y-72330593D01*
X142498886Y-72456800D01*
X133098522Y-72456800D01*
X133094317Y-72434454D01*
X132962910Y-72230242D01*
X132762407Y-72093244D01*
X132524400Y-72045046D01*
X130924400Y-72045046D01*
X130702054Y-72086883D01*
X130497842Y-72218290D01*
X130360844Y-72418793D01*
X130353147Y-72456800D01*
X122351800Y-72456800D01*
X121969117Y-72532920D01*
X121783716Y-72656801D01*
X121644693Y-72749693D01*
X120565986Y-73828400D01*
X102903214Y-73828400D01*
X98332007Y-69257193D01*
X98007584Y-69040420D01*
X97624900Y-68964300D01*
X88882413Y-68964300D01*
X88429114Y-68511000D01*
X108533846Y-68511000D01*
X108533846Y-69411000D01*
X108575683Y-69633346D01*
X108707090Y-69837558D01*
X108907593Y-69974556D01*
X108955898Y-69984338D01*
X108813062Y-70126925D01*
X108675757Y-70457594D01*
X108675444Y-70815636D01*
X108812172Y-71146543D01*
X109065125Y-71399938D01*
X109395794Y-71537243D01*
X109753836Y-71537556D01*
X110084743Y-71400828D01*
X110338138Y-71147875D01*
X110475443Y-70817206D01*
X110475756Y-70459164D01*
X110470600Y-70446686D01*
X110470600Y-69999234D01*
X110567946Y-69980917D01*
X110772158Y-69849510D01*
X110845608Y-69742012D01*
X110907090Y-69837558D01*
X111104125Y-69972187D01*
X110933642Y-70081890D01*
X110796644Y-70282393D01*
X110748446Y-70520400D01*
X110748446Y-71770400D01*
X110790283Y-71992746D01*
X110921690Y-72196958D01*
X111122193Y-72333956D01*
X111360200Y-72382154D01*
X112860200Y-72382154D01*
X113082546Y-72340317D01*
X113286758Y-72208910D01*
X113360208Y-72101412D01*
X113421690Y-72196958D01*
X113622193Y-72333956D01*
X113860200Y-72382154D01*
X115360200Y-72382154D01*
X115582546Y-72340317D01*
X115786758Y-72208910D01*
X115923756Y-72008407D01*
X115971954Y-71770400D01*
X115971954Y-70520400D01*
X115930117Y-70298054D01*
X115799439Y-70094975D01*
X115919707Y-69974707D01*
X115935893Y-69950483D01*
X116136480Y-69650283D01*
X116212600Y-69267600D01*
X116212600Y-66989200D01*
X117162386Y-66989200D01*
X120273093Y-70099907D01*
X120597517Y-70316680D01*
X120980200Y-70392800D01*
X135343438Y-70392800D01*
X135500718Y-70628187D01*
X136052238Y-70996700D01*
X136702800Y-71126105D01*
X137353362Y-70996700D01*
X137904882Y-70628187D01*
X138273395Y-70076667D01*
X138402800Y-69426105D01*
X138402800Y-69359495D01*
X138273395Y-68708933D01*
X137904882Y-68157413D01*
X137353362Y-67788900D01*
X136702800Y-67659495D01*
X136052238Y-67788900D01*
X135500718Y-68157413D01*
X135343438Y-68392800D01*
X121394414Y-68392800D01*
X119725324Y-66723710D01*
X146115297Y-66723710D01*
X146259723Y-67072416D01*
X146634346Y-67500541D01*
X147144289Y-67752715D01*
X147369200Y-67642656D01*
X147369200Y-66498800D01*
X146226311Y-66498800D01*
X146115297Y-66723710D01*
X119725324Y-66723710D01*
X118283707Y-65282093D01*
X117959284Y-65065320D01*
X117576600Y-64989200D01*
X115212600Y-64989200D01*
X115020323Y-65027446D01*
X114212600Y-65027446D01*
X113990254Y-65069283D01*
X113786042Y-65200690D01*
X113649044Y-65401193D01*
X113600846Y-65639200D01*
X113600846Y-66339200D01*
X113642683Y-66561546D01*
X113774090Y-66765758D01*
X113974593Y-66902756D01*
X114212600Y-66950954D01*
X114212600Y-68853386D01*
X113903093Y-69162893D01*
X113686320Y-69487316D01*
X113629000Y-69775484D01*
X113610200Y-69870000D01*
X113610200Y-69968278D01*
X113433642Y-70081890D01*
X113360192Y-70189388D01*
X113298710Y-70093842D01*
X113098207Y-69956844D01*
X112875457Y-69911736D01*
X112972158Y-69849510D01*
X113109156Y-69649007D01*
X113157354Y-69411000D01*
X113157354Y-68511000D01*
X113115517Y-68288654D01*
X112984110Y-68084442D01*
X112783607Y-67947444D01*
X112612600Y-67912814D01*
X112612600Y-67900954D01*
X112812600Y-67900954D01*
X113034946Y-67859117D01*
X113239158Y-67727710D01*
X113376156Y-67527207D01*
X113424354Y-67289200D01*
X113424354Y-66589200D01*
X113382517Y-66366854D01*
X113251110Y-66162642D01*
X113050607Y-66025644D01*
X112872774Y-65989632D01*
X113034946Y-65959117D01*
X113239158Y-65827710D01*
X113376156Y-65627207D01*
X113424354Y-65389200D01*
X113424354Y-64689200D01*
X113382517Y-64466854D01*
X113251110Y-64262642D01*
X113050607Y-64125644D01*
X112812600Y-64077446D01*
X112612600Y-64077446D01*
X112612600Y-63654200D01*
X112571159Y-63445859D01*
X112571256Y-63334464D01*
X112434528Y-63003557D01*
X112181575Y-62750162D01*
X111850906Y-62612857D01*
X111492864Y-62612544D01*
X111161957Y-62749272D01*
X110908562Y-63002225D01*
X110771257Y-63332894D01*
X110770944Y-63690936D01*
X110907672Y-64021843D01*
X110963178Y-64077446D01*
X110812600Y-64077446D01*
X110590254Y-64119283D01*
X110386042Y-64250690D01*
X110249044Y-64451193D01*
X110200846Y-64689200D01*
X110200846Y-65389200D01*
X110242683Y-65611546D01*
X110374090Y-65815758D01*
X110574593Y-65952756D01*
X110752426Y-65988768D01*
X110590254Y-66019283D01*
X110386042Y-66150690D01*
X110249044Y-66351193D01*
X110200846Y-66589200D01*
X110200846Y-67289200D01*
X110242683Y-67511546D01*
X110374090Y-67715758D01*
X110574593Y-67852756D01*
X110812600Y-67900954D01*
X111012600Y-67900954D01*
X111012600Y-68012287D01*
X110919042Y-68072490D01*
X110845592Y-68179988D01*
X110784110Y-68084442D01*
X110583607Y-67947444D01*
X110345600Y-67899246D01*
X109145600Y-67899246D01*
X108923254Y-67941083D01*
X108719042Y-68072490D01*
X108582044Y-68272993D01*
X108533846Y-68511000D01*
X88429114Y-68511000D01*
X88337900Y-68419786D01*
X88337900Y-67380594D01*
X88391612Y-67344705D01*
X88408520Y-67319400D01*
X88444370Y-67319400D01*
X88457983Y-67391746D01*
X88589390Y-67595958D01*
X88789893Y-67732956D01*
X89027900Y-67781154D01*
X90727900Y-67781154D01*
X90950246Y-67739317D01*
X91154458Y-67607910D01*
X91291456Y-67407407D01*
X91309278Y-67319400D01*
X92457856Y-67319400D01*
X92475900Y-67323054D01*
X93375900Y-67323054D01*
X93598246Y-67281217D01*
X93758786Y-67177912D01*
X93863493Y-67249456D01*
X94101500Y-67297654D01*
X95001500Y-67297654D01*
X95223846Y-67255817D01*
X95343542Y-67178795D01*
X95539893Y-67312956D01*
X95777900Y-67361154D01*
X96677900Y-67361154D01*
X96900246Y-67319317D01*
X97085359Y-67200200D01*
X97113000Y-67200200D01*
X97130090Y-67226758D01*
X97330593Y-67363756D01*
X97568600Y-67411954D01*
X98468600Y-67411954D01*
X98690946Y-67370117D01*
X98895158Y-67238710D01*
X99032156Y-67038207D01*
X99080354Y-66800200D01*
X99080354Y-65600200D01*
X99038517Y-65377854D01*
X98907110Y-65173642D01*
X98857142Y-65139500D01*
X101430400Y-65139500D01*
X101430400Y-65579438D01*
X101522962Y-65802904D01*
X101693995Y-65973937D01*
X101917461Y-66066500D01*
X102482400Y-66066500D01*
X102634400Y-65914500D01*
X102634400Y-64987500D01*
X101582400Y-64987500D01*
X101430400Y-65139500D01*
X98857142Y-65139500D01*
X98799612Y-65100192D01*
X98895158Y-65038710D01*
X99032156Y-64838207D01*
X99080354Y-64600200D01*
X99080354Y-64087562D01*
X101430400Y-64087562D01*
X101430400Y-64527500D01*
X101582400Y-64679500D01*
X102634400Y-64679500D01*
X102634400Y-63752500D01*
X102942400Y-63752500D01*
X102942400Y-64679500D01*
X102962400Y-64679500D01*
X102962400Y-64987500D01*
X102942400Y-64987500D01*
X102942400Y-65914500D01*
X103094400Y-66066500D01*
X103659339Y-66066500D01*
X103882805Y-65973937D01*
X104049693Y-65807049D01*
X104099890Y-65885058D01*
X104300393Y-66022056D01*
X104538400Y-66070254D01*
X106038400Y-66070254D01*
X106260746Y-66028417D01*
X106464958Y-65897010D01*
X106601956Y-65696507D01*
X106650154Y-65458500D01*
X106650154Y-64208500D01*
X106608317Y-63986154D01*
X106476910Y-63781942D01*
X106279359Y-63646961D01*
X106360643Y-63451206D01*
X106360956Y-63093164D01*
X106224228Y-62762257D01*
X105971275Y-62508862D01*
X105640606Y-62371557D01*
X105282564Y-62371244D01*
X104951657Y-62507972D01*
X104698262Y-62760925D01*
X104560957Y-63091594D01*
X104560644Y-63449636D01*
X104563400Y-63456306D01*
X104563400Y-63596746D01*
X104538400Y-63596746D01*
X104316054Y-63638583D01*
X104111842Y-63769990D01*
X104050098Y-63860356D01*
X103882805Y-63693063D01*
X103659339Y-63600500D01*
X103094400Y-63600500D01*
X102942400Y-63752500D01*
X102634400Y-63752500D01*
X102482400Y-63600500D01*
X101917461Y-63600500D01*
X101693995Y-63693063D01*
X101522962Y-63864096D01*
X101430400Y-64087562D01*
X99080354Y-64087562D01*
X99080354Y-63400200D01*
X99038517Y-63177854D01*
X98907110Y-62973642D01*
X98743600Y-62861920D01*
X98743600Y-62852300D01*
X98693731Y-62601588D01*
X98688413Y-62574854D01*
X98531252Y-62339648D01*
X95361340Y-59169736D01*
X103684344Y-59169736D01*
X103821072Y-59500643D01*
X104074025Y-59754038D01*
X104404694Y-59891343D01*
X104459086Y-59891391D01*
X104986248Y-60418553D01*
X105221454Y-60575713D01*
X105267485Y-60584869D01*
X105498900Y-60630900D01*
X107569000Y-60630900D01*
X107800415Y-60584869D01*
X107846446Y-60575713D01*
X108081652Y-60418552D01*
X109139456Y-59360748D01*
X120191385Y-59360748D01*
X120229563Y-59919582D01*
X120369971Y-60258557D01*
X120430680Y-60278639D01*
X120388642Y-60305690D01*
X120251644Y-60506193D01*
X120203446Y-60744200D01*
X120203446Y-62344200D01*
X120245283Y-62566546D01*
X120376690Y-62770758D01*
X120577193Y-62907756D01*
X120815200Y-62955954D01*
X122415200Y-62955954D01*
X122637546Y-62914117D01*
X122841758Y-62782710D01*
X122978756Y-62582207D01*
X123026954Y-62344200D01*
X123026954Y-60744200D01*
X122985117Y-60521854D01*
X122853710Y-60317642D01*
X122797636Y-60279329D01*
X122860429Y-60258557D01*
X123039015Y-59727652D01*
X123000837Y-59168818D01*
X122860429Y-58829843D01*
X122625169Y-58752020D01*
X121832989Y-59544200D01*
X121847131Y-59558342D01*
X121629342Y-59776131D01*
X121615200Y-59761989D01*
X121601058Y-59776131D01*
X121383269Y-59558342D01*
X121397411Y-59544200D01*
X120605231Y-58752020D01*
X120369971Y-58829843D01*
X120191385Y-59360748D01*
X109139456Y-59360748D01*
X109965973Y-58534231D01*
X120823020Y-58534231D01*
X121615200Y-59326411D01*
X122407380Y-58534231D01*
X122329557Y-58298971D01*
X122311807Y-58293000D01*
X124453895Y-58293000D01*
X124583300Y-58943562D01*
X124951813Y-59495082D01*
X125503333Y-59863595D01*
X126153895Y-59993000D01*
X126220505Y-59993000D01*
X126871067Y-59863595D01*
X127422587Y-59495082D01*
X127774427Y-58968515D01*
X129549942Y-57193000D01*
X132095446Y-57193000D01*
X132095446Y-59393000D01*
X132137283Y-59615346D01*
X132268690Y-59819558D01*
X132469193Y-59956556D01*
X132707200Y-60004754D01*
X134907200Y-60004754D01*
X135129546Y-59962917D01*
X135333758Y-59831510D01*
X135470756Y-59631007D01*
X135491877Y-59526711D01*
X135602800Y-59637635D01*
X135602800Y-60061046D01*
X135380454Y-60102883D01*
X135176242Y-60234290D01*
X135039244Y-60434793D01*
X134991046Y-60672800D01*
X134991046Y-62872800D01*
X135032883Y-63095146D01*
X135164290Y-63299358D01*
X135364793Y-63436356D01*
X135602800Y-63484554D01*
X137802800Y-63484554D01*
X138025146Y-63442717D01*
X138229358Y-63311310D01*
X138366356Y-63110807D01*
X138414554Y-62872800D01*
X138414554Y-60672800D01*
X138372717Y-60450454D01*
X138241310Y-60246242D01*
X138040807Y-60109244D01*
X137802800Y-60061046D01*
X137802800Y-59182000D01*
X137719067Y-58761048D01*
X137608747Y-58595943D01*
X137480618Y-58404183D01*
X136591617Y-57515183D01*
X136447151Y-57418654D01*
X136234752Y-57276733D01*
X135813800Y-57193000D01*
X135518954Y-57193000D01*
X135477117Y-56970654D01*
X135345710Y-56766442D01*
X135145207Y-56629444D01*
X134907200Y-56581246D01*
X132707200Y-56581246D01*
X132484854Y-56623083D01*
X132280642Y-56754490D01*
X132143644Y-56954993D01*
X132095446Y-57193000D01*
X129549942Y-57193000D01*
X130888788Y-55854154D01*
X131645600Y-55854154D01*
X131867946Y-55812317D01*
X132072158Y-55680910D01*
X132209156Y-55480407D01*
X132257354Y-55242400D01*
X132257354Y-51742400D01*
X132215517Y-51520054D01*
X132084110Y-51315842D01*
X131883607Y-51178844D01*
X131645600Y-51130646D01*
X128145600Y-51130646D01*
X127923254Y-51172483D01*
X127719042Y-51303890D01*
X127582044Y-51504393D01*
X127553600Y-51644853D01*
X127553600Y-50798400D01*
X127401600Y-50646400D01*
X125349600Y-50646400D01*
X125349600Y-52698400D01*
X125501600Y-52850400D01*
X127066538Y-52850400D01*
X127290004Y-52757838D01*
X127461037Y-52586805D01*
X127533846Y-52411029D01*
X127533846Y-54683612D01*
X125478380Y-56739078D01*
X124951813Y-57090918D01*
X124583300Y-57642438D01*
X124453895Y-58293000D01*
X122311807Y-58293000D01*
X121798652Y-58120385D01*
X121239818Y-58158563D01*
X120900843Y-58298971D01*
X120823020Y-58534231D01*
X109965973Y-58534231D01*
X110621652Y-57878553D01*
X110733771Y-57710755D01*
X110778813Y-57643345D01*
X110834000Y-57365900D01*
X110834000Y-56185635D01*
X110867359Y-56164169D01*
X112161620Y-56164169D01*
X112239443Y-56399429D01*
X112770348Y-56578015D01*
X113329182Y-56539837D01*
X113668157Y-56399429D01*
X113745980Y-56164169D01*
X112953800Y-55371989D01*
X112161620Y-56164169D01*
X110867359Y-56164169D01*
X110985558Y-56088110D01*
X111122556Y-55887607D01*
X111170754Y-55649600D01*
X111170754Y-54970748D01*
X111529985Y-54970748D01*
X111568163Y-55529582D01*
X111708571Y-55868557D01*
X111943831Y-55946380D01*
X112736011Y-55154200D01*
X113171589Y-55154200D01*
X113963769Y-55946380D01*
X114199029Y-55868557D01*
X114377615Y-55337652D01*
X114339437Y-54778818D01*
X114199029Y-54439843D01*
X113963769Y-54362020D01*
X113171589Y-55154200D01*
X112736011Y-55154200D01*
X111943831Y-54362020D01*
X111708571Y-54439843D01*
X111529985Y-54970748D01*
X111170754Y-54970748D01*
X111170754Y-54449600D01*
X111128917Y-54227254D01*
X110997510Y-54023042D01*
X110890012Y-53949592D01*
X110985558Y-53888110D01*
X111122556Y-53687607D01*
X111169822Y-53454200D01*
X111542046Y-53454200D01*
X111583883Y-53676546D01*
X111715290Y-53880758D01*
X111915793Y-54017756D01*
X112153800Y-54065954D01*
X112187514Y-54065954D01*
X112161620Y-54144231D01*
X112953800Y-54936411D01*
X113745980Y-54144231D01*
X113720086Y-54065954D01*
X113753800Y-54065954D01*
X113976146Y-54024117D01*
X114180358Y-53892710D01*
X114317356Y-53692207D01*
X114365554Y-53454200D01*
X114365554Y-51854200D01*
X114323717Y-51631854D01*
X114192310Y-51427642D01*
X113991807Y-51290644D01*
X113753800Y-51242446D01*
X112153800Y-51242446D01*
X111931454Y-51284283D01*
X111727242Y-51415690D01*
X111590244Y-51616193D01*
X111542046Y-51854200D01*
X111017560Y-51854200D01*
X110997510Y-51823042D01*
X110797007Y-51686044D01*
X110559000Y-51637846D01*
X109659000Y-51637846D01*
X109436654Y-51679683D01*
X109232442Y-51811090D01*
X109095444Y-52011593D01*
X109047246Y-52249600D01*
X109047246Y-53449600D01*
X109089083Y-53671946D01*
X109220490Y-53876158D01*
X109327988Y-53949608D01*
X109232442Y-54011090D01*
X109095444Y-54211593D01*
X109047246Y-54449600D01*
X109047246Y-55649600D01*
X109089083Y-55871946D01*
X109220490Y-56076158D01*
X109384000Y-56187880D01*
X109384000Y-57065595D01*
X107268696Y-59180900D01*
X106640246Y-59180900D01*
X106640356Y-59054564D01*
X106503628Y-58723657D01*
X106493189Y-58713200D01*
X106768900Y-58713200D01*
X107000315Y-58667169D01*
X107046346Y-58658013D01*
X107138902Y-58596168D01*
X107239236Y-58596256D01*
X107570143Y-58459528D01*
X107823538Y-58206575D01*
X107960843Y-57875906D01*
X107961156Y-57517864D01*
X107824428Y-57186957D01*
X107695700Y-57058004D01*
X108116151Y-56637554D01*
X108295600Y-56637554D01*
X108517946Y-56595717D01*
X108722158Y-56464310D01*
X108859156Y-56263807D01*
X108907354Y-56025800D01*
X108907354Y-54525800D01*
X108865517Y-54303454D01*
X108734110Y-54099242D01*
X108643744Y-54037498D01*
X108811037Y-53870205D01*
X108903600Y-53646739D01*
X108903600Y-53081800D01*
X108751600Y-52929800D01*
X107824600Y-52929800D01*
X107824600Y-52949800D01*
X107516600Y-52949800D01*
X107516600Y-52929800D01*
X106745000Y-52929800D01*
X106719600Y-52904400D01*
X105792600Y-52904400D01*
X105792600Y-52924400D01*
X105484600Y-52924400D01*
X105484600Y-52904400D01*
X104557600Y-52904400D01*
X104405600Y-53056400D01*
X104405600Y-53621339D01*
X104498163Y-53844805D01*
X104665051Y-54011693D01*
X104587042Y-54061890D01*
X104450044Y-54262393D01*
X104401846Y-54500400D01*
X104401846Y-55885478D01*
X104380200Y-55994300D01*
X104380200Y-56246452D01*
X104342662Y-56283925D01*
X104205357Y-56614594D01*
X104205044Y-56972636D01*
X104341772Y-57303543D01*
X104594725Y-57556938D01*
X104925394Y-57694243D01*
X105081328Y-57694379D01*
X105070387Y-57710754D01*
X105070387Y-57710755D01*
X105015200Y-57988200D01*
X105015200Y-58195837D01*
X104764306Y-58091657D01*
X104406264Y-58091344D01*
X104075357Y-58228072D01*
X103821962Y-58481025D01*
X103684657Y-58811694D01*
X103684344Y-59169736D01*
X95361340Y-59169736D01*
X91838352Y-55646748D01*
X91603146Y-55489587D01*
X91556994Y-55480407D01*
X91325700Y-55434400D01*
X91132269Y-55434400D01*
X90931612Y-55134095D01*
X90602900Y-54914457D01*
X90602900Y-54864343D01*
X90931612Y-54644705D01*
X91245932Y-54174291D01*
X91356307Y-53619400D01*
X91245932Y-53064509D01*
X90931612Y-52594095D01*
X90565399Y-52349400D01*
X90931612Y-52104705D01*
X91082114Y-51879461D01*
X104405600Y-51879461D01*
X104405600Y-52444400D01*
X104557600Y-52596400D01*
X105484600Y-52596400D01*
X105484600Y-51544400D01*
X105792600Y-51544400D01*
X105792600Y-52596400D01*
X106564200Y-52596400D01*
X106589600Y-52621800D01*
X107516600Y-52621800D01*
X107516600Y-51569800D01*
X107824600Y-51569800D01*
X107824600Y-52621800D01*
X108751600Y-52621800D01*
X108903600Y-52469800D01*
X108903600Y-51904861D01*
X108811037Y-51681395D01*
X108640004Y-51510362D01*
X108416538Y-51417800D01*
X107976600Y-51417800D01*
X107824600Y-51569800D01*
X107516600Y-51569800D01*
X107364600Y-51417800D01*
X106924662Y-51417800D01*
X106701196Y-51510362D01*
X106667300Y-51544258D01*
X106608004Y-51484962D01*
X106384538Y-51392400D01*
X105944600Y-51392400D01*
X105792600Y-51544400D01*
X105484600Y-51544400D01*
X105332600Y-51392400D01*
X104892662Y-51392400D01*
X104669196Y-51484962D01*
X104498163Y-51655995D01*
X104405600Y-51879461D01*
X91082114Y-51879461D01*
X91245932Y-51634291D01*
X91356307Y-51079400D01*
X91300413Y-50798400D01*
X122837600Y-50798400D01*
X122837600Y-52363339D01*
X122930163Y-52586805D01*
X123101196Y-52757838D01*
X123324662Y-52850400D01*
X124889600Y-52850400D01*
X125041600Y-52698400D01*
X125041600Y-50646400D01*
X122989600Y-50646400D01*
X122837600Y-50798400D01*
X91300413Y-50798400D01*
X91245932Y-50524509D01*
X90931612Y-50054095D01*
X90565399Y-49809400D01*
X90931612Y-49564705D01*
X91245932Y-49094291D01*
X91339984Y-48621461D01*
X122837600Y-48621461D01*
X122837600Y-50186400D01*
X122989600Y-50338400D01*
X125041600Y-50338400D01*
X125041600Y-48286400D01*
X125349600Y-48286400D01*
X125349600Y-50338400D01*
X127401600Y-50338400D01*
X127553600Y-50186400D01*
X127553600Y-49401966D01*
X127630163Y-49586805D01*
X127801196Y-49757838D01*
X128024662Y-49850400D01*
X129589600Y-49850400D01*
X129741600Y-49698400D01*
X129741600Y-47646400D01*
X130049600Y-47646400D01*
X130049600Y-49698400D01*
X130201600Y-49850400D01*
X131766538Y-49850400D01*
X131990004Y-49757838D01*
X132161037Y-49586805D01*
X132253600Y-49363339D01*
X132253600Y-47798400D01*
X132101600Y-47646400D01*
X130049600Y-47646400D01*
X129741600Y-47646400D01*
X127689600Y-47646400D01*
X127537600Y-47798400D01*
X127537600Y-48582834D01*
X127461037Y-48397995D01*
X127290004Y-48226962D01*
X127066538Y-48134400D01*
X125501600Y-48134400D01*
X125349600Y-48286400D01*
X125041600Y-48286400D01*
X124889600Y-48134400D01*
X123324662Y-48134400D01*
X123101196Y-48226962D01*
X122930163Y-48397995D01*
X122837600Y-48621461D01*
X91339984Y-48621461D01*
X91356307Y-48539400D01*
X91245932Y-47984509D01*
X90931612Y-47514095D01*
X90565399Y-47269400D01*
X90931612Y-47024705D01*
X91021657Y-46889942D01*
X103506018Y-46889942D01*
X103665534Y-47276000D01*
X103960646Y-47571628D01*
X104346426Y-47731818D01*
X104764142Y-47732182D01*
X105150200Y-47572666D01*
X105445828Y-47277554D01*
X105606018Y-46891774D01*
X105606019Y-46889942D01*
X107906018Y-46889942D01*
X108065534Y-47276000D01*
X108360646Y-47571628D01*
X108746426Y-47731818D01*
X109164142Y-47732182D01*
X109550200Y-47572666D01*
X109845828Y-47277554D01*
X110006018Y-46891774D01*
X110006382Y-46474058D01*
X109846866Y-46088000D01*
X109551754Y-45792372D01*
X109165974Y-45632182D01*
X108748258Y-45631818D01*
X108362200Y-45791334D01*
X108066572Y-46086446D01*
X107906382Y-46472226D01*
X107906018Y-46889942D01*
X105606019Y-46889942D01*
X105606382Y-46474058D01*
X105446866Y-46088000D01*
X105151754Y-45792372D01*
X104765974Y-45632182D01*
X104348258Y-45631818D01*
X103962200Y-45791334D01*
X103666572Y-46086446D01*
X103506382Y-46472226D01*
X103506018Y-46889942D01*
X91021657Y-46889942D01*
X91245932Y-46554291D01*
X91356307Y-45999400D01*
X91281131Y-45621461D01*
X127537600Y-45621461D01*
X127537600Y-47186400D01*
X127689600Y-47338400D01*
X129741600Y-47338400D01*
X129741600Y-45286400D01*
X130049600Y-45286400D01*
X130049600Y-47338400D01*
X132101600Y-47338400D01*
X132253600Y-47186400D01*
X132253600Y-45621461D01*
X132161037Y-45397995D01*
X131990004Y-45226962D01*
X131766538Y-45134400D01*
X130201600Y-45134400D01*
X130049600Y-45286400D01*
X129741600Y-45286400D01*
X129589600Y-45134400D01*
X128024662Y-45134400D01*
X127801196Y-45226962D01*
X127630163Y-45397995D01*
X127537600Y-45621461D01*
X91281131Y-45621461D01*
X91245932Y-45444509D01*
X90931612Y-44974095D01*
X90565399Y-44729400D01*
X90931612Y-44484705D01*
X91245932Y-44014291D01*
X91356307Y-43459400D01*
X91245932Y-42904509D01*
X90931612Y-42434095D01*
X90461198Y-42119775D01*
X89906307Y-42009400D01*
X89849493Y-42009400D01*
X89294602Y-42119775D01*
X88824188Y-42434095D01*
X88610523Y-42753867D01*
X88601377Y-42731784D01*
X88226754Y-42303659D01*
X87716811Y-42051485D01*
X87491900Y-42161544D01*
X87491900Y-43305400D01*
X87511900Y-43305400D01*
X87511900Y-43613400D01*
X87491900Y-43613400D01*
X87491900Y-45845400D01*
X87511900Y-45845400D01*
X87511900Y-46153400D01*
X87491900Y-46153400D01*
X87491900Y-48385400D01*
X87511900Y-48385400D01*
X87511900Y-48693400D01*
X87491900Y-48693400D01*
X87491900Y-50925400D01*
X87511900Y-50925400D01*
X87511900Y-51233400D01*
X87491900Y-51233400D01*
X87491900Y-53465400D01*
X87511900Y-53465400D01*
X87511900Y-53773400D01*
X87491900Y-53773400D01*
X87491900Y-56005400D01*
X87511900Y-56005400D01*
X87511900Y-56313400D01*
X87491900Y-56313400D01*
X87491900Y-58545400D01*
X87511900Y-58545400D01*
X87511900Y-58853400D01*
X87491900Y-58853400D01*
X87491900Y-61085400D01*
X87511900Y-61085400D01*
X87511900Y-61393400D01*
X87491900Y-61393400D01*
X87491900Y-63625400D01*
X87511900Y-63625400D01*
X87511900Y-63933400D01*
X87491900Y-63933400D01*
X87491900Y-63953400D01*
X87183900Y-63953400D01*
X87183900Y-63933400D01*
X86041011Y-63933400D01*
X85929997Y-64158310D01*
X86074423Y-64507016D01*
X86449046Y-64935141D01*
X86663032Y-65040960D01*
X86284188Y-65294095D01*
X85969868Y-65764509D01*
X85859493Y-66319400D01*
X85969868Y-66874291D01*
X86284188Y-67344705D01*
X86337900Y-67380594D01*
X86337900Y-68834000D01*
X86407826Y-69185543D01*
X86300593Y-69257193D01*
X85282400Y-70275386D01*
X85282400Y-61618310D01*
X85929997Y-61618310D01*
X86074423Y-61967016D01*
X86449046Y-62395141D01*
X86680099Y-62509400D01*
X86449046Y-62623659D01*
X86074423Y-63051784D01*
X85929997Y-63400490D01*
X86041011Y-63625400D01*
X87183900Y-63625400D01*
X87183900Y-61393400D01*
X86041011Y-61393400D01*
X85929997Y-61618310D01*
X85282400Y-61618310D01*
X85282400Y-59078310D01*
X85929997Y-59078310D01*
X86074423Y-59427016D01*
X86449046Y-59855141D01*
X86680099Y-59969400D01*
X86449046Y-60083659D01*
X86074423Y-60511784D01*
X85929997Y-60860490D01*
X86041011Y-61085400D01*
X87183900Y-61085400D01*
X87183900Y-58853400D01*
X86041011Y-58853400D01*
X85929997Y-59078310D01*
X85282400Y-59078310D01*
X85282400Y-56538310D01*
X85929997Y-56538310D01*
X86074423Y-56887016D01*
X86449046Y-57315141D01*
X86680099Y-57429400D01*
X86449046Y-57543659D01*
X86074423Y-57971784D01*
X85929997Y-58320490D01*
X86041011Y-58545400D01*
X87183900Y-58545400D01*
X87183900Y-56313400D01*
X86041011Y-56313400D01*
X85929997Y-56538310D01*
X85282400Y-56538310D01*
X85282400Y-53998310D01*
X85929997Y-53998310D01*
X86074423Y-54347016D01*
X86449046Y-54775141D01*
X86680099Y-54889400D01*
X86449046Y-55003659D01*
X86074423Y-55431784D01*
X85929997Y-55780490D01*
X86041011Y-56005400D01*
X87183900Y-56005400D01*
X87183900Y-53773400D01*
X86041011Y-53773400D01*
X85929997Y-53998310D01*
X85282400Y-53998310D01*
X85282400Y-51458310D01*
X85929997Y-51458310D01*
X86074423Y-51807016D01*
X86449046Y-52235141D01*
X86680099Y-52349400D01*
X86449046Y-52463659D01*
X86074423Y-52891784D01*
X85929997Y-53240490D01*
X86041011Y-53465400D01*
X87183900Y-53465400D01*
X87183900Y-51233400D01*
X86041011Y-51233400D01*
X85929997Y-51458310D01*
X85282400Y-51458310D01*
X85282400Y-48918310D01*
X85929997Y-48918310D01*
X86074423Y-49267016D01*
X86449046Y-49695141D01*
X86680099Y-49809400D01*
X86449046Y-49923659D01*
X86074423Y-50351784D01*
X85929997Y-50700490D01*
X86041011Y-50925400D01*
X87183900Y-50925400D01*
X87183900Y-48693400D01*
X86041011Y-48693400D01*
X85929997Y-48918310D01*
X85282400Y-48918310D01*
X85282400Y-46378310D01*
X85929997Y-46378310D01*
X86074423Y-46727016D01*
X86449046Y-47155141D01*
X86680099Y-47269400D01*
X86449046Y-47383659D01*
X86074423Y-47811784D01*
X85929997Y-48160490D01*
X86041011Y-48385400D01*
X87183900Y-48385400D01*
X87183900Y-46153400D01*
X86041011Y-46153400D01*
X85929997Y-46378310D01*
X85282400Y-46378310D01*
X85282400Y-43838310D01*
X85929997Y-43838310D01*
X86074423Y-44187016D01*
X86449046Y-44615141D01*
X86680099Y-44729400D01*
X86449046Y-44843659D01*
X86074423Y-45271784D01*
X85929997Y-45620490D01*
X86041011Y-45845400D01*
X87183900Y-45845400D01*
X87183900Y-43613400D01*
X86041011Y-43613400D01*
X85929997Y-43838310D01*
X85282400Y-43838310D01*
X85282400Y-43080490D01*
X85929997Y-43080490D01*
X86041011Y-43305400D01*
X87183900Y-43305400D01*
X87183900Y-42161544D01*
X86958989Y-42051485D01*
X86449046Y-42303659D01*
X86074423Y-42731784D01*
X85929997Y-43080490D01*
X85282400Y-43080490D01*
X85282400Y-41657900D01*
X149654900Y-41657900D01*
X149654900Y-42736729D01*
M02*
