G04 #@! TF.FileFunction,Soldermask,Bot*
%FSLAX46Y46*%
G04 Gerber Fmt 4.6, Leading zero omitted, Abs format (unit mm)*
G04 Created by KiCad (PCBNEW 4.0.4-stable) date 02/19/22 22:26:41*
%MOMM*%
%LPD*%
G01*
G04 APERTURE LIST*
%ADD10C,0.100000*%
%ADD11R,1.650000X1.900000*%
%ADD12R,2.000000X2.000000*%
%ADD13C,2.000000*%
%ADD14R,1.900000X1.650000*%
%ADD15R,3.900000X3.900000*%
%ADD16R,2.600000X2.600000*%
%ADD17O,2.600000X2.600000*%
%ADD18O,2.400000X1.600000*%
%ADD19R,2.100000X2.100000*%
%ADD20O,2.100000X2.100000*%
%ADD21C,1.300000*%
%ADD22R,2.400000X1.100000*%
%ADD23R,1.300000X1.600000*%
%ADD24R,1.600000X1.300000*%
%ADD25C,2.400000*%
%ADD26R,1.200000X2.200000*%
%ADD27C,1.400000*%
G04 APERTURE END LIST*
D10*
D11*
X110197900Y-84092100D03*
X110197900Y-81592100D03*
X114274600Y-84092100D03*
X114274600Y-81592100D03*
D12*
X121615200Y-61544200D03*
D13*
X121615200Y-59544200D03*
D14*
X119501600Y-91554300D03*
X122001600Y-91554300D03*
D12*
X131724400Y-73456800D03*
D13*
X131724400Y-75956800D03*
D11*
X111683800Y-96273300D03*
X111683800Y-98773300D03*
D14*
X112110200Y-71145400D03*
X114610200Y-71145400D03*
X122027000Y-89496900D03*
X119527000Y-89496900D03*
D11*
X109702600Y-98773300D03*
X109702600Y-96273300D03*
D14*
X107345800Y-89446100D03*
X104845800Y-89446100D03*
D11*
X112217200Y-84092100D03*
X112217200Y-81592100D03*
D14*
X105288400Y-64833500D03*
X102788400Y-64833500D03*
D11*
X105638600Y-52750400D03*
X105638600Y-55250400D03*
D12*
X112953800Y-52654200D03*
D13*
X112953800Y-55154200D03*
D11*
X107670600Y-52775800D03*
X107670600Y-55275800D03*
D15*
X129895600Y-53492400D03*
X129895600Y-47492400D03*
X125195600Y-50492400D03*
D16*
X133807200Y-58293000D03*
D17*
X126187200Y-58293000D03*
D16*
X136702800Y-61772800D03*
D17*
X136702800Y-69392800D03*
D18*
X101275800Y-118900000D03*
X101275800Y-121440000D03*
X101275800Y-123980000D03*
X101275800Y-126520000D03*
D19*
X87388700Y-73520300D03*
D20*
X87388700Y-76060300D03*
X87388700Y-78600300D03*
X87388700Y-81140300D03*
X87388700Y-83680300D03*
X87388700Y-86220300D03*
X87388700Y-88760300D03*
X87388700Y-91300300D03*
X87388700Y-93840300D03*
X87388700Y-96380300D03*
X87388700Y-98920300D03*
X87388700Y-101460300D03*
X87388700Y-104000300D03*
D19*
X87388700Y-110058200D03*
D20*
X87388700Y-112598200D03*
X87388700Y-115138200D03*
X87388700Y-117678200D03*
X87388700Y-120218200D03*
X87388700Y-122758200D03*
X87388700Y-125298200D03*
X87388700Y-127838200D03*
X87388700Y-130378200D03*
D19*
X89877900Y-66319400D03*
D20*
X87337900Y-66319400D03*
X89877900Y-63779400D03*
X87337900Y-63779400D03*
X89877900Y-61239400D03*
X87337900Y-61239400D03*
X89877900Y-58699400D03*
X87337900Y-58699400D03*
X89877900Y-56159400D03*
X87337900Y-56159400D03*
X89877900Y-53619400D03*
X87337900Y-53619400D03*
X89877900Y-51079400D03*
X87337900Y-51079400D03*
X89877900Y-48539400D03*
X87337900Y-48539400D03*
X89877900Y-45999400D03*
X87337900Y-45999400D03*
X89877900Y-43459400D03*
X87337900Y-43459400D03*
D19*
X147294600Y-102311200D03*
D20*
X147294600Y-104851200D03*
X147294600Y-107391200D03*
X147294600Y-109931200D03*
X147294600Y-112471200D03*
X147294600Y-115011200D03*
X147294600Y-117551200D03*
X147294600Y-120091200D03*
D19*
X147523200Y-43484800D03*
D20*
X147523200Y-46024800D03*
X147523200Y-48564800D03*
X147523200Y-51104800D03*
X147523200Y-53644800D03*
X147523200Y-56184800D03*
X147523200Y-58724800D03*
X147523200Y-61264800D03*
X147523200Y-63804800D03*
X147523200Y-66344800D03*
D19*
X147358100Y-73037700D03*
D20*
X147358100Y-75577700D03*
X147358100Y-78117700D03*
X147358100Y-80657700D03*
X147358100Y-83197700D03*
X147358100Y-85737700D03*
X147358100Y-88277700D03*
X147358100Y-90817700D03*
X147358100Y-93357700D03*
X147358100Y-95897700D03*
D21*
X108956200Y-46682000D03*
X104556200Y-46682000D03*
D22*
X111812600Y-66939200D03*
X111812600Y-65039200D03*
X115212600Y-65989200D03*
D23*
X107848400Y-121102300D03*
X107848400Y-118902300D03*
X109855000Y-121140400D03*
X109855000Y-118940400D03*
X92925900Y-66111300D03*
X92925900Y-63911300D03*
X94551500Y-66085900D03*
X94551500Y-63885900D03*
X96227900Y-66149400D03*
X96227900Y-63949400D03*
X98018600Y-66200200D03*
X98018600Y-64000200D03*
X120675400Y-103779500D03*
X120675400Y-101579500D03*
D24*
X111945600Y-68961000D03*
X109745600Y-68961000D03*
D23*
X110109000Y-52849600D03*
X110109000Y-55049600D03*
D25*
X124536200Y-105960300D03*
X124536200Y-101460300D03*
X131036200Y-105960300D03*
X131036200Y-101460300D03*
D26*
X116347200Y-101080300D03*
X118247200Y-101080300D03*
X117297200Y-104380300D03*
D27*
X126085600Y-93916500D03*
X126085600Y-91376500D03*
M02*
